<svg xmlns="http://www.w3.org/2000/svg" xmlns:xlink="http://www.w3.org/1999/xlink" width="500" zoomAndPan="magnify" viewBox="0 0 375 374.999991" height="500" preserveAspectRatio="xMidYMid meet" version="1.0"><defs><clipPath id="7f79b58262"><path d="M 328.332031 176 L 346 176 L 346 314.167969 L 328.332031 314.167969 Z M 328.332031 176 " clip-rule="nonzero"/></clipPath><clipPath id="867ede5836"><path d="M 328.332031 178 L 331 178 L 331 306 L 328.332031 306 Z M 328.332031 178 " clip-rule="nonzero"/></clipPath><clipPath id="459286a8c0"><path d="M 328.332031 183 L 334 183 L 334 215 L 328.332031 215 Z M 328.332031 183 " clip-rule="nonzero"/></clipPath><clipPath id="038b6d81b2"><path d="M 328.332031 180 L 334 180 L 334 189 L 328.332031 189 Z M 328.332031 180 " clip-rule="nonzero"/></clipPath><clipPath id="a4731ecd6d"><path d="M 328.332031 218 L 343 218 L 343 312 L 328.332031 312 Z M 328.332031 218 " clip-rule="nonzero"/></clipPath><clipPath id="a4684792d8"><path d="M 330 105.667969 L 368.832031 105.667969 L 368.832031 145 L 330 145 Z M 330 105.667969 " clip-rule="nonzero"/></clipPath><clipPath id="38ba16bbf9"><path d="M 0.367188 0.398438 L 308.375 0.398438 L 308.375 142 L 0.367188 142 Z M 0.367188 0.398438 " clip-rule="nonzero"/></clipPath><clipPath id="2170007b19"><path d="M 8.742188 25.472656 L 103.609375 25.472656 L 103.609375 120.339844 L 8.742188 120.339844 Z M 8.742188 25.472656 " clip-rule="nonzero"/></clipPath><clipPath id="ed0f463e85"><path d="M 0.742188 0.472656 L 95.609375 0.472656 L 95.609375 95.339844 L 0.742188 95.339844 Z M 0.742188 0.472656 " clip-rule="nonzero"/></clipPath><clipPath id="12705ac33b"><rect x="0" width="96" y="0" height="96"/></clipPath><clipPath id="f06a507f4b"><path d="M 112.417969 25.089844 L 196.582031 25.089844 L 196.582031 119.960938 L 112.417969 119.960938 Z M 112.417969 25.089844 " clip-rule="nonzero"/></clipPath><clipPath id="69683b5b01"><path d="M 0.417969 0.0898438 L 84.582031 0.0898438 L 84.582031 94.960938 L 0.417969 94.960938 Z M 0.417969 0.0898438 " clip-rule="nonzero"/></clipPath><clipPath id="5d972c5a24"><rect x="0" width="85" y="0" height="95"/></clipPath><clipPath id="41fbce76b2"><path d="M 210.496094 23.863281 L 294.664062 23.863281 L 294.664062 118.734375 L 210.496094 118.734375 Z M 210.496094 23.863281 " clip-rule="nonzero"/></clipPath><clipPath id="e6918993ff"><path d="M 0.496094 0.863281 L 84.664062 0.863281 L 84.664062 95.734375 L 0.496094 95.734375 Z M 0.496094 0.863281 " clip-rule="nonzero"/></clipPath><clipPath id="6ce0a8ba69"><rect x="0" width="85" y="0" height="96"/></clipPath><clipPath id="0f3cd65af5"><rect x="0" width="310" y="0" height="143"/></clipPath></defs><g clip-path="url(#7f79b58262)"><path fill="#f8c717" d="M 321.238281 286.554688 C 321.238281 292.734375 316.222656 297.742188 310.039062 297.742188 L 254.828125 297.742188 C 248.644531 297.742188 243.628906 292.734375 243.628906 286.554688 L 243.628906 206.503906 C 243.628906 200.328125 248.644531 195.316406 254.828125 195.316406 L 310.039062 195.316406 C 316.222656 195.316406 321.238281 200.328125 321.238281 206.503906 L 321.238281 286.554688 M 237.929688 285.484375 C 237.929688 292.253906 232.4375 297.742188 225.664062 297.742188 L 172.589844 297.742188 C 165.8125 297.742188 160.320312 292.253906 160.320312 285.484375 L 160.320312 207.574219 C 160.320312 200.804688 165.8125 195.316406 172.589844 195.316406 L 225.664062 195.316406 C 232.4375 195.316406 237.929688 200.804688 237.929688 207.574219 L 237.929688 285.484375 M 155.664062 282.808594 C 155.664062 291.054688 148.972656 297.742188 140.714844 297.742188 L 93.007812 297.742188 C 84.746094 297.742188 78.054688 291.054688 78.054688 282.808594 L 78.054688 210.253906 C 78.054688 202.003906 84.746094 195.316406 93.007812 195.316406 L 140.714844 195.316406 C 148.972656 195.316406 155.664062 202.003906 155.664062 210.253906 L 155.664062 282.808594 M 336.191406 215.230469 L 336.191406 191.148438 C 336.191406 182.789062 329.410156 176.015625 321.042969 176.015625 L 77.210938 176.015625 C 68.84375 176.015625 62.0625 182.789062 62.0625 191.148438 L 62.0625 299.066406 C 62.0625 307.425781 68.84375 314.199219 77.210938 314.199219 L 321.042969 314.199219 C 329.410156 314.199219 336.191406 307.425781 336.191406 299.066406 L 336.191406 274.269531 C 341.089844 274.269531 345.0625 270.300781 345.0625 265.40625 L 345.0625 224.097656 C 345.0625 219.199219 341.089844 215.230469 336.191406 215.230469 " fill-opacity="1" fill-rule="nonzero"/></g><g clip-path="url(#867ede5836)"><path fill="#f6f232" d="M 66.640625 305.324219 C 65.550781 303.488281 64.910156 301.355469 64.910156 299.066406 L 64.910156 191.148438 C 64.910156 184.371094 70.429688 178.859375 77.210938 178.859375 L 321.042969 178.859375 C 325.09375 178.859375 328.691406 180.828125 330.933594 183.859375 C 329.789062 182.316406 328.289062 181.050781 326.558594 180.179688 C 327.429688 181.324219 328.109375 182.621094 328.539062 184.027344 C 326.746094 183.003906 324.675781 182.417969 322.46875 182.417969 L 78.632812 182.417969 C 71.851562 182.417969 66.332031 187.929688 66.332031 194.703125 L 66.332031 302.621094 C 66.332031 303.550781 66.445312 304.453125 66.640625 305.324219 " fill-opacity="1" fill-rule="nonzero"/></g><g clip-path="url(#459286a8c0)"><path fill="#eab30f" d="M 333.34375 214.699219 C 332.886719 214.585938 332.410156 214.519531 331.917969 214.519531 L 329.070312 214.519531 L 329.070312 187.589844 C 329.070312 186.351562 328.882812 185.15625 328.539062 184.027344 C 330.390625 185.085938 331.941406 186.617188 333.035156 188.449219 C 332.65625 186.761719 331.925781 185.203125 330.933594 183.859375 C 332.445312 185.898438 333.34375 188.417969 333.34375 191.148438 L 333.34375 214.699219 " fill-opacity="1" fill-rule="nonzero"/></g><g clip-path="url(#038b6d81b2)"><path fill="#ece121" d="M 333.035156 188.449219 C 331.941406 186.617188 330.390625 185.085938 328.539062 184.027344 C 328.109375 182.621094 327.429688 181.324219 326.558594 180.179688 C 328.289062 181.050781 329.789062 182.316406 330.933594 183.859375 C 331.925781 185.203125 332.65625 186.761719 333.035156 188.449219 " fill-opacity="1" fill-rule="nonzero"/></g><g clip-path="url(#a4731ecd6d)"><path fill="#eab30f" d="M 321.042969 311.355469 L 77.210938 311.355469 C 73.214844 311.355469 69.667969 309.433594 67.421875 306.476562 C 69.082031 307.316406 70.953125 307.796875 72.9375 307.796875 L 316.769531 307.796875 C 323.550781 307.796875 329.070312 302.285156 329.070312 295.511719 L 329.070312 267.871094 L 331.917969 267.871094 C 335.242188 267.871094 337.945312 265.167969 337.945312 261.851562 L 337.945312 220.539062 C 337.945312 219.71875 337.777344 218.933594 337.476562 218.21875 C 340.183594 218.808594 342.214844 221.21875 342.214844 224.097656 L 342.214844 265.40625 C 342.214844 268.726562 339.511719 271.425781 336.191406 271.425781 L 333.34375 271.425781 L 333.34375 299.066406 C 333.34375 305.84375 327.824219 311.355469 321.042969 311.355469 " fill-opacity="1" fill-rule="nonzero"/></g><path fill="#f8c717" d="M 344.351562 257.910156 L 344.351562 135.566406 L 355.035156 135.566406 L 355.035156 247.242188 C 355.035156 253.136719 350.25 257.910156 344.351562 257.910156 " fill-opacity="1" fill-rule="nonzero"/><path fill="#eab30f" d="M 347.496094 254.402344 C 348.640625 253.039062 349.335938 251.289062 349.335938 249.375 L 349.335938 144.8125 C 349.453125 144.816406 349.574219 144.816406 349.691406 144.816406 C 350.535156 144.816406 351.367188 144.761719 352.183594 144.65625 L 352.183594 247.242188 C 352.183594 250.4375 350.253906 253.1875 347.496094 254.402344 " fill-opacity="1" fill-rule="nonzero"/><g clip-path="url(#a4684792d8)"><path fill="#e11d25" d="M 369.273438 125.253906 C 369.273438 136.058594 360.507812 144.816406 349.691406 144.816406 C 338.878906 144.816406 330.113281 136.058594 330.113281 125.253906 C 330.113281 114.449219 338.878906 105.695312 349.691406 105.695312 C 360.507812 105.695312 369.273438 114.449219 369.273438 125.253906 " fill-opacity="1" fill-rule="nonzero"/></g><path fill="#c51e25" d="M 349.691406 141.96875 C 345.648438 141.96875 341.9375 140.527344 339.042969 138.136719 C 340.8125 138.773438 342.722656 139.125 344.707031 139.125 C 353.933594 139.125 361.441406 131.625 361.441406 122.40625 C 361.441406 117.230469 359.074219 112.597656 355.359375 109.527344 C 361.804688 111.855469 366.425781 118.023438 366.425781 125.253906 C 366.425781 134.46875 358.917969 141.96875 349.691406 141.96875 " fill-opacity="1" fill-rule="nonzero"/><path fill="#ed1c24" d="M 343.996094 126.320312 C 339.867188 126.320312 336.519531 122.976562 336.519531 118.851562 C 336.519531 114.726562 339.867188 111.382812 343.996094 111.382812 C 348.125 111.382812 351.472656 114.726562 351.472656 118.851562 C 351.472656 122.976562 348.125 126.320312 343.996094 126.320312 " fill-opacity="1" fill-rule="nonzero"/><g transform="matrix(1, 0, 0, 1, 33, 172)"><g clip-path="url(#0f3cd65af5)"><path fill="#ffffff" d="M 303.550781 118.863281 C 303.550781 129.25 295.132812 137.664062 284.753906 137.664062 L 24.125 137.664062 C 13.746094 137.664062 5.328125 129.25 5.328125 118.863281 L 5.328125 23.476562 C 5.328125 13.089844 13.746094 4.667969 24.125 4.667969 L 284.753906 4.667969 C 295.132812 4.667969 303.550781 13.089844 303.550781 23.476562 L 303.550781 118.863281 " fill-opacity="1" fill-rule="nonzero"/><g clip-path="url(#38ba16bbf9)"><path fill="#f6ae3c" d="M 303.550781 118.863281 C 303.550781 129.25 295.132812 137.664062 284.753906 137.664062 L 24.125 137.664062 C 13.746094 137.664062 5.328125 129.25 5.328125 118.863281 L 5.328125 23.476562 C 5.328125 13.089844 13.746094 4.667969 24.125 4.667969 L 284.753906 4.667969 C 295.132812 4.667969 303.550781 13.089844 303.550781 23.476562 Z M 289.054688 0.386719 L 19.820312 0.386719 C 9.101562 0.386719 0.410156 9.347656 0.410156 20.40625 L 0.410156 121.929688 C 0.410156 132.984375 9.101562 141.949219 19.820312 141.949219 L 289.054688 141.949219 C 299.78125 141.949219 308.472656 132.984375 308.472656 121.929688 L 308.472656 20.40625 C 308.472656 9.347656 299.78125 0.386719 289.054688 0.386719 " fill-opacity="1" fill-rule="nonzero"/></g><path fill="#ee2b24" d="M 76.179688 53.765625 C 77.285156 56.3125 74 61.648438 66.140625 70.007812 C 61.855469 74.609375 58.15625 78.03125 54.871094 81.085938 C 44.925781 90.257812 40.3125 94.503906 41.550781 111.34375 L 70.808594 111.34375 C 70.03125 109.011719 68.105469 101.847656 69.199219 90.9375 C 70.425781 78.945312 75.816406 60.101562 94.304688 38.152344 L 92.613281 36.28125 C 91.289062 37.882812 87.140625 42.257812 80.609375 42.257812 C 79.011719 42.257812 77.363281 41.992188 75.726562 41.488281 C 73.535156 40.757812 71.394531 39.710938 69.105469 38.617188 C 64.816406 36.558594 60.402344 34.417969 55.425781 34.417969 C 49.773438 34.417969 44.203125 37.292969 38.359375 43.171875 L 37.445312 44.128906 L 37.078125 30.992188 L 30.832031 30.992188 L 30.832031 63.527344 L 36.757812 63.527344 L 36.757812 50.660156 L 37.761719 51.667969 C 37.8125 51.703125 42.964844 56.675781 53.597656 56.675781 C 59.355469 56.675781 65.640625 55.269531 72.3125 52.4375 C 72.441406 52.386719 72.851562 52.296875 73.394531 52.296875 C 74.769531 52.296875 75.777344 52.851562 76.179688 53.765625 " fill-opacity="1" fill-rule="nonzero"/><path fill="#ee2b24" d="M 159.328125 38.617188 C 161.617188 39.710938 163.757812 40.757812 165.945312 41.488281 C 167.589844 41.992188 169.238281 42.257812 170.832031 42.257812 C 177.363281 42.257812 181.511719 37.882812 182.832031 36.28125 L 184.523438 38.152344 C 166.039062 60.101562 160.648438 78.945312 159.417969 90.9375 C 158.332031 101.847656 160.25 109.011719 161.03125 111.34375 L 131.773438 111.34375 C 130.535156 94.503906 135.148438 90.257812 145.09375 81.085938 C 148.375 78.03125 152.074219 74.609375 156.363281 70.007812 C 164.222656 61.648438 167.503906 56.3125 166.398438 53.765625 C 166.003906 52.851562 164.992188 52.296875 163.621094 52.296875 C 163.074219 52.296875 162.664062 52.386719 162.53125 52.4375 C 155.863281 55.269531 149.582031 56.675781 143.816406 56.675781 C 133.195312 56.675781 128.039062 51.703125 127.984375 51.667969 L 126.980469 50.660156 L 126.980469 63.527344 L 121.058594 63.527344 L 121.058594 30.992188 L 127.304688 30.992188 L 127.664062 44.128906 L 128.582031 43.171875 C 134.425781 37.292969 139.988281 34.417969 145.648438 34.417969 C 150.621094 34.417969 155.039062 36.558594 159.328125 38.617188 " fill-opacity="1" fill-rule="nonzero"/><path fill="#ee2b24" d="M 259.925781 53.765625 C 261.03125 56.3125 257.742188 61.648438 249.886719 70.007812 C 245.601562 74.609375 241.902344 78.03125 238.613281 81.085938 C 228.671875 90.257812 224.058594 94.503906 225.292969 111.34375 L 254.546875 111.34375 C 253.773438 109.011719 251.855469 101.847656 252.945312 90.9375 C 254.171875 78.945312 259.558594 60.101562 278.050781 38.152344 L 276.359375 36.28125 C 275.03125 37.882812 270.882812 42.257812 264.351562 42.257812 C 262.757812 42.257812 261.109375 41.992188 259.46875 41.488281 C 257.277344 40.757812 255.144531 39.710938 252.851562 38.617188 C 248.558594 36.558594 244.140625 34.417969 239.167969 34.417969 C 233.515625 34.417969 227.945312 37.292969 222.101562 43.171875 L 221.183594 44.128906 L 220.828125 30.992188 L 214.578125 30.992188 L 214.578125 63.527344 L 220.5 63.527344 L 220.5 50.660156 L 221.503906 51.667969 C 221.558594 51.703125 226.714844 56.675781 237.339844 56.675781 C 243.101562 56.675781 249.382812 55.269531 256.058594 52.4375 C 256.183594 52.386719 256.597656 52.296875 257.140625 52.296875 C 258.515625 52.296875 259.523438 52.851562 259.925781 53.765625 " fill-opacity="1" fill-rule="nonzero"/><path fill="#f6ae3c" d="M 107.070312 137.664062 L 105.753906 137.664062 L 105.753906 4.667969 L 107.070312 4.667969 L 107.070312 137.664062 " fill-opacity="1" fill-rule="nonzero"/><path fill="#f6ae3c" d="M 203.121094 137.664062 L 201.808594 137.664062 L 201.808594 4.667969 L 203.121094 4.667969 L 203.121094 137.664062 " fill-opacity="1" fill-rule="nonzero"/><g clip-path="url(#2170007b19)"><g transform="matrix(1, 0, 0, 1, 8, 25)"><g clip-path="url(#12705ac33b)"><g clip-path="url(#ed0f463e85)"><path fill="#ffffff" d="M 0.742188 0.472656 L 95.609375 0.472656 L 95.609375 95.339844 L 0.742188 95.339844 Z M 0.742188 0.472656 " fill-opacity="1" fill-rule="nonzero"/></g></g></g></g><g clip-path="url(#f06a507f4b)"><g transform="matrix(1, 0, 0, 1, 112, 25)"><g clip-path="url(#5d972c5a24)"><g clip-path="url(#69683b5b01)"><path fill="#ffffff" d="M 0.417969 0.0898438 L 84.582031 0.0898438 L 84.582031 95.105469 L 0.417969 95.105469 Z M 0.417969 0.0898438 " fill-opacity="1" fill-rule="nonzero"/></g></g></g></g><g clip-path="url(#41fbce76b2)"><g transform="matrix(1, 0, 0, 1, 210, 23)"><g clip-path="url(#6ce0a8ba69)"><g clip-path="url(#e6918993ff)"><path fill="#ffffff" d="M 0.496094 0.863281 L 84.664062 0.863281 L 84.664062 95.882812 L 0.496094 95.882812 Z M 0.496094 0.863281 " fill-opacity="1" fill-rule="nonzero"/></g></g></g></g></g></g></svg>