<svg xmlns="http://www.w3.org/2000/svg" xmlns:xlink="http://www.w3.org/1999/xlink" width="500" zoomAndPan="magnify" viewBox="0 0 375 374.999991" height="500" preserveAspectRatio="xMidYMid meet" version="1.0"><defs><clipPath id="0b7f55c481"><path d="M 2.574219 139.890625 L 372.324219 139.890625 L 372.324219 345.390625 L 2.574219 345.390625 Z M 2.574219 139.890625 " clip-rule="nonzero"/></clipPath><clipPath id="f34edd7222"><path d="M 31.5625 159.007812 L 108.910156 159.007812 L 108.910156 326.164062 L 31.5625 326.164062 Z M 31.5625 159.007812 " clip-rule="nonzero"/></clipPath><clipPath id="9a6165ffc3"><path d="M 0.5625 0.0078125 L 77.910156 0.0078125 L 77.910156 167.164062 L 0.5625 167.164062 Z M 0.5625 0.0078125 " clip-rule="nonzero"/></clipPath><clipPath id="0d8a65af32"><rect x="0" width="78" y="0" height="168"/></clipPath><clipPath id="989864cbd1"><path d="M 149.410156 159.007812 L 225.589844 159.007812 L 225.589844 326.445312 L 149.410156 326.445312 Z M 149.410156 159.007812 " clip-rule="nonzero"/></clipPath><clipPath id="ed24e80858"><path d="M 0.410156 0.0078125 L 76.589844 0.0078125 L 76.589844 167.445312 L 0.410156 167.445312 Z M 0.410156 0.0078125 " clip-rule="nonzero"/></clipPath><clipPath id="092f6f93f7"><rect x="0" width="77" y="0" height="168"/></clipPath><clipPath id="d7c8a01c67"><path d="M 266.089844 159.007812 L 342.265625 159.007812 L 342.265625 326.445312 L 266.089844 326.445312 Z M 266.089844 159.007812 " clip-rule="nonzero"/></clipPath><clipPath id="23e5949d09"><path d="M 0.0898438 0.0078125 L 76.265625 0.0078125 L 76.265625 167.445312 L 0.0898438 167.445312 Z M 0.0898438 0.0078125 " clip-rule="nonzero"/></clipPath><clipPath id="74fa5a8b11"><rect x="0" width="77" y="0" height="168"/></clipPath><clipPath id="176dd249af"><path d="M 275.40625 278.136719 L 351.582031 278.136719 L 351.582031 326.164062 L 275.40625 326.164062 Z M 275.40625 278.136719 " clip-rule="nonzero"/></clipPath><clipPath id="1af84fe387"><path d="M 0.40625 0.136719 L 76.582031 0.136719 L 76.582031 48.164062 L 0.40625 48.164062 Z M 0.40625 0.136719 " clip-rule="nonzero"/></clipPath><clipPath id="b0b9009934"><rect x="0" width="77" y="0" height="49"/></clipPath></defs><g clip-path="url(#0b7f55c481)"><path fill="#ffbb33" d="M 362.101562 139.886719 L 12.796875 139.886719 C 7.152344 139.886719 2.574219 144.464844 2.574219 150.109375 L 2.574219 335.1875 C 2.574219 340.832031 7.152344 345.40625 12.796875 345.40625 L 362.101562 345.40625 C 367.75 345.40625 372.324219 340.832031 372.324219 335.1875 L 372.324219 150.109375 C 372.324219 144.464844 367.75 139.886719 362.101562 139.886719 " fill-opacity="1" fill-rule="nonzero"/></g><path fill="#f9a653" d="M 122.128906 335.996094 L 10.84375 335.996094 L 10.84375 326.0625 L 122.128906 326.0625 L 122.128906 335.996094 " fill-opacity="1" fill-rule="nonzero"/><path fill="#b76629" d="M 122.128906 159.230469 L 10.84375 159.230469 L 10.84375 149.300781 L 122.128906 149.300781 L 122.128906 159.230469 " fill-opacity="1" fill-rule="nonzero"/><path fill="#e09346" d="M 122.128906 335.996094 L 112.191406 326.0625 L 20.78125 326.0625 L 10.84375 335.996094 L 10.84375 149.300781 L 20.78125 159.230469 L 112.191406 159.230469 L 122.128906 149.300781 L 122.128906 335.996094 " fill-opacity="1" fill-rule="nonzero"/><path fill="#f4f3f2" d="M 112.191406 326.0625 L 20.78125 326.0625 L 19.667969 307.351562 C 17.097656 264.253906 17.097656 221.042969 19.667969 177.945312 L 20.78125 159.230469 L 112.191406 159.230469 L 113.308594 177.945312 C 115.875 221.042969 115.875 264.253906 113.308594 307.351562 L 112.191406 326.0625 " fill-opacity="1" fill-rule="nonzero"/><path fill="#c42625" d="M 81.699219 215.46875 C 86.148438 215.117188 89.363281 210.855469 89.363281 210.855469 L 96.796875 210.855469 C 96.796875 210.855469 97.480469 228.070312 86.613281 240.71875 C 73.519531 255.953125 77.445312 274.441406 77.445312 274.441406 L 54.105469 274.441406 C 54.105469 274.441406 53.695312 252.4375 70.359375 238.457031 C 79.90625 229.386719 81.160156 224.269531 81.160156 224.269531 C 81.160156 224.269531 75.453125 228.792969 69.230469 228.382812 C 65.523438 228.433594 59.117188 225.386719 56.679688 230.539062 C 56.308594 231.3125 56.0625 234.960938 56.0625 234.960938 L 44.023438 235.0625 L 44.023438 210.855469 L 56.265625 210.855469 L 56.214844 215.359375 C 56.214844 215.359375 60.792969 209.152344 71.800781 212.238281 C 74.800781 213.082031 79.023438 215.683594 81.699219 215.46875 " fill-opacity="1" fill-rule="nonzero"/><path fill="#282828" d="M 54.945312 273.617188 L 76.476562 273.617188 C 75.890625 269.519531 74.519531 253.527344 85.988281 240.183594 C 95.21875 229.441406 95.945312 215.164062 95.980469 211.679688 L 89.757812 211.679688 C 88.867188 212.738281 85.828125 215.96875 81.765625 216.292969 C 79.871094 216.4375 77.449219 215.402344 75.113281 214.398438 C 73.832031 213.84375 72.621094 213.324219 71.578125 213.03125 C 61.304688 210.15625 57.050781 215.617188 56.875 215.847656 L 55.367188 217.859375 L 55.433594 211.679688 L 44.847656 211.679688 L 44.847656 234.234375 L 55.296875 234.144531 C 55.402344 232.898438 55.613281 230.867188 55.933594 230.1875 C 58.007812 225.808594 62.472656 226.570312 66.054688 227.183594 C 67.226562 227.382812 68.300781 227.570312 69.21875 227.558594 C 75.09375 227.949219 80.597656 223.667969 80.648438 223.625 L 82.527344 222.140625 L 81.957031 224.464844 C 81.90625 224.683594 80.539062 229.917969 70.925781 239.050781 C 56.511719 251.148438 55.082031 269.5625 54.945312 273.617188 Z M 78.460938 275.261719 L 53.300781 275.261719 L 53.285156 274.457031 C 53.277344 274.230469 53.058594 251.898438 69.828125 237.824219 C 75.253906 232.671875 77.945312 228.8125 79.238281 226.511719 C 76.910156 227.839844 73.167969 229.460938 69.171875 229.203125 C 68.210938 229.230469 67.027344 229.015625 65.777344 228.804688 C 61.789062 228.125 58.851562 227.871094 57.421875 230.890625 C 57.242188 231.273438 57 233.332031 56.882812 235.015625 L 56.832031 235.777344 L 43.199219 235.894531 L 43.199219 210.03125 L 57.101562 210.03125 L 57.058594 213.390625 C 59.28125 211.632812 64.050781 209.214844 72.023438 211.449219 C 73.171875 211.769531 74.429688 212.3125 75.765625 212.886719 C 77.914062 213.8125 80.117188 214.769531 81.636719 214.652344 C 85.667969 214.332031 88.679688 210.402344 88.707031 210.359375 L 88.953125 210.03125 L 97.585938 210.03125 L 97.617188 210.820312 C 97.644531 211.539062 98.191406 228.507812 87.234375 241.253906 C 74.554688 256.007812 78.210938 274.089844 78.25 274.265625 L 78.460938 275.261719 " fill-opacity="1" fill-rule="nonzero"/><path fill="#282828" d="M 53.789062 179.316406 C 54.285156 179.058594 54.535156 178.75 54.535156 178.382812 L 54.535156 169.699219 C 54.535156 169.332031 54.285156 169.023438 53.789062 168.765625 C 53.292969 168.507812 52.695312 168.375 51.992188 168.375 L 49.792969 168.375 L 49.792969 179.707031 L 51.992188 179.707031 C 52.695312 179.707031 53.292969 179.574219 53.789062 179.316406 " fill-opacity="1" fill-rule="nonzero"/><path fill="#282828" d="M 96.433594 160.53125 L 96.433594 165.003906 C 96.433594 166.445312 94.953125 167.464844 92 168.070312 C 94.953125 168.714844 96.433594 169.742188 96.433594 171.152344 L 96.433594 178.816406 C 96.433594 179.410156 96.917969 179.707031 97.886719 179.707031 L 98.011719 179.707031 L 98.011719 180.300781 L 95.808594 180.300781 C 92.835938 180.300781 91.347656 179.496094 91.347656 177.882812 L 91.347656 169.699219 C 91.347656 169.332031 91.101562 169.023438 90.605469 168.765625 C 90.109375 168.507812 89.511719 168.375 88.808594 168.375 L 86.605469 168.375 L 86.605469 179.707031 L 88.1875 179.707031 L 88.1875 180.300781 L 79.945312 180.300781 L 79.945312 179.707031 L 81.527344 179.707031 L 81.527344 159.230469 L 73.351562 159.230469 L 77.09375 179.707031 L 78.675781 179.707031 L 78.675781 180.300781 L 70.429688 180.300781 L 70.429688 179.707031 L 72.011719 179.707031 L 70.867188 172.992188 L 66.3125 172.992188 L 65.039062 179.707031 L 66.621094 179.707031 L 66.621094 180.300781 L 61.847656 180.300781 L 61.847656 179.707031 L 63.429688 179.707031 L 67.480469 159.230469 L 59.046875 159.230469 C 59.425781 159.632812 59.617188 160.066406 59.617188 160.53125 L 59.617188 165.003906 C 59.617188 166.445312 58.140625 167.464844 55.1875 168.070312 C 58.140625 168.714844 59.617188 169.742188 59.617188 171.152344 L 59.617188 176.929688 C 59.617188 177.855469 58.875 178.648438 57.386719 179.308594 C 55.898438 179.96875 54.101562 180.300781 51.992188 180.300781 L 43.132812 180.300781 L 43.132812 179.707031 L 44.710938 179.707031 L 44.710938 159.230469 L 39.15625 159.230469 L 39.15625 179.777344 C 39.15625 182.472656 41.40625 184.671875 44.15625 184.671875 L 96.679688 184.671875 C 99.425781 184.671875 101.675781 182.472656 101.675781 179.777344 L 101.675781 159.230469 L 95.859375 159.230469 C 96.238281 159.632812 96.433594 160.066406 96.433594 160.53125 " fill-opacity="1" fill-rule="nonzero"/><path fill="#282828" d="M 49.792969 167.78125 L 51.992188 167.78125 C 52.695312 167.78125 53.292969 167.648438 53.789062 167.390625 C 54.285156 167.132812 54.535156 166.820312 54.535156 166.457031 L 54.535156 159.230469 L 49.792969 159.230469 L 49.792969 167.78125 " fill-opacity="1" fill-rule="nonzero"/><path fill="#282828" d="M 68.695312 159.902344 L 66.371094 172.410156 L 70.804688 172.410156 Z M 68.695312 159.902344 " fill-opacity="1" fill-rule="nonzero"/><path fill="#282828" d="M 86.605469 167.78125 L 88.808594 167.78125 C 89.511719 167.78125 90.109375 167.648438 90.605469 167.390625 C 91.101562 167.132812 91.347656 166.820312 91.347656 166.457031 L 91.347656 159.230469 L 86.605469 159.230469 L 86.605469 167.78125 " fill-opacity="1" fill-rule="nonzero"/><path fill="#282828" d="M 103.5625 181.148438 C 103.5625 184.199219 101.175781 186.691406 98.261719 186.691406 L 42.570312 186.691406 C 39.65625 186.691406 37.269531 184.199219 37.269531 181.148438 L 37.269531 159.230469 L 33.429688 159.230469 L 33.429688 182.90625 C 33.429688 186.417969 36.089844 189.289062 39.34375 189.289062 L 101.492188 189.289062 C 104.742188 189.289062 107.40625 186.417969 107.40625 182.90625 L 107.40625 159.230469 L 103.5625 159.230469 L 103.5625 181.148438 " fill-opacity="1" fill-rule="nonzero"/><path fill="#ffffff" d="M 42.570312 186.691406 L 98.261719 186.691406 C 101.175781 186.691406 103.5625 184.199219 103.5625 181.148438 L 103.5625 159.230469 L 101.675781 159.230469 L 101.675781 179.777344 C 101.675781 182.472656 99.425781 184.671875 96.679688 184.671875 L 44.15625 184.671875 C 41.40625 184.671875 39.15625 182.472656 39.15625 179.777344 L 39.15625 159.230469 L 37.269531 159.230469 L 37.269531 181.148438 C 37.269531 184.199219 39.65625 186.691406 42.570312 186.691406 " fill-opacity="1" fill-rule="nonzero"/><path fill="#ffffff" d="M 49.792969 168.375 L 51.992188 168.375 C 52.695312 168.375 53.292969 168.507812 53.789062 168.765625 C 54.285156 169.023438 54.535156 169.332031 54.535156 169.699219 L 54.535156 178.382812 C 54.535156 178.75 54.285156 179.058594 53.789062 179.316406 C 53.292969 179.574219 52.695312 179.707031 51.992188 179.707031 L 49.792969 179.707031 Z M 43.132812 179.707031 L 43.132812 180.300781 L 51.992188 180.300781 C 54.101562 180.300781 55.898438 179.96875 57.386719 179.308594 C 58.875 178.648438 59.617188 177.855469 59.617188 176.929688 L 59.617188 171.152344 C 59.617188 169.742188 58.140625 168.714844 55.1875 168.070312 C 58.140625 167.464844 59.617188 166.445312 59.617188 165.003906 L 59.617188 160.53125 C 59.617188 160.066406 59.425781 159.632812 59.046875 159.230469 L 54.535156 159.230469 L 54.535156 166.457031 C 54.535156 166.820312 54.285156 167.132812 53.789062 167.390625 C 53.292969 167.648438 52.695312 167.78125 51.992188 167.78125 L 49.792969 167.78125 L 49.792969 159.230469 L 44.710938 159.230469 L 44.710938 179.707031 L 43.132812 179.707031 " fill-opacity="1" fill-rule="nonzero"/><path fill="#ffffff" d="M 68.695312 159.902344 L 70.804688 172.410156 L 66.371094 172.410156 Z M 61.847656 179.707031 L 61.847656 180.300781 L 66.621094 180.300781 L 66.621094 179.707031 L 65.039062 179.707031 L 66.3125 172.992188 L 70.867188 172.992188 L 72.011719 179.707031 L 70.429688 179.707031 L 70.429688 180.300781 L 78.675781 180.300781 L 78.675781 179.707031 L 77.09375 179.707031 L 73.351562 159.230469 L 67.480469 159.230469 L 63.429688 179.707031 L 61.847656 179.707031 " fill-opacity="1" fill-rule="nonzero"/><path fill="#ffffff" d="M 79.945312 179.707031 L 79.945312 180.300781 L 88.1875 180.300781 L 88.1875 179.707031 L 86.605469 179.707031 L 86.605469 168.375 L 88.808594 168.375 C 89.511719 168.375 90.109375 168.507812 90.605469 168.765625 C 91.101562 169.023438 91.347656 169.332031 91.347656 169.699219 L 91.347656 177.882812 C 91.347656 179.496094 92.835938 180.300781 95.808594 180.300781 L 98.011719 180.300781 L 98.011719 179.707031 L 97.886719 179.707031 C 96.917969 179.707031 96.433594 179.410156 96.433594 178.816406 L 96.433594 171.152344 C 96.433594 169.742188 94.953125 168.714844 92 168.070312 C 94.953125 167.464844 96.433594 166.445312 96.433594 165.003906 L 96.433594 160.53125 C 96.433594 160.066406 96.238281 159.632812 95.859375 159.230469 L 91.347656 159.230469 L 91.347656 166.457031 C 91.347656 166.820312 91.101562 167.132812 90.605469 167.390625 C 90.109375 167.648438 89.511719 167.78125 88.808594 167.78125 L 86.605469 167.78125 L 86.605469 159.230469 L 81.527344 159.230469 L 81.527344 179.707031 L 79.945312 179.707031 " fill-opacity="1" fill-rule="nonzero"/><path fill="#efc825" d="M 39.40625 319.433594 C 38.929688 321.578125 38.851562 323.808594 39.113281 326.0625 L 94.449219 326.0625 C 91.820312 319.539062 86.433594 313.351562 78.957031 309.140625 C 66.53125 302.144531 52.402344 302.871094 44.65625 310.183594 C 41.679688 309.246094 38.675781 310.007812 37.429688 312.21875 C 36.183594 314.425781 37.078125 317.375 39.40625 319.433594 " fill-opacity="1" fill-rule="nonzero"/><path fill="#333333" d="M 38.261719 326.0625 L 39.914062 326.0625 C 39.664062 323.886719 39.742188 321.714844 40.207031 319.609375 L 40.3125 319.140625 L 39.949219 318.816406 C 37.871094 316.976562 37.128906 314.429688 38.144531 312.625 C 38.878906 311.328125 40.398438 310.609375 42.179688 310.609375 C 42.890625 310.609375 43.644531 310.726562 44.40625 310.964844 L 44.867188 311.109375 L 45.21875 310.777344 C 52.914062 303.519531 66.625 303.140625 78.550781 309.859375 C 85.695312 313.882812 90.980469 319.765625 93.601562 326.0625 L 95.355469 326.0625 C 92.6875 319.195312 87.054688 312.761719 79.359375 308.425781 C 66.984375 301.453125 52.710938 301.820312 44.4375 309.261719 C 41.1875 308.414062 38.054688 309.429688 36.710938 311.816406 C 35.375 314.191406 36.117188 317.382812 38.503906 319.71875 C 38.097656 321.796875 38.027344 323.925781 38.261719 326.0625 " fill-opacity="1" fill-rule="nonzero"/><path fill="#66c655" d="M 56.1875 313.835938 C 46.921875 316.742188 38.144531 312.78125 38.144531 312.78125 C 38.144531 312.78125 42.285156 300.484375 51.546875 297.582031 C 60.8125 294.675781 70.679688 299.839844 70.679688 299.839844 C 70.679688 299.839844 65.449219 310.929688 56.1875 313.835938 " fill-opacity="1" fill-rule="nonzero"/><path fill="#333333" d="M 39.199219 312.3125 C 41.433594 313.140625 48.582031 315.359375 55.941406 313.050781 C 63.402344 310.707031 68.222656 302.691406 69.558594 300.21875 C 67.136719 299.132812 59.191406 296.042969 51.792969 298.367188 C 44.304688 300.714844 40.246094 309.683594 39.199219 312.3125 Z M 48.957031 315.730469 C 42.78125 315.730469 38.074219 313.652344 37.804688 313.53125 L 37.128906 313.222656 L 37.363281 312.519531 C 37.539062 312 41.746094 299.792969 51.300781 296.796875 C 60.785156 293.820312 70.648438 298.894531 71.0625 299.113281 L 71.761719 299.476562 L 71.421875 300.191406 C 71.207031 300.65625 65.929688 311.640625 56.433594 314.621094 C 53.835938 315.433594 51.292969 315.730469 48.957031 315.730469 " fill-opacity="1" fill-rule="nonzero"/><path fill="#f9a653" d="M 243.09375 335.996094 L 131.804688 335.996094 L 131.804688 326.0625 L 243.09375 326.0625 L 243.09375 335.996094 " fill-opacity="1" fill-rule="nonzero"/><path fill="#b76629" d="M 243.09375 159.230469 L 131.804688 159.230469 L 131.804688 149.300781 L 243.09375 149.300781 L 243.09375 159.230469 " fill-opacity="1" fill-rule="nonzero"/><path fill="#e09346" d="M 243.09375 335.996094 L 233.15625 326.0625 L 141.742188 326.0625 L 131.804688 335.996094 L 131.804688 149.300781 L 141.742188 159.230469 L 233.15625 159.230469 L 243.09375 149.300781 L 243.09375 335.996094 " fill-opacity="1" fill-rule="nonzero"/><path fill="#f4f3f2" d="M 233.15625 326.0625 L 141.742188 326.0625 L 140.628906 307.351562 C 138.0625 264.253906 138.0625 221.042969 140.628906 177.945312 L 141.742188 159.230469 L 233.15625 159.230469 L 234.273438 177.945312 C 236.839844 221.042969 236.839844 264.253906 234.273438 307.351562 L 233.15625 326.0625 " fill-opacity="1" fill-rule="nonzero"/><path fill="#c42625" d="M 198.730469 215.46875 C 203.183594 215.117188 206.398438 210.855469 206.398438 210.855469 L 213.832031 210.855469 C 213.832031 210.855469 214.515625 228.070312 203.648438 240.71875 C 190.550781 255.953125 194.476562 274.441406 194.476562 274.441406 L 171.140625 274.441406 C 171.140625 274.441406 170.726562 252.4375 187.394531 238.457031 C 196.941406 229.386719 198.195312 224.269531 198.195312 224.269531 C 198.195312 224.269531 192.484375 228.792969 186.261719 228.382812 C 182.558594 228.433594 176.152344 225.386719 173.710938 230.539062 C 173.34375 231.3125 173.09375 234.960938 173.09375 234.960938 L 161.058594 235.0625 L 161.058594 210.855469 L 173.300781 210.855469 L 173.25 215.359375 C 173.25 215.359375 177.828125 209.152344 188.832031 212.238281 C 191.832031 213.082031 196.058594 215.683594 198.730469 215.46875 " fill-opacity="1" fill-rule="nonzero"/><path fill="#282828" d="M 171.976562 273.617188 L 193.507812 273.617188 C 192.925781 269.519531 191.550781 253.527344 203.023438 240.183594 C 212.253906 229.441406 212.980469 215.164062 213.011719 211.679688 L 206.789062 211.679688 C 205.898438 212.738281 202.863281 215.96875 198.800781 216.292969 L 198.796875 216.292969 C 196.902344 216.4375 194.484375 215.402344 192.148438 214.398438 C 190.863281 213.84375 189.65625 213.324219 188.609375 213.03125 C 178.339844 210.15625 174.085938 215.617188 173.910156 215.847656 L 172.398438 217.859375 L 172.46875 211.679688 L 161.882812 211.679688 L 161.882812 234.234375 L 172.328125 234.144531 C 172.433594 232.898438 172.644531 230.867188 172.96875 230.1875 C 175.039062 225.808594 179.503906 226.570312 183.085938 227.183594 C 184.257812 227.382812 185.335938 227.570312 186.25 227.558594 C 192.125 227.949219 197.628906 223.667969 197.683594 223.625 L 199.5625 222.140625 L 198.992188 224.464844 C 198.9375 224.683594 197.574219 229.917969 187.960938 239.050781 C 173.546875 251.148438 172.113281 269.5625 171.976562 273.617188 Z M 195.496094 275.261719 L 170.332031 275.261719 L 170.316406 274.457031 C 170.3125 274.230469 170.089844 251.898438 186.863281 237.824219 C 192.289062 232.671875 194.976562 228.8125 196.269531 226.511719 C 193.941406 227.839844 190.203125 229.460938 186.207031 229.203125 C 185.242188 229.230469 184.058594 229.015625 182.8125 228.804688 C 178.824219 228.125 175.882812 227.871094 174.457031 230.890625 C 174.273438 231.273438 174.03125 233.332031 173.914062 235.015625 L 173.863281 235.777344 L 160.238281 235.894531 L 160.238281 210.03125 L 174.132812 210.03125 L 174.09375 213.390625 C 176.316406 211.632812 181.085938 209.214844 189.054688 211.449219 C 190.203125 211.769531 191.460938 212.3125 192.800781 212.886719 C 194.945312 213.8125 197.152344 214.769531 198.667969 214.652344 C 202.703125 214.332031 205.710938 210.402344 205.742188 210.359375 L 205.988281 210.03125 L 214.621094 210.03125 L 214.652344 210.820312 C 214.679688 211.539062 215.222656 228.507812 204.269531 241.253906 C 191.589844 256.007812 195.246094 274.089844 195.285156 274.265625 L 195.496094 275.261719 " fill-opacity="1" fill-rule="nonzero"/><path fill="#66c655" d="M 181.726562 296.9375 C 190.777344 295.691406 198.300781 300.742188 198.300781 300.742188 C 198.300781 300.742188 192.53125 311.496094 183.480469 312.742188 C 174.433594 313.988281 166.085938 307.648438 166.085938 307.648438 C 166.085938 307.648438 172.675781 298.179688 181.726562 296.9375 " fill-opacity="1" fill-rule="nonzero"/><path fill="#333333" d="M 197.25 301.007812 C 195.304688 299.886719 189.019531 296.710938 181.832031 297.703125 C 174.542969 298.707031 168.808594 305.390625 167.183594 307.472656 C 169.261719 308.859375 176.148438 312.972656 183.378906 311.976562 C 190.691406 310.96875 195.867188 303.285156 197.25 301.007812 Z M 188.730469 296.308594 C 194.460938 297.273438 198.503906 299.945312 198.734375 300.097656 L 199.316406 300.488281 L 198.984375 301.105469 C 198.742188 301.558594 192.921875 312.222656 183.585938 313.507812 C 174.324219 314.78125 165.96875 308.535156 165.617188 308.265625 L 165.023438 307.820312 L 165.449219 307.207031 C 165.726562 306.808594 172.34375 297.445312 181.621094 296.167969 C 184.15625 295.820312 186.566406 295.945312 188.730469 296.308594 " fill-opacity="1" fill-rule="nonzero"/><path fill="#75629b" d="M 211.328125 326.0625 C 209.667969 320.839844 206.410156 315.570312 201.699219 311.085938 C 190.257812 300.195312 174.601562 298.070312 166.730469 306.332031 C 162.09375 311.199219 161.195312 318.589844 163.578125 326.0625 L 211.328125 326.0625 " fill-opacity="1" fill-rule="nonzero"/><path fill="#333333" d="M 164.296875 326.0625 C 161.902344 318.75 162.726562 311.523438 167.222656 306.800781 C 170.320312 303.546875 174.691406 301.976562 179.539062 301.976562 C 186.582031 301.976562 194.628906 305.292969 201.234375 311.578125 C 205.792969 315.917969 208.96875 321.011719 210.613281 326.0625 L 212.019531 326.0625 C 210.355469 320.65625 207.019531 315.210938 202.167969 310.59375 C 190.476562 299.464844 174.355469 297.34375 166.238281 305.863281 C 161.480469 310.859375 160.515625 318.421875 162.886719 326.0625 L 164.296875 326.0625 " fill-opacity="1" fill-rule="nonzero"/><path fill="#66c655" d="M 160.46875 159.230469 C 157.59375 165.152344 157.652344 171.867188 157.652344 171.867188 C 157.652344 171.867188 167.242188 172.738281 175.042969 166.960938 C 177.808594 164.914062 179.753906 162.0625 181.121094 159.230469 L 160.46875 159.230469 " fill-opacity="1" fill-rule="nonzero"/><path fill="#333333" d="M 180.199219 159.230469 C 178.894531 161.84375 177.074219 164.433594 174.554688 166.300781 C 168.359375 170.890625 160.878906 171.132812 158.496094 171.082031 C 158.582031 169.128906 159.039062 163.847656 161.390625 159.230469 L 159.546875 159.230469 C 156.816406 165.089844 156.828125 171.492188 156.828125 171.875 L 156.835938 172.621094 L 157.578125 172.6875 C 157.871094 172.714844 163 173.136719 168.835938 171.117188 C 171.042969 170.355469 173.351562 169.242188 175.535156 167.621094 C 178.554688 165.386719 180.628906 162.273438 182.046875 159.230469 L 180.199219 159.230469 " fill-opacity="1" fill-rule="nonzero"/><path fill="#333333" d="M 175.179688 159.230469 L 174.097656 167.285156 L 175.730469 167.507812 L 176.839844 159.230469 L 175.179688 159.230469 " fill-opacity="1" fill-rule="nonzero"/><path fill="#c42625" d="M 217.394531 165.988281 C 216.796875 163.304688 215.429688 160.992188 213.574219 159.230469 L 195.234375 159.230469 C 191.972656 162.335938 190.367188 167.027344 191.414062 171.742188 C 193.003906 178.914062 200.109375 183.4375 207.28125 181.847656 C 214.457031 180.261719 218.980469 173.160156 217.394531 165.988281 " fill-opacity="1" fill-rule="nonzero"/><path fill="#333333" d="M 218.195312 165.8125 C 217.628906 163.253906 216.394531 161.015625 214.722656 159.230469 L 212.304688 159.230469 C 214.398438 160.941406 215.960938 163.332031 216.589844 166.167969 C 218.078125 172.882812 213.824219 179.554688 207.105469 181.042969 C 200.386719 182.535156 193.707031 178.28125 192.21875 171.5625 C 191.167969 166.828125 192.984375 162.121094 196.496094 159.230469 L 194.085938 159.230469 C 191.019531 162.519531 189.566406 167.210938 190.609375 171.921875 C 192.296875 179.523438 199.855469 184.335938 207.460938 182.648438 C 215.066406 180.964844 219.882812 173.410156 218.195312 165.8125 " fill-opacity="1" fill-rule="nonzero"/><path fill="#c42625" d="M 186.546875 173.269531 C 188.136719 180.4375 183.609375 187.539062 176.4375 189.128906 C 169.261719 190.71875 162.160156 186.191406 160.570312 179.023438 C 158.976562 171.855469 163.503906 164.753906 170.679688 163.164062 C 177.851562 161.574219 184.957031 166.101562 186.546875 173.269531 " fill-opacity="1" fill-rule="nonzero"/><path fill="#333333" d="M 170.859375 163.96875 C 164.136719 165.453125 159.882812 172.128906 161.371094 178.84375 C 162.863281 185.5625 169.539062 189.8125 176.257812 188.324219 C 182.976562 186.835938 187.234375 180.160156 185.742188 173.449219 C 184.253906 166.730469 177.578125 162.480469 170.859375 163.96875 Z M 176.613281 189.929688 C 169.007812 191.613281 161.449219 186.804688 159.765625 179.203125 C 158.082031 171.601562 162.894531 164.046875 170.5 162.359375 C 178.105469 160.675781 185.664062 165.488281 187.351562 173.089844 C 189.039062 180.691406 184.21875 188.246094 176.613281 189.929688 " fill-opacity="1" fill-rule="nonzero"/><path fill="#f9a653" d="M 364.054688 335.996094 L 252.769531 335.996094 L 252.769531 326.0625 L 364.054688 326.0625 L 364.054688 335.996094 " fill-opacity="1" fill-rule="nonzero"/><path fill="#b76629" d="M 364.054688 159.230469 L 252.769531 159.230469 L 252.769531 149.300781 L 364.054688 149.300781 L 364.054688 159.230469 " fill-opacity="1" fill-rule="nonzero"/><path fill="#e09346" d="M 364.054688 335.996094 L 354.121094 326.0625 L 262.707031 326.0625 L 252.769531 335.996094 L 252.769531 149.300781 L 262.707031 159.230469 L 354.121094 159.230469 L 364.054688 149.300781 L 364.054688 335.996094 " fill-opacity="1" fill-rule="nonzero"/><path fill="#f4f3f2" d="M 354.121094 326.0625 L 262.707031 326.0625 L 261.59375 307.351562 C 259.027344 264.253906 259.027344 221.042969 261.59375 177.945312 L 262.707031 159.230469 L 354.121094 159.230469 L 355.234375 177.945312 C 357.800781 221.042969 357.800781 264.253906 355.234375 307.351562 L 354.121094 326.0625 " fill-opacity="1" fill-rule="nonzero"/><path fill="#c42625" d="M 319.695312 214.648438 C 324.148438 214.296875 327.359375 210.03125 327.359375 210.03125 L 334.792969 210.03125 C 334.792969 210.03125 335.476562 227.25 324.609375 239.894531 C 311.515625 255.132812 315.441406 273.617188 315.441406 273.617188 L 292.101562 273.617188 C 292.101562 273.617188 291.691406 251.617188 308.355469 237.632812 C 317.902344 228.5625 319.15625 223.445312 319.15625 223.445312 C 319.15625 223.445312 313.449219 227.96875 307.222656 227.558594 C 303.519531 227.609375 297.113281 224.566406 294.671875 229.71875 C 294.308594 230.492188 294.058594 234.140625 294.058594 234.140625 L 282.023438 234.242188 L 282.023438 210.03125 L 294.261719 210.03125 L 294.210938 214.539062 C 294.210938 214.539062 298.789062 208.332031 309.796875 211.417969 C 312.796875 212.257812 317.019531 214.859375 319.695312 214.648438 " fill-opacity="1" fill-rule="nonzero"/><path fill="#282828" d="M 292.9375 272.792969 L 314.472656 272.792969 C 313.886719 268.699219 312.515625 252.707031 323.984375 239.359375 C 333.214844 228.617188 333.941406 214.339844 333.976562 210.855469 L 327.753906 210.855469 C 326.863281 211.914062 323.828125 215.148438 319.761719 215.46875 C 317.867188 215.617188 315.445312 214.582031 313.109375 213.574219 C 311.828125 213.023438 310.617188 212.5 309.574219 212.210938 C 299.300781 209.332031 295.046875 214.796875 294.875 215.027344 L 293.359375 217.039062 L 293.429688 210.855469 L 282.84375 210.855469 L 282.84375 233.410156 L 293.292969 233.320312 C 293.398438 232.078125 293.609375 230.046875 293.929688 229.367188 C 296.003906 224.984375 300.464844 225.75 304.050781 226.359375 C 305.21875 226.5625 306.296875 226.746094 307.214844 226.734375 C 313.089844 227.128906 318.59375 222.84375 318.644531 222.800781 L 320.523438 221.316406 L 319.957031 223.640625 C 319.902344 223.859375 318.535156 229.097656 308.921875 238.230469 C 294.511719 250.328125 293.078125 268.738281 292.9375 272.792969 Z M 316.457031 274.441406 L 291.292969 274.441406 L 291.277344 273.632812 C 291.277344 273.410156 291.054688 251.074219 307.828125 237.003906 C 313.25 231.851562 315.941406 227.988281 317.234375 225.6875 C 314.90625 227.015625 311.167969 228.636719 307.171875 228.378906 C 306.207031 228.410156 305.019531 228.191406 303.773438 227.980469 C 299.785156 227.300781 296.847656 227.050781 295.417969 230.070312 C 295.238281 230.449219 294.996094 232.507812 294.878906 234.195312 L 294.828125 234.953125 L 281.199219 235.070312 L 281.199219 209.210938 L 295.09375 209.210938 L 295.058594 212.570312 C 297.28125 210.8125 302.046875 208.390625 310.015625 210.625 C 311.167969 210.949219 312.425781 211.492188 313.761719 212.0625 C 315.910156 212.992188 318.117188 213.949219 319.632812 213.828125 C 323.664062 213.507812 326.671875 209.578125 326.703125 209.539062 L 326.949219 209.210938 L 335.585938 209.210938 L 335.617188 210 C 335.644531 210.714844 336.1875 227.6875 325.234375 240.429688 C 312.550781 255.1875 316.210938 273.265625 316.246094 273.445312 L 316.457031 274.441406 " fill-opacity="1" fill-rule="nonzero"/><path fill="#282828" d="M 304.367188 319.3125 L 308.800781 319.3125 L 306.691406 306.804688 Z M 304.367188 319.3125 " fill-opacity="1" fill-rule="nonzero"/><path fill="#282828" d="M 275.265625 304.738281 C 275.265625 301.6875 277.652344 299.191406 280.566406 299.191406 L 336.257812 299.191406 C 339.171875 299.191406 341.558594 301.6875 341.558594 304.738281 L 341.558594 326.0625 L 345.398438 326.0625 L 345.398438 302.976562 C 345.398438 299.464844 342.738281 296.59375 339.488281 296.59375 L 277.335938 296.59375 C 274.085938 296.59375 271.421875 299.464844 271.421875 302.976562 L 271.421875 326.0625 L 275.265625 326.0625 L 275.265625 304.738281 " fill-opacity="1" fill-rule="nonzero"/><path fill="#282828" d="M 304.304688 319.894531 L 303.136719 326.0625 L 309.914062 326.0625 L 308.863281 319.894531 L 304.304688 319.894531 " fill-opacity="1" fill-rule="nonzero"/><path fill="#282828" d="M 329.34375 316.601562 C 329.34375 316.234375 329.097656 315.921875 328.601562 315.667969 C 328.105469 315.40625 327.507812 315.277344 326.804688 315.277344 L 324.601562 315.277344 L 324.601562 326.0625 L 329.785156 326.0625 C 329.492188 325.714844 329.34375 325.289062 329.34375 324.785156 L 329.34375 316.601562 " fill-opacity="1" fill-rule="nonzero"/><path fill="#282828" d="M 291.785156 305.042969 C 291.289062 304.785156 290.691406 304.660156 289.988281 304.660156 L 287.789062 304.660156 L 287.789062 314.679688 L 289.988281 314.679688 C 290.691406 314.679688 291.289062 314.550781 291.785156 314.292969 C 292.28125 314.035156 292.53125 313.722656 292.53125 313.355469 L 292.53125 305.980469 C 292.53125 305.617188 292.28125 305.300781 291.785156 305.042969 " fill-opacity="1" fill-rule="nonzero"/><path fill="#282828" d="M 328.601562 305.042969 C 328.105469 304.785156 327.507812 304.660156 326.804688 304.660156 L 324.601562 304.660156 L 324.601562 314.679688 L 326.804688 314.679688 C 327.507812 314.679688 328.105469 314.550781 328.601562 314.292969 C 329.097656 314.035156 329.34375 313.722656 329.34375 313.355469 L 329.34375 305.980469 C 329.34375 305.617188 329.097656 305.300781 328.601562 305.042969 " fill-opacity="1" fill-rule="nonzero"/><path fill="#282828" d="M 334.671875 301.210938 L 282.148438 301.210938 C 279.402344 301.210938 277.152344 303.414062 277.152344 306.105469 L 277.152344 326.0625 L 282.707031 326.0625 L 282.707031 304.660156 L 281.128906 304.660156 L 281.128906 304.058594 L 289.988281 304.058594 C 292.097656 304.058594 293.894531 304.390625 295.378906 305.054688 C 296.867188 305.714844 297.613281 306.507812 297.613281 307.433594 L 297.613281 311.902344 C 297.613281 313.347656 296.132812 314.367188 293.183594 314.972656 C 296.132812 315.617188 297.613281 316.644531 297.613281 318.054688 L 297.613281 323.832031 C 297.613281 324.6875 296.964844 325.433594 295.683594 326.0625 L 301.53125 326.0625 L 305.886719 304.058594 L 310.96875 304.058594 L 314.988281 326.0625 L 319.519531 326.0625 L 319.519531 304.660156 L 317.9375 304.660156 L 317.9375 304.058594 L 326.804688 304.058594 C 328.910156 304.058594 330.707031 304.390625 332.195312 305.054688 C 333.683594 305.714844 334.425781 306.507812 334.425781 307.433594 L 334.425781 311.902344 C 334.425781 313.347656 332.949219 314.367188 329.992188 314.972656 C 332.949219 315.617188 334.425781 316.644531 334.425781 318.054688 L 334.425781 325.71875 C 334.425781 325.847656 334.453125 325.964844 334.5 326.0625 L 339.671875 326.0625 L 339.671875 306.105469 C 339.671875 303.414062 337.421875 301.210938 334.671875 301.210938 " fill-opacity="1" fill-rule="nonzero"/><path fill="#282828" d="M 292.53125 325.285156 L 292.53125 316.601562 C 292.53125 316.234375 292.28125 315.921875 291.785156 315.667969 C 291.289062 315.40625 290.691406 315.277344 289.988281 315.277344 L 287.789062 315.277344 L 287.789062 326.0625 L 292.035156 326.0625 C 292.359375 325.839844 292.53125 325.578125 292.53125 325.285156 " fill-opacity="1" fill-rule="nonzero"/><path fill="#ffffff" d="M 336.257812 299.191406 L 280.566406 299.191406 C 277.652344 299.191406 275.265625 301.6875 275.265625 304.738281 L 275.265625 326.0625 L 277.152344 326.0625 L 277.152344 306.105469 C 277.152344 303.414062 279.402344 301.210938 282.148438 301.210938 L 334.671875 301.210938 C 337.421875 301.210938 339.671875 303.414062 339.671875 306.105469 L 339.671875 326.0625 L 341.558594 326.0625 L 341.558594 304.738281 C 341.558594 301.6875 339.171875 299.191406 336.257812 299.191406 " fill-opacity="1" fill-rule="nonzero"/><path fill="#ffffff" d="M 292.53125 313.355469 C 292.53125 313.722656 292.28125 314.035156 291.785156 314.292969 C 291.289062 314.550781 290.691406 314.679688 289.988281 314.679688 L 287.789062 314.679688 L 287.789062 304.660156 L 289.988281 304.660156 C 290.691406 304.660156 291.289062 304.785156 291.785156 305.042969 C 292.28125 305.300781 292.53125 305.617188 292.53125 305.980469 Z M 297.613281 323.832031 L 297.613281 318.054688 C 297.613281 316.644531 296.132812 315.617188 293.183594 314.972656 C 296.132812 314.367188 297.613281 313.347656 297.613281 311.902344 L 297.613281 307.433594 C 297.613281 306.507812 296.867188 305.714844 295.378906 305.054688 C 293.894531 304.390625 292.097656 304.058594 289.988281 304.058594 L 281.128906 304.058594 L 281.128906 304.660156 L 282.707031 304.660156 L 282.707031 326.0625 L 287.789062 326.0625 L 287.789062 315.277344 L 289.988281 315.277344 C 290.691406 315.277344 291.289062 315.40625 291.785156 315.667969 C 292.28125 315.921875 292.53125 316.234375 292.53125 316.601562 L 292.53125 325.285156 C 292.53125 325.578125 292.359375 325.839844 292.035156 326.0625 L 295.683594 326.0625 C 296.964844 325.433594 297.613281 324.6875 297.613281 323.832031 " fill-opacity="1" fill-rule="nonzero"/><path fill="#ffffff" d="M 304.367188 319.3125 L 306.691406 306.804688 L 308.800781 319.3125 Z M 305.886719 304.058594 L 301.53125 326.0625 L 303.136719 326.0625 L 304.304688 319.894531 L 308.863281 319.894531 L 309.914062 326.0625 L 314.988281 326.0625 L 310.96875 304.058594 L 305.886719 304.058594 " fill-opacity="1" fill-rule="nonzero"/><path fill="#ffffff" d="M 329.34375 313.355469 C 329.34375 313.722656 329.097656 314.035156 328.601562 314.292969 C 328.105469 314.550781 327.507812 314.679688 326.804688 314.679688 L 324.601562 314.679688 L 324.601562 304.660156 L 326.804688 304.660156 C 327.507812 304.660156 328.105469 304.785156 328.601562 305.042969 C 329.097656 305.300781 329.34375 305.617188 329.34375 305.980469 Z M 334.425781 318.054688 C 334.425781 316.644531 332.949219 315.617188 329.992188 314.972656 C 332.949219 314.367188 334.425781 313.347656 334.425781 311.902344 L 334.425781 307.433594 C 334.425781 306.507812 333.683594 305.714844 332.195312 305.054688 C 330.707031 304.390625 328.910156 304.058594 326.804688 304.058594 L 317.9375 304.058594 L 317.9375 304.660156 L 319.519531 304.660156 L 319.519531 326.0625 L 324.601562 326.0625 L 324.601562 315.277344 L 326.804688 315.277344 C 327.507812 315.277344 328.105469 315.40625 328.601562 315.667969 C 329.097656 315.921875 329.34375 316.234375 329.34375 316.601562 L 329.34375 324.785156 C 329.34375 325.289062 329.492188 325.714844 329.785156 326.0625 L 334.5 326.0625 C 334.453125 325.964844 334.425781 325.847656 334.425781 325.71875 L 334.425781 318.054688 " fill-opacity="1" fill-rule="nonzero"/><path fill="#efc825" d="M 335.726562 170.144531 C 336.480469 166.640625 336.21875 162.910156 335.074219 159.230469 L 279.324219 159.230469 C 280.992188 167.289062 287.023438 175.378906 296.15625 180.523438 C 308.617188 187.542969 322.792969 186.792969 330.527344 179.421875 C 333.492188 180.34375 336.480469 179.582031 337.726562 177.375 C 338.96875 175.164062 338.070312 172.203125 335.726562 170.144531 " fill-opacity="1" fill-rule="nonzero"/><path fill="#333333" d="M 335.960938 159.230469 L 334.246094 159.230469 C 335.398438 162.816406 335.671875 166.480469 334.921875 169.96875 L 334.824219 170.441406 L 335.183594 170.757812 C 337.28125 172.601562 338.03125 175.15625 337.007812 176.96875 C 335.992188 178.777344 333.421875 179.464844 330.773438 178.636719 L 330.308594 178.492188 L 329.957031 178.828125 C 322.273438 186.152344 308.539062 186.554688 296.558594 179.808594 C 287.769531 174.859375 281.792969 167.105469 280.132812 159.230469 L 278.453125 159.230469 C 280.117188 167.679688 286.429688 175.992188 295.753906 181.238281 C 301.6875 184.585938 308.054688 186.242188 313.984375 186.242188 C 320.46875 186.238281 326.429688 184.261719 330.746094 180.339844 C 333.988281 181.171875 337.101562 180.152344 338.441406 177.78125 C 339.785156 175.394531 339.035156 172.191406 336.625 169.851562 C 337.285156 166.386719 337.023438 162.773438 335.960938 159.230469 " fill-opacity="1" fill-rule="nonzero"/><path fill="#f4a05b" d="M 17.257812 241.824219 L 10.84375 230 L 17.863281 226.390625 L 31.90625 241.824219 L 17.257812 241.824219 " fill-opacity="1" fill-rule="nonzero"/><path fill="#c16f2d" d="M 31.90625 241.824219 L 17.257812 241.824219 L 10.84375 253.648438 L 17.835938 257.246094 L 31.90625 241.824219 " fill-opacity="1" fill-rule="nonzero"/><path fill="#ffbb33" d="M 8.5625 241.824219 L 8.5625 228.398438 L 20.199219 235.109375 L 31.835938 241.824219 L 8.5625 255.253906 L 8.5625 241.824219 " fill-opacity="1" fill-rule="nonzero"/><path fill="#f4a05b" d="M 357.644531 241.824219 L 364.058594 230.003906 L 357.039062 226.394531 L 342.996094 241.824219 L 357.644531 241.824219 " fill-opacity="1" fill-rule="nonzero"/><path fill="#c16f2d" d="M 342.996094 241.824219 L 357.644531 241.824219 L 364.058594 253.652344 L 357.0625 257.246094 L 342.996094 241.824219 " fill-opacity="1" fill-rule="nonzero"/><path fill="#ffbb33" d="M 366.339844 241.824219 L 366.339844 228.398438 L 354.703125 235.113281 L 343.066406 241.824219 L 354.703125 248.542969 L 366.339844 255.253906 L 366.339844 241.824219 " fill-opacity="1" fill-rule="nonzero"/><g clip-path="url(#f34edd7222)"><g transform="matrix(1, 0, 0, 1, 31, 159)"><g clip-path="url(#0d8a65af32)"><g clip-path="url(#9a6165ffc3)"><path fill="#f4f3f2" d="M 0.5625 0.0078125 L 77.910156 0.0078125 L 77.910156 167.09375 L 0.5625 167.09375 Z M 0.5625 0.0078125 " fill-opacity="1" fill-rule="nonzero"/></g></g></g></g><g clip-path="url(#989864cbd1)"><g transform="matrix(1, 0, 0, 1, 149, 159)"><g clip-path="url(#092f6f93f7)"><g clip-path="url(#ed24e80858)"><path fill="#f4f3f2" d="M 0.410156 0.0078125 L 76.589844 0.0078125 L 76.589844 167.535156 L 0.410156 167.535156 Z M 0.410156 0.0078125 " fill-opacity="1" fill-rule="nonzero"/></g></g></g></g><g clip-path="url(#d7c8a01c67)"><g transform="matrix(1, 0, 0, 1, 266, 159)"><g clip-path="url(#74fa5a8b11)"><g clip-path="url(#23e5949d09)"><path fill="#f4f3f2" d="M 0.0898438 0.0078125 L 76.265625 0.0078125 L 76.265625 167.535156 L 0.0898438 167.535156 Z M 0.0898438 0.0078125 " fill-opacity="1" fill-rule="nonzero"/></g></g></g></g><g clip-path="url(#176dd249af)"><g transform="matrix(1, 0, 0, 1, 275, 278)"><g clip-path="url(#b0b9009934)"><g clip-path="url(#1af84fe387)"><path fill="#f4f3f2" d="M 0.40625 0.136719 L 76.570312 0.136719 L 76.570312 48.164062 L 0.40625 48.164062 Z M 0.40625 0.136719 " fill-opacity="1" fill-rule="nonzero"/></g></g></g></g></svg>