<svg xmlns="http://www.w3.org/2000/svg" xmlns:xlink="http://www.w3.org/1999/xlink" width="500" zoomAndPan="magnify" viewBox="0 0 375 374.999991" height="500" preserveAspectRatio="xMidYMid meet" version="1.0"><defs><clipPath id="9dd2aa6625"><path d="M 0 158.792969 L 375 158.792969 L 375 326.792969 L 0 326.792969 Z M 0 158.792969 " clip-rule="nonzero"/></clipPath><clipPath id="076895790a"><path d="M 42.636719 192.871094 L 337.714844 192.871094 L 337.714844 292.527344 L 42.636719 292.527344 Z M 42.636719 192.871094 " clip-rule="nonzero"/></clipPath><clipPath id="96ddc1205c"><path d="M 59.886719 192.871094 L 320.25 192.871094 C 324.824219 192.871094 329.210938 194.6875 332.449219 197.921875 C 335.683594 201.15625 337.5 205.542969 337.5 210.121094 L 337.5 275.277344 C 337.5 279.851562 335.683594 284.238281 332.449219 287.476562 C 329.210938 290.710938 324.824219 292.527344 320.25 292.527344 L 59.886719 292.527344 C 55.3125 292.527344 50.925781 290.710938 47.6875 287.476562 C 44.453125 284.238281 42.636719 279.851562 42.636719 275.277344 L 42.636719 210.121094 C 42.636719 205.542969 44.453125 201.15625 47.6875 197.921875 C 50.925781 194.6875 55.3125 192.871094 59.886719 192.871094 Z M 59.886719 192.871094 " clip-rule="nonzero"/></clipPath><clipPath id="aa5af536fb"><path d="M 0.636719 0.871094 L 295.679688 0.871094 L 295.679688 100.527344 L 0.636719 100.527344 Z M 0.636719 0.871094 " clip-rule="nonzero"/></clipPath><clipPath id="41f340d934"><path d="M 17.886719 0.871094 L 278.25 0.871094 C 282.824219 0.871094 287.210938 2.6875 290.449219 5.921875 C 293.683594 9.15625 295.5 13.542969 295.5 18.121094 L 295.5 83.277344 C 295.5 87.851562 293.683594 92.238281 290.449219 95.476562 C 287.210938 98.710938 282.824219 100.527344 278.25 100.527344 L 17.886719 100.527344 C 13.3125 100.527344 8.925781 98.710938 5.6875 95.476562 C 2.453125 92.238281 0.636719 87.851562 0.636719 83.277344 L 0.636719 18.121094 C 0.636719 13.542969 2.453125 9.15625 5.6875 5.921875 C 8.925781 2.6875 13.3125 0.871094 17.886719 0.871094 Z M 17.886719 0.871094 " clip-rule="nonzero"/></clipPath><clipPath id="53f3d562d1"><rect x="0" width="296" y="0" height="101"/></clipPath></defs><g clip-path="url(#9dd2aa6625)"><path fill="#dd0707" d="M 306.261719 158.84375 C 313.039062 158.84375 323.195312 159.191406 333.152344 162.21875 C 349.90625 167.3125 358.671875 177.613281 363.074219 185.359375 C 368.265625 194.492188 371.617188 204.617188 373.316406 216.316406 C 374.621094 225.304688 374.984375 235.417969 374.457031 248.148438 C 373.585938 269.074219 372.898438 285.601562 362.980469 300.585938 C 358.84375 306.828125 353.558594 311.992188 347.261719 315.933594 C 341.773438 319.371094 335.597656 321.875 328.386719 323.582031 C 317.351562 326.195312 304.625 326.730469 288.90625 326.730469 C 284.234375 326.730469 279.285156 326.6875 274.046875 326.636719 C 268.113281 326.582031 261.972656 326.527344 255.332031 326.527344 C 211.703125 326.515625 167.617188 324.828125 124.980469 323.191406 C 103.363281 322.363281 81.007812 321.507812 59.082031 320.886719 L 59.054688 320.886719 C 54.671875 320.757812 41.335938 320.382812 28.207031 311.519531 C 19.742188 305.804688 13.070312 297.765625 8.375 287.621094 C 5.105469 280.566406 2.804688 272.449219 1.535156 263.496094 C 0.191406 254.019531 -0.0078125 243.722656 0.941406 232.894531 C 1.570312 225.742188 2.351562 216.835938 4.917969 207.660156 C 8.410156 195.152344 14.558594 184.800781 23.191406 176.894531 C 31.757812 169.046875 41.632812 164.4375 54.261719 162.390625 C 63.488281 160.894531 73.46875 160.855469 86.105469 160.804688 C 87.132812 160.800781 88.179688 160.796875 89.253906 160.789062 C 112.082031 160.683594 134.246094 160.539062 295.1875 159.023438 C 296.300781 159.011719 297.59375 158.984375 298.964844 158.949219 C 301.148438 158.898438 303.628906 158.839844 306.265625 158.839844 Z M 306.261719 158.84375 " fill-opacity="1" fill-rule="nonzero"/></g><path fill="#a50000" d="M 295.425781 184.792969 C 308.6875 184.667969 331.777344 182.410156 340.707031 198.109375 C 348.199219 211.292969 349.570312 227.042969 348.738281 247.078125 C 347.96875 265.628906 347.480469 277.351562 341.523438 286.34375 C 329.972656 303.789062 304.59375 300.765625 255.339844 300.753906 C 190.136719 300.742188 124.988281 296.972656 59.8125 295.125 C 56.871094 295.042969 49.5625 294.851562 42.601562 290.152344 C 22.925781 276.867188 26.070312 241.035156 26.585938 235.152344 C 27.726562 222.171875 29.109375 206.402344 40.566406 195.910156 C 51.046875 186.308594 63.898438 186.683594 89.375 186.558594 C 112.109375 186.453125 134.839844 186.304688 295.429688 184.792969 Z M 295.425781 184.792969 " fill-opacity="1" fill-rule="nonzero"/><path fill="#f4f4f4" d="M 325.628906 252.902344 C 323.703125 273.195312 322.15625 275.375 320.914062 277.207031 C 311.527344 291.015625 284.753906 286.964844 271.183594 285.160156 C 260.410156 283.730469 253.292969 283.902344 249.859375 272.539062 C 246.246094 260.578125 247.3125 249.28125 248.457031 235.972656 C 250.523438 211.945312 249.839844 208.800781 253.71875 205.007812 C 257.582031 201.222656 263.441406 200.53125 275.164062 199.148438 C 289.238281 197.484375 300.179688 199.105469 308.792969 200.441406 C 316.496094 201.636719 320.347656 202.234375 322.125 203.601562 C 325.203125 205.972656 329.5625 211.503906 325.628906 252.902344 Z M 325.628906 252.902344 " fill-opacity="1" fill-rule="nonzero"/><path fill="#f4f4f4" d="M 228.933594 252.902344 C 227.007812 273.195312 225.460938 275.375 224.21875 277.207031 C 214.832031 291.015625 188.058594 286.964844 174.488281 285.160156 C 163.714844 283.730469 156.597656 283.902344 153.164062 272.539062 C 149.550781 260.578125 150.617188 249.28125 151.761719 235.972656 C 153.828125 211.945312 153.144531 208.800781 157.023438 205.007812 C 160.886719 201.222656 166.75 200.53125 178.46875 199.148438 C 192.542969 197.484375 203.484375 199.105469 212.097656 200.441406 C 219.800781 201.636719 223.652344 202.234375 225.429688 203.601562 C 228.507812 205.972656 232.867188 211.503906 228.933594 252.902344 Z M 228.933594 252.902344 " fill-opacity="1" fill-rule="nonzero"/><path fill="#f4f4f4" d="M 132.238281 252.902344 C 130.308594 273.195312 128.765625 275.375 127.519531 277.207031 C 118.136719 291.015625 91.359375 286.964844 77.789062 285.160156 C 67.019531 283.730469 59.902344 283.902344 56.46875 272.539062 C 52.855469 260.578125 53.917969 249.28125 55.0625 235.972656 C 57.132812 211.945312 56.445312 208.800781 60.324219 205.007812 C 64.191406 201.222656 70.050781 200.53125 81.773438 199.148438 C 95.84375 197.484375 106.789062 199.105469 115.402344 200.441406 C 123.105469 201.636719 126.957031 202.234375 128.730469 203.601562 C 131.8125 205.972656 136.167969 211.503906 132.238281 252.902344 Z M 132.238281 252.902344 " fill-opacity="1" fill-rule="nonzero"/><path fill="#f4f4f4" d="M 315.164062 309.363281 C 316.515625 311.261719 316.230469 313.484375 316.167969 314.121094 C 315.835938 317.59375 313.109375 320.386719 309.757812 321.296875 C 305.441406 322.464844 301.203125 321.160156 300.941406 316.390625 C 300.839844 314.527344 300.910156 312.941406 301.460938 311.394531 C 301.65625 310.851562 302.078125 309.742188 302.839844 308.878906 C 305.460938 305.902344 312.5 305.632812 315.164062 309.363281 Z M 315.164062 309.363281 " fill-opacity="1" fill-rule="nonzero"/><path fill="#f4f4f4" d="M 274.972656 309.363281 C 276.324219 311.261719 276.039062 313.484375 275.976562 314.121094 C 275.644531 317.59375 272.917969 320.386719 269.566406 321.296875 C 265.25 322.464844 261.011719 321.160156 260.75 316.390625 C 260.648438 314.527344 260.71875 312.941406 261.269531 311.394531 C 261.464844 310.851562 261.886719 309.742188 262.648438 308.878906 C 265.269531 305.902344 272.308594 305.632812 274.972656 309.363281 Z M 274.972656 309.363281 " fill-opacity="1" fill-rule="nonzero"/><path fill="#f4f4f4" d="M 237.335938 309.363281 C 238.6875 311.261719 238.402344 313.484375 238.339844 314.121094 C 238.007812 317.59375 235.277344 320.386719 231.929688 321.296875 C 227.613281 322.464844 223.375 321.160156 223.113281 316.390625 C 223.007812 314.527344 223.082031 312.941406 223.632812 311.394531 C 223.828125 310.851562 224.25 309.742188 225.007812 308.878906 C 227.632812 305.902344 234.667969 305.632812 237.335938 309.363281 Z M 237.335938 309.363281 " fill-opacity="1" fill-rule="nonzero"/><path fill="#f4f4f4" d="M 202.253906 309.363281 C 203.605469 311.261719 203.320312 313.484375 203.257812 314.121094 C 202.925781 317.59375 200.199219 320.386719 196.847656 321.296875 C 192.535156 322.464844 188.292969 321.160156 188.03125 316.390625 C 187.929688 314.527344 188 312.941406 188.550781 311.394531 C 188.746094 310.851562 189.167969 309.742188 189.929688 308.878906 C 192.554688 305.902344 199.589844 305.632812 202.253906 309.363281 Z M 202.253906 309.363281 " fill-opacity="1" fill-rule="nonzero"/><path fill="#f4f4f4" d="M 167.171875 308.140625 C 168.527344 310.035156 168.242188 312.261719 168.179688 312.898438 C 167.847656 316.371094 165.117188 319.164062 161.769531 320.070312 C 157.453125 321.242188 153.210938 319.933594 152.949219 315.167969 C 152.847656 313.304688 152.917969 311.714844 153.472656 310.171875 C 153.667969 309.628906 154.089844 308.515625 154.847656 307.65625 C 157.472656 304.675781 164.507812 304.40625 167.171875 308.140625 Z M 167.171875 308.140625 " fill-opacity="1" fill-rule="nonzero"/><path fill="#f4f4f4" d="M 132.09375 306.851562 C 133.445312 308.746094 133.160156 310.972656 133.097656 311.609375 C 132.765625 315.082031 130.039062 317.875 126.6875 318.785156 C 122.371094 319.953125 118.132812 318.648438 117.871094 313.878906 C 117.769531 312.015625 117.839844 310.429688 118.390625 308.882812 C 118.585938 308.339844 119.007812 307.230469 119.769531 306.367188 C 122.390625 303.386719 129.429688 303.121094 132.09375 306.851562 Z M 132.09375 306.851562 " fill-opacity="1" fill-rule="nonzero"/><path fill="#f4f4f4" d="M 97.011719 306.632812 C 98.363281 308.527344 98.078125 310.753906 98.015625 311.390625 C 97.683594 314.863281 94.957031 317.65625 91.605469 318.5625 C 87.289062 319.734375 83.050781 318.425781 82.789062 313.660156 C 82.6875 311.796875 82.757812 310.207031 83.308594 308.664062 C 83.503906 308.121094 83.925781 307.007812 84.683594 306.144531 C 87.308594 303.167969 94.347656 302.898438 97.011719 306.632812 Z M 97.011719 306.632812 " fill-opacity="1" fill-rule="nonzero"/><path fill="#f4f4f4" d="M 61.929688 303.722656 C 63.285156 305.617188 62.996094 307.84375 62.9375 308.480469 C 62.605469 311.953125 59.875 314.746094 56.523438 315.65625 C 52.210938 316.824219 47.96875 315.515625 47.707031 310.75 C 47.605469 308.886719 47.675781 307.300781 48.230469 305.753906 C 48.421875 305.210938 48.84375 304.097656 49.605469 303.238281 C 52.230469 300.257812 59.265625 299.988281 61.929688 303.722656 Z M 61.929688 303.722656 " fill-opacity="1" fill-rule="nonzero"/><path fill="#f4f4f4" d="M 32.6875 288.628906 C 34.039062 290.523438 33.753906 292.75 33.691406 293.386719 C 33.359375 296.859375 30.632812 299.652344 27.28125 300.5625 C 22.964844 301.730469 18.726562 300.421875 18.464844 295.65625 C 18.363281 293.792969 18.433594 292.203125 18.984375 290.660156 C 19.179688 290.117188 19.601562 289.003906 20.363281 288.144531 C 22.984375 285.164062 30.023438 284.894531 32.6875 288.628906 Z M 32.6875 288.628906 " fill-opacity="1" fill-rule="nonzero"/><path fill="#f4f4f4" d="M 19.921875 251.078125 C 21.273438 252.972656 20.988281 255.199219 20.925781 255.835938 C 20.59375 259.308594 17.867188 262.101562 14.515625 263.011719 C 10.199219 264.179688 5.960938 262.871094 5.699219 258.105469 C 5.597656 256.242188 5.667969 254.65625 6.21875 253.109375 C 6.414062 252.566406 6.835938 251.453125 7.597656 250.59375 C 10.21875 247.613281 17.257812 247.34375 19.921875 251.078125 Z M 19.921875 251.078125 " fill-opacity="1" fill-rule="nonzero"/><path fill="#f4f4f4" d="M 25.019531 207.96875 C 26.371094 209.863281 26.085938 212.089844 26.023438 212.726562 C 25.691406 216.199219 22.964844 218.992188 19.613281 219.902344 C 15.296875 221.070312 11.058594 219.765625 10.796875 214.996094 C 10.695312 213.132812 10.765625 211.546875 11.316406 210 C 11.511719 209.457031 11.933594 208.347656 12.691406 207.484375 C 15.316406 204.507812 22.355469 204.238281 25.019531 207.96875 Z M 25.019531 207.96875 " fill-opacity="1" fill-rule="nonzero"/><path fill="#f4f4f4" d="M 48.019531 175.410156 C 49.375 177.304688 49.085938 179.53125 49.027344 180.167969 C 48.695312 183.640625 45.964844 186.433594 42.613281 187.339844 C 38.300781 188.511719 34.058594 187.203125 33.796875 182.4375 C 33.695312 180.574219 33.765625 178.984375 34.320312 177.441406 C 34.511719 176.898438 34.9375 175.785156 35.695312 174.925781 C 38.320312 171.945312 45.355469 171.675781 48.019531 175.410156 Z M 48.019531 175.410156 " fill-opacity="1" fill-rule="nonzero"/><path fill="#f4f4f4" d="M 92.375 169.371094 C 93.726562 171.265625 93.441406 173.492188 93.378906 174.128906 C 93.046875 177.601562 90.316406 180.394531 86.96875 181.304688 C 82.652344 182.472656 78.414062 181.164062 78.152344 176.398438 C 78.046875 174.535156 78.117188 172.949219 78.671875 171.402344 C 78.867188 170.859375 79.289062 169.746094 80.046875 168.886719 C 82.671875 165.90625 89.707031 165.636719 92.375 169.371094 Z M 92.375 169.371094 " fill-opacity="1" fill-rule="nonzero"/><path fill="#f4f4f4" d="M 135.941406 170.070312 C 137.292969 171.964844 137.007812 174.191406 136.945312 174.828125 C 136.613281 178.300781 133.882812 181.09375 130.535156 182.003906 C 126.21875 183.171875 121.980469 181.867188 121.71875 177.097656 C 121.613281 175.234375 121.6875 173.648438 122.238281 172.101562 C 122.433594 171.558594 122.855469 170.445312 123.613281 169.585938 C 126.238281 166.605469 133.273438 166.339844 135.941406 170.070312 Z M 135.941406 170.070312 " fill-opacity="1" fill-rule="nonzero"/><path fill="#f4f4f4" d="M 179.507812 170.070312 C 180.859375 171.964844 180.574219 174.191406 180.511719 174.828125 C 180.179688 178.300781 177.453125 181.09375 174.101562 182.003906 C 169.789062 183.171875 165.546875 181.867188 165.285156 177.097656 C 165.183594 175.234375 165.253906 173.648438 165.808594 172.101562 C 166 171.558594 166.421875 170.445312 167.183594 169.585938 C 169.808594 166.605469 176.84375 166.339844 179.507812 170.070312 Z M 179.507812 170.070312 " fill-opacity="1" fill-rule="nonzero"/><path fill="#f4f4f4" d="M 223.074219 170.070312 C 224.429688 171.964844 224.140625 174.191406 224.078125 174.828125 C 223.746094 178.300781 221.019531 181.09375 217.667969 182.003906 C 213.355469 183.171875 209.113281 181.867188 208.851562 177.097656 C 208.75 175.234375 208.820312 173.648438 209.375 172.101562 C 209.566406 171.558594 209.988281 170.445312 210.75 169.585938 C 213.375 166.605469 220.410156 166.339844 223.074219 170.070312 Z M 223.074219 170.070312 " fill-opacity="1" fill-rule="nonzero"/><path fill="#f4f4f4" d="M 266.644531 169.148438 C 267.996094 171.042969 267.710938 173.269531 267.648438 173.90625 C 267.316406 177.378906 264.585938 180.171875 261.238281 181.082031 C 256.921875 182.25 252.683594 180.945312 252.421875 176.175781 C 252.316406 174.3125 252.390625 172.726562 252.941406 171.179688 C 253.136719 170.636719 253.558594 169.527344 254.316406 168.664062 C 256.941406 165.6875 263.976562 165.417969 266.644531 169.148438 Z M 266.644531 169.148438 " fill-opacity="1" fill-rule="nonzero"/><path fill="#f4f4f4" d="M 310.210938 167.859375 C 311.5625 169.753906 311.277344 171.980469 311.214844 172.617188 C 310.882812 176.089844 308.152344 178.882812 304.804688 179.792969 C 300.488281 180.960938 296.25 179.65625 295.988281 174.886719 C 295.886719 173.023438 295.957031 171.4375 296.507812 169.890625 C 296.703125 169.347656 297.125 168.238281 297.882812 167.375 C 300.507812 164.398438 307.542969 164.128906 310.210938 167.859375 Z M 310.210938 167.859375 " fill-opacity="1" fill-rule="nonzero"/><path fill="#f4f4f4" d="M 347.878906 178.90625 C 349.230469 180.800781 348.945312 183.027344 348.882812 183.664062 C 348.550781 187.136719 345.824219 189.929688 342.472656 190.839844 C 338.160156 192.007812 333.917969 190.699219 333.65625 185.933594 C 333.554688 184.070312 333.625 182.484375 334.179688 180.9375 C 334.371094 180.394531 334.792969 179.28125 335.554688 178.421875 C 338.179688 175.441406 345.214844 175.171875 347.878906 178.90625 Z M 347.878906 178.90625 " fill-opacity="1" fill-rule="nonzero"/><path fill="#f4f4f4" d="M 366.257812 212.035156 C 367.609375 213.929688 367.324219 216.15625 367.261719 216.792969 C 366.929688 220.265625 364.203125 223.058594 360.851562 223.96875 C 356.535156 225.136719 352.296875 223.832031 352.035156 219.0625 C 351.933594 217.199219 352.003906 215.613281 352.554688 214.066406 C 352.75 213.523438 353.171875 212.414062 353.933594 211.550781 C 356.554688 208.574219 363.59375 208.304688 366.257812 212.035156 Z M 366.257812 212.035156 " fill-opacity="1" fill-rule="nonzero"/><path fill="#f4f4f4" d="M 368.464844 252.957031 C 369.816406 254.851562 369.53125 257.078125 369.46875 257.714844 C 369.136719 261.1875 366.40625 263.980469 363.058594 264.886719 C 358.742188 266.058594 354.503906 264.75 354.242188 259.984375 C 354.136719 258.121094 354.210938 256.53125 354.761719 254.988281 C 354.957031 254.445312 355.378906 253.332031 356.136719 252.472656 C 358.761719 249.492188 365.796875 249.222656 368.464844 252.957031 Z M 368.464844 252.957031 " fill-opacity="1" fill-rule="nonzero"/><path fill="#f4f4f4" d="M 353.128906 296.175781 C 354.484375 298.070312 354.195312 300.296875 354.136719 300.933594 C 353.804688 304.40625 351.074219 307.199219 347.722656 308.105469 C 343.410156 309.277344 339.167969 307.96875 338.90625 303.203125 C 338.804688 301.339844 338.875 299.75 339.429688 298.207031 C 339.621094 297.664062 340.046875 296.550781 340.804688 295.691406 C 343.429688 292.710938 350.464844 292.441406 353.128906 296.175781 Z M 353.128906 296.175781 " fill-opacity="1" fill-rule="nonzero"/><path fill="#007c00" d="M 82.433594 248.351562 C 81.75 248.351562 81.199219 247.796875 81.199219 247.113281 C 81.207031 241.824219 82.960938 236.949219 86.414062 232.628906 C 89.394531 228.890625 93.589844 225.707031 98.542969 223.417969 C 98.90625 223.253906 99.324219 223.269531 99.667969 223.464844 C 100.015625 223.660156 100.246094 224.007812 100.289062 224.40625 C 100.953125 230.320312 102.105469 234.808594 104.144531 239.410156 L 104.300781 239.757812 C 105.246094 241.894531 106.421875 244.554688 107.964844 246.09375 C 108.449219 246.578125 108.449219 247.359375 107.96875 247.84375 C 107.484375 248.328125 106.703125 248.328125 106.21875 247.847656 C 104.347656 245.976562 103.070312 243.082031 102.039062 240.761719 L 101.886719 240.414062 C 99.941406 236.03125 98.765625 231.765625 98.046875 226.421875 C 92.773438 229.179688 83.6875 235.601562 83.667969 247.113281 C 83.667969 247.796875 83.117188 248.351562 82.433594 248.351562 Z M 82.433594 248.351562 " fill-opacity="1" fill-rule="nonzero"/><path fill="#007c00" d="M 97.394531 225.535156 C 99.617188 220.855469 103.644531 215.472656 109.328125 216.003906 C 112.199219 216.273438 114.816406 217.488281 117.160156 219.195312 C 120.125 221.347656 123.109375 222.839844 126.457031 224.4375 C 122.566406 226.96875 118.996094 228.125 116.648438 228.695312 C 113.625 229.429688 108.703125 230.617188 103.140625 228.695312 C 100.527344 227.792969 98.601562 226.488281 97.394531 225.535156 Z M 97.394531 225.535156 " fill-opacity="1" fill-rule="nonzero"/><path fill="#dd0707" d="M 77.363281 269.503906 C 72.085938 269.503906 68.386719 268.242188 65.972656 262.890625 C 63.878906 258.242188 64.320312 252.265625 67.277344 248.15625 C 70.898438 243.132812 76.15625 242.722656 82.050781 243.570312 C 90.046875 244.714844 93.359375 251.480469 92.539062 259.042969 C 91.847656 265.378906 85.125 270.402344 77.363281 269.503906 Z M 77.363281 269.503906 " fill-opacity="1" fill-rule="nonzero"/><path fill="#dd0707" d="M 108.019531 269.503906 C 102.742188 269.503906 99.039062 268.242188 96.628906 262.890625 C 94.53125 258.242188 94.972656 252.265625 97.929688 248.15625 C 101.550781 243.132812 106.8125 242.722656 112.707031 243.570312 C 120.703125 244.714844 124.011719 251.480469 123.191406 259.042969 C 122.503906 265.378906 115.78125 270.402344 108.019531 269.503906 Z M 108.019531 269.503906 " fill-opacity="1" fill-rule="nonzero"/><path fill="#007c00" d="M 177.457031 248.351562 L 177.453125 248.351562 C 176.769531 248.351562 176.21875 247.796875 176.21875 247.113281 C 176.230469 241.824219 177.980469 236.949219 181.433594 232.628906 C 184.417969 228.890625 188.609375 225.707031 193.566406 223.417969 C 193.925781 223.253906 194.34375 223.269531 194.691406 223.464844 C 195.035156 223.660156 195.265625 224.007812 195.3125 224.40625 C 195.972656 230.320312 197.125 234.808594 199.167969 239.410156 L 199.320312 239.757812 C 200.265625 241.894531 201.441406 244.554688 202.988281 246.09375 C 203.472656 246.578125 203.472656 247.359375 202.988281 247.84375 C 202.507812 248.328125 201.722656 248.328125 201.242188 247.847656 C 199.367188 245.976562 198.089844 243.082031 197.058594 240.761719 L 196.90625 240.414062 C 194.960938 236.03125 193.785156 231.765625 193.066406 226.421875 C 187.796875 229.179688 178.707031 235.601562 178.691406 247.113281 C 178.691406 247.796875 178.136719 248.351562 177.453125 248.351562 Z M 177.457031 248.351562 " fill-opacity="1" fill-rule="nonzero"/><path fill="#007c00" d="M 192.414062 225.535156 C 194.636719 220.855469 198.664062 215.472656 204.351562 216.003906 C 207.21875 216.273438 209.835938 217.488281 212.179688 219.195312 C 215.148438 221.347656 218.128906 222.839844 221.476562 224.4375 C 217.585938 226.96875 214.015625 228.125 211.671875 228.695312 C 208.644531 229.429688 203.726562 230.617188 198.160156 228.695312 C 195.550781 227.792969 193.625 226.488281 192.414062 225.535156 Z M 192.414062 225.535156 " fill-opacity="1" fill-rule="nonzero"/><path fill="#dd0707" d="M 172.386719 269.503906 C 167.105469 269.503906 163.40625 268.242188 160.992188 262.890625 C 158.898438 258.242188 159.339844 252.265625 162.296875 248.15625 C 165.917969 243.132812 171.175781 242.722656 177.074219 243.570312 C 185.066406 244.714844 188.378906 251.480469 187.558594 259.042969 C 186.871094 265.378906 180.144531 270.402344 172.386719 269.503906 Z M 172.386719 269.503906 " fill-opacity="1" fill-rule="nonzero"/><path fill="#dd0707" d="M 203.042969 269.503906 C 197.761719 269.503906 194.0625 268.242188 191.648438 262.890625 C 189.554688 258.242188 189.996094 252.265625 192.953125 248.15625 C 196.574219 243.132812 201.832031 242.722656 207.730469 243.570312 C 215.722656 244.714844 219.035156 251.480469 218.214844 259.042969 C 217.527344 265.378906 210.800781 270.402344 203.042969 269.503906 Z M 203.042969 269.503906 " fill-opacity="1" fill-rule="nonzero"/><path fill="#007c00" d="M 272.476562 248.351562 C 271.792969 248.351562 271.238281 247.796875 271.242188 247.113281 C 271.25 241.824219 273.003906 236.949219 276.453125 232.628906 C 279.4375 228.890625 283.632812 225.707031 288.585938 223.417969 C 288.945312 223.253906 289.363281 223.269531 289.710938 223.464844 C 290.058594 223.660156 290.289062 224.007812 290.332031 224.40625 C 290.992188 230.320312 292.144531 234.808594 294.1875 239.410156 L 294.339844 239.757812 C 295.285156 241.894531 296.460938 244.554688 298.007812 246.09375 C 298.492188 246.578125 298.492188 247.359375 298.007812 247.84375 C 297.527344 248.328125 296.746094 248.328125 296.261719 247.847656 C 294.390625 245.976562 293.109375 243.082031 292.082031 240.761719 L 291.925781 240.414062 C 289.984375 236.03125 288.804688 231.765625 288.085938 226.421875 C 282.816406 229.179688 273.730469 235.601562 273.710938 247.113281 C 273.710938 247.796875 273.15625 248.351562 272.476562 248.351562 Z M 272.476562 248.351562 " fill-opacity="1" fill-rule="nonzero"/><path fill="#007c00" d="M 287.4375 225.535156 C 289.660156 220.855469 293.683594 215.472656 299.371094 216.003906 C 302.242188 216.273438 304.855469 217.488281 307.203125 219.195312 C 310.167969 221.347656 313.152344 222.839844 316.496094 224.4375 C 312.605469 226.96875 309.039062 228.125 306.691406 228.695312 C 303.664062 229.429688 298.746094 230.617188 293.183594 228.695312 C 290.570312 227.792969 288.644531 226.488281 287.4375 225.535156 Z M 287.4375 225.535156 " fill-opacity="1" fill-rule="nonzero"/><path fill="#dd0707" d="M 267.40625 269.503906 C 262.128906 269.503906 258.429688 268.242188 256.015625 262.890625 C 253.921875 258.242188 254.363281 252.265625 257.320312 248.15625 C 260.941406 243.132812 266.199219 242.722656 272.09375 243.570312 C 280.089844 244.714844 283.402344 251.480469 282.582031 259.042969 C 281.890625 265.378906 275.167969 270.402344 267.40625 269.503906 Z M 267.40625 269.503906 " fill-opacity="1" fill-rule="nonzero"/><path fill="#dd0707" d="M 298.0625 269.503906 C 292.785156 269.503906 289.082031 268.242188 286.671875 262.890625 C 284.574219 258.242188 285.015625 252.265625 287.972656 248.15625 C 291.59375 243.132812 296.855469 242.722656 302.75 243.570312 C 310.746094 244.714844 314.054688 251.480469 313.234375 259.042969 C 312.546875 265.378906 305.824219 270.402344 298.0625 269.503906 Z M 298.0625 269.503906 " fill-opacity="1" fill-rule="nonzero"/><g clip-path="url(#076895790a)"><g clip-path="url(#96ddc1205c)"><g transform="matrix(1, 0, 0, 1, 42, 192)"><g clip-path="url(#53f3d562d1)"><g clip-path="url(#aa5af536fb)"><g clip-path="url(#41f340d934)"><path fill="#a50000" d="M 0.636719 0.871094 L 295.328125 0.871094 L 295.328125 100.527344 L 0.636719 100.527344 Z M 0.636719 0.871094 " fill-opacity="1" fill-rule="nonzero"/></g></g></g></g></g></g></svg>