<svg xmlns="http://www.w3.org/2000/svg" xmlns:xlink="http://www.w3.org/1999/xlink" width="500" zoomAndPan="magnify" viewBox="0 0 375 374.999991" height="500" preserveAspectRatio="xMidYMid meet" version="1.0"><defs><clipPath id="664a99a47a"><path d="M 3 144 L 372 144 L 372 353.546875 L 3 353.546875 Z M 3 144 " clip-rule="nonzero"/></clipPath><clipPath id="1bfb9a2c61"><path d="M 38 198 L 329 198 L 329 325 L 38 325 Z M 38 198 " clip-rule="nonzero"/></clipPath><clipPath id="2b4a5cbd32"><path d="M 38.175781 216.226562 L 322.441406 197.578125 L 329.601562 306.679688 L 45.332031 325.328125 Z M 38.175781 216.226562 " clip-rule="nonzero"/></clipPath><clipPath id="1ca9bce180"><path d="M 49.402344 215.488281 L 311.054688 198.324219 C 314.03125 198.128906 316.964844 199.125 319.207031 201.089844 C 321.449219 203.058594 322.820312 205.835938 323.015625 208.8125 L 328.699219 295.464844 C 328.894531 298.441406 327.902344 301.375 325.933594 303.617188 C 323.964844 305.863281 321.1875 307.230469 318.210938 307.425781 L 56.558594 324.59375 C 50.359375 325 45.003906 320.304688 44.597656 314.105469 L 38.910156 227.453125 C 38.503906 221.25 43.203125 215.894531 49.402344 215.488281 Z M 49.402344 215.488281 " clip-rule="nonzero"/></clipPath><clipPath id="31bede3031"><path d="M 0.398438 0 L 291 0 L 291 127 L 0.398438 127 Z M 0.398438 0 " clip-rule="nonzero"/></clipPath><clipPath id="59c84cde9f"><path d="M 0.175781 18.226562 L 284.441406 -0.421875 L 291.601562 108.679688 L 7.332031 127.328125 Z M 0.175781 18.226562 " clip-rule="nonzero"/></clipPath><clipPath id="ed9f67df5a"><path d="M 11.402344 17.488281 L 273.054688 0.324219 C 276.03125 0.128906 278.964844 1.125 281.207031 3.089844 C 283.449219 5.058594 284.820312 7.835938 285.015625 10.8125 L 290.699219 97.464844 C 290.894531 100.441406 289.902344 103.375 287.933594 105.617188 C 285.964844 107.863281 283.1875 109.230469 280.210938 109.425781 L 18.558594 126.59375 C 12.359375 127 7.003906 122.304688 6.597656 116.105469 L 0.910156 29.453125 C 0.503906 23.25 5.203125 17.894531 11.402344 17.488281 Z M 11.402344 17.488281 " clip-rule="nonzero"/></clipPath><clipPath id="48c0e19953"><rect x="0" width="291" y="0" height="127"/></clipPath><clipPath id="b9985372a7"><path d="M 49 179 L 319 179 L 319 288 L 49 288 Z M 49 179 " clip-rule="nonzero"/></clipPath><clipPath id="4a4c053c4a"><path d="M 51.703125 178.824219 L 319.113281 188.0625 L 315.667969 287.808594 L 48.253906 278.566406 Z M 51.703125 178.824219 " clip-rule="nonzero"/></clipPath><clipPath id="6274a46150"><path d="M 63.320312 179.613281 L 307.824219 188.0625 C 310.804688 188.164062 313.625 189.449219 315.660156 191.628906 C 317.695312 193.8125 318.78125 196.710938 318.675781 199.695312 L 316.019531 276.566406 C 315.917969 279.546875 314.632812 282.367188 312.453125 284.402344 C 310.273438 286.4375 307.371094 287.523438 304.390625 287.417969 L 59.886719 278.96875 C 53.675781 278.753906 48.816406 273.546875 49.03125 267.339844 L 51.6875 190.46875 C 51.902344 184.257812 57.109375 179.398438 63.320312 179.613281 Z M 63.320312 179.613281 " clip-rule="nonzero"/></clipPath><clipPath id="a4eaa1dc2a"><path d="M 0 0.28125 L 269.960938 0.28125 L 269.960938 108.761719 L 0 108.761719 Z M 0 0.28125 " clip-rule="nonzero"/></clipPath><clipPath id="bc76202772"><path d="M 2.703125 -0.175781 L 270.113281 9.0625 L 266.667969 108.808594 L -0.746094 99.566406 Z M 2.703125 -0.175781 " clip-rule="nonzero"/></clipPath><clipPath id="93fa49f020"><path d="M 14.320312 0.613281 L 258.824219 9.0625 C 261.804688 9.164062 264.625 10.449219 266.660156 12.628906 C 268.695312 14.8125 269.78125 17.710938 269.675781 20.695312 L 267.019531 97.566406 C 266.917969 100.546875 265.632812 103.367188 263.453125 105.402344 C 261.273438 107.4375 258.371094 108.523438 255.390625 108.417969 L 10.886719 99.96875 C 4.675781 99.753906 -0.183594 94.546875 0.03125 88.339844 L 2.6875 11.46875 C 2.902344 5.257812 8.109375 0.398438 14.320312 0.613281 Z M 14.320312 0.613281 " clip-rule="nonzero"/></clipPath><clipPath id="e531b00ffc"><rect x="0" width="270" y="0" height="109"/></clipPath></defs><g clip-path="url(#664a99a47a)"><path fill="#df3260" d="M 347.03125 160.164062 L 30.523438 144.585938 C 14.757812 143.738281 1.492188 157.476562 3.515625 173.695312 L 23.054688 330.386719 C 24.738281 343.898438 36.632812 354.011719 50.671875 353.042969 L 328.773438 332.796875 C 340.878906 331.910156 350.640625 322.921875 352.511719 310.933594 L 371.375 190.0625 C 373.746094 174.859375 362.40625 160.917969 347.03125 160.164062 Z M 347.03125 160.164062 " fill-opacity="1" fill-rule="nonzero"/></g><path fill="#cc104a" d="M 352.511719 310.933594 L 371.375 190.0625 C 373.082031 179.128906 367.722656 167.449219 356.015625 162.378906 C 336.757812 198.289062 260.679688 304.46875 24.578125 331.3125 C 24.140625 331.363281 23.722656 331.414062 23.292969 331.464844 C 25.300781 343.429688 35.261719 352.21875 47.160156 352.960938 C 107.285156 348.574219 329.617188 332.445312 333.253906 332.070312 C 343.226562 329.574219 350.878906 321.402344 352.511719 310.933594 Z M 352.511719 310.933594 " fill-opacity="1" fill-rule="nonzero"/><path fill="#cc104a" d="M 334.394531 184.492188 L 41.546875 170.089844 C 34.523438 169.746094 28.886719 175.820312 29.757812 182.796875 L 46.550781 317.601562 C 47.296875 323.582031 52.597656 327.929688 58.609375 327.492188 L 318.792969 308.558594 C 324.046875 308.175781 328.34375 304.21875 329.15625 299.015625 L 345.023438 197.550781 C 346.0625 190.902344 341.113281 184.824219 334.394531 184.492188 Z M 334.394531 184.492188 " fill-opacity="1" fill-rule="nonzero"/><path fill="#df3260" d="M 318.792969 308.558594 C 324.046875 308.175781 328.34375 304.21875 329.15625 299.015625 L 345.023438 197.550781 C 345.71875 193.117188 343.710938 188.976562 340.328125 186.585938 C 307.46875 230.191406 228.871094 300.863281 55.261719 327.1875 C 56.339844 327.433594 57.453125 327.578125 58.609375 327.492188 Z M 318.792969 308.558594 " fill-opacity="1" fill-rule="nonzero"/><path fill="#ffd06c" d="M 71.867188 223.054688 L 71.867188 258.910156 C 71.867188 264.4375 71.042969 266.792969 70.347656 267.800781 C 68.566406 270.386719 65.628906 270.328125 62.835938 268.238281 C 58.84375 265.117188 55.457031 273.066406 59.210938 276.511719 L 59.226562 276.527344 C 64.21875 280.964844 71.640625 281.203125 76.167969 274.578125 C 78.417969 271.304688 79.511719 266.015625 79.511719 258.414062 L 79.511719 223.054688 C 79.511719 216.195312 71.867188 216.074219 71.867188 223.054688 Z M 71.867188 223.054688 " fill-opacity="1" fill-rule="nonzero"/><path fill="#ffd06c" d="M 109.449219 222.25 C 107.691406 216.042969 101.691406 216.4375 100.054688 222.269531 L 86.5625 272.128906 C 84.671875 279.226562 91.867188 282.0625 93.6875 275.921875 L 96.851562 264.050781 L 112.660156 264.050781 L 115.828125 275.953125 C 117.625 282.070312 124.816406 279.226562 122.941406 272.121094 Z M 110.054688 254.351562 L 99.453125 254.351562 L 104.753906 234.367188 Z M 110.054688 254.351562 " fill-opacity="1" fill-rule="nonzero"/><path fill="#ffd06c" d="M 147.695312 227.449219 C 150.476562 227.449219 152.882812 228.089844 156.507812 231.035156 C 160.53125 234.183594 164.0625 226.179688 160.222656 222.910156 C 155.488281 218.699219 151.566406 217.414062 147.21875 217.414062 C 132.992188 217.414062 127.289062 234.015625 127.289062 248.558594 C 127.289062 263.367188 133.234375 279.707031 147.21875 279.707031 C 151.519531 279.707031 155.46875 278.4375 160.207031 274.230469 C 164.054688 270.941406 160.699219 262.824219 156.484375 266.097656 C 152.910156 269.015625 150.511719 269.667969 147.695312 269.667969 C 138.066406 269.667969 134.933594 258.199219 134.933594 248.558594 C 134.933594 238.882812 138.054688 227.449219 147.695312 227.449219 Z M 147.695312 227.449219 " fill-opacity="1" fill-rule="nonzero"/><path fill="#ffd06c" d="M 185.507812 244.253906 L 197.28125 225.894531 C 200.472656 220.964844 194.558594 214.335938 191.457031 219.8125 L 175.976562 244.472656 L 175.976562 223.054688 C 175.976562 216.195312 168.332031 216.074219 168.332031 223.054688 L 168.332031 274.152344 C 168.332031 281.042969 175.976562 280.886719 175.976562 274.152344 L 175.976562 259.070312 L 180.449219 252.011719 L 192.957031 276.976562 C 195.480469 282.457031 202.289062 277.421875 199.15625 271.1875 Z M 185.507812 244.253906 " fill-opacity="1" fill-rule="nonzero"/><path fill="#ffd06c" d="M 221.6875 218.246094 L 209.625 218.246094 C 207.164062 218.246094 205.828125 220.964844 205.828125 223.46875 L 205.828125 274.152344 C 205.828125 281.058594 213.472656 280.867188 213.472656 274.152344 L 213.472656 257.84375 L 221.6875 257.84375 C 232.511719 257.84375 237.226562 248.738281 237.226562 238.042969 C 237.226562 227.300781 232.433594 218.246094 221.6875 218.246094 Z M 229.582031 238.042969 C 229.582031 245.84375 225.703125 247.890625 221.214844 247.890625 L 213.472656 247.890625 L 213.472656 228.195312 L 221.214844 228.195312 C 225.773438 228.195312 229.582031 230.144531 229.582031 238.042969 Z M 229.582031 238.042969 " fill-opacity="1" fill-rule="nonzero"/><path fill="#ffd06c" d="M 261.195312 217.414062 C 246.972656 217.414062 241.386719 233.910156 241.207031 248.574219 C 241.382812 262.8125 247.03125 279.707031 261.195312 279.707031 C 275.394531 279.707031 281.003906 263.003906 281.179688 248.542969 C 281.003906 234.042969 275.253906 217.414062 261.195312 217.414062 Z M 261.195312 269.835938 C 252.015625 269.835938 248.855469 257.792969 248.855469 248.558594 C 248.855469 239.210938 252.066406 227.28125 261.195312 227.28125 C 270.316406 227.28125 273.535156 239.355469 273.535156 248.558594 C 273.535156 257.945312 270.285156 269.835938 261.195312 269.835938 Z M 261.195312 269.835938 " fill-opacity="1" fill-rule="nonzero"/><path fill="#ffd06c" d="M 315.304688 219.929688 C 314.410156 218.539062 313.285156 218.246094 312.496094 218.246094 L 286.152344 218.246094 C 281.332031 218.246094 281.324219 228.109375 286.152344 228.109375 L 295.53125 228.109375 L 295.53125 274.152344 C 295.53125 281.078125 303.175781 280.855469 303.175781 274.152344 L 303.175781 228.109375 L 312.496094 228.109375 C 315.90625 228.109375 317.230469 222.949219 315.304688 219.929688 Z M 315.304688 219.929688 " fill-opacity="1" fill-rule="nonzero"/><path fill="#ffffff" d="M 74.171875 189.554688 C 97.257812 187.277344 120.28125 187.957031 143.058594 191.664062 C 119.972656 193.964844 96.949219 193.238281 74.171875 189.554688 Z M 74.171875 189.554688 " fill-opacity="1" fill-rule="nonzero"/><path fill="#ffffff" d="M 243.425781 303.695312 C 266.464844 304.925781 289.4375 303.191406 312.144531 298.441406 C 289.101562 297.1875 266.136719 298.964844 243.425781 303.695312 Z M 243.425781 303.695312 " fill-opacity="1" fill-rule="nonzero"/><path fill="#ffd06c" d="M 51.996094 156.410156 C 52.183594 156.78125 52.332031 157.164062 52.445312 157.558594 C 52.554688 157.957031 52.628906 158.363281 52.660156 158.773438 C 52.695312 159.183594 52.683594 159.597656 52.636719 160.007812 C 52.589844 160.417969 52.5 160.816406 52.371094 161.210938 C 52.246094 161.601562 52.082031 161.980469 51.878906 162.339844 C 51.675781 162.699219 51.441406 163.039062 51.175781 163.351562 C 50.90625 163.664062 50.609375 163.949219 50.285156 164.207031 C 49.960938 164.460938 49.617188 164.683594 49.246094 164.871094 C 48.878906 165.058594 48.496094 165.207031 48.097656 165.320312 C 47.703125 165.433594 47.296875 165.503906 46.886719 165.535156 C 46.472656 165.570312 46.0625 165.5625 45.652344 165.511719 C 45.242188 165.464844 44.84375 165.375 44.449219 165.25 C 44.054688 165.121094 43.679688 164.957031 43.320312 164.753906 C 42.960938 164.554688 42.621094 164.316406 42.308594 164.050781 C 41.996094 163.78125 41.710938 163.484375 41.453125 163.160156 C 41.199219 162.835938 40.976562 162.492188 40.789062 162.125 C 40.601562 161.753906 40.453125 161.371094 40.339844 160.976562 C 40.226562 160.578125 40.15625 160.171875 40.121094 159.761719 C 40.089844 159.351562 40.097656 158.9375 40.148438 158.527344 C 40.195312 158.121094 40.28125 157.71875 40.410156 157.324219 C 40.539062 156.933594 40.703125 156.554688 40.90625 156.195312 C 41.105469 155.835938 41.339844 155.496094 41.609375 155.183594 C 41.878906 154.871094 42.171875 154.585938 42.496094 154.328125 C 42.820312 154.074219 43.167969 153.851562 43.535156 153.664062 C 43.902344 153.476562 44.285156 153.328125 44.683594 153.214844 C 45.082031 153.101562 45.484375 153.03125 45.898438 153 C 46.308594 152.964844 46.71875 152.972656 47.128906 153.023438 C 47.539062 153.070312 47.941406 153.160156 48.335938 153.285156 C 48.726562 153.414062 49.105469 153.578125 49.464844 153.78125 C 49.824219 153.980469 50.160156 154.21875 50.476562 154.484375 C 50.789062 154.753906 51.074219 155.050781 51.328125 155.375 C 51.585938 155.699219 51.808594 156.042969 51.996094 156.410156 Z M 51.996094 156.410156 " fill-opacity="1" fill-rule="nonzero"/><path fill="#ffd06c" d="M 88.113281 158.015625 C 88.300781 158.382812 88.453125 158.765625 88.5625 159.164062 C 88.675781 159.5625 88.75 159.964844 88.78125 160.378906 C 88.8125 160.789062 88.804688 161.199219 88.757812 161.609375 C 88.707031 162.019531 88.621094 162.421875 88.492188 162.816406 C 88.363281 163.207031 88.199219 163.582031 88 163.945312 C 87.796875 164.304688 87.5625 164.640625 87.292969 164.957031 C 87.027344 165.269531 86.730469 165.554688 86.40625 165.808594 C 86.082031 166.066406 85.734375 166.289062 85.367188 166.476562 C 85 166.664062 84.617188 166.8125 84.21875 166.925781 C 83.820312 167.035156 83.417969 167.109375 83.003906 167.140625 C 82.59375 167.171875 82.183594 167.164062 81.773438 167.117188 C 81.363281 167.070312 80.960938 166.980469 80.570312 166.851562 C 80.175781 166.726562 79.800781 166.5625 79.4375 166.359375 C 79.078125 166.15625 78.742188 165.921875 78.425781 165.65625 C 78.113281 165.386719 77.828125 165.089844 77.574219 164.765625 C 77.316406 164.441406 77.097656 164.09375 76.910156 163.726562 C 76.722656 163.359375 76.570312 162.976562 76.457031 162.578125 C 76.347656 162.183594 76.273438 161.777344 76.242188 161.367188 C 76.210938 160.953125 76.21875 160.542969 76.265625 160.132812 C 76.316406 159.722656 76.402344 159.320312 76.53125 158.929688 C 76.65625 158.535156 76.824219 158.160156 77.023438 157.800781 C 77.226562 157.441406 77.460938 157.101562 77.730469 156.789062 C 77.996094 156.472656 78.292969 156.191406 78.617188 155.933594 C 78.941406 155.679688 79.289062 155.457031 79.65625 155.269531 C 80.023438 155.082031 80.40625 154.933594 80.804688 154.820312 C 81.199219 154.707031 81.605469 154.636719 82.015625 154.601562 C 82.429688 154.570312 82.839844 154.578125 83.25 154.625 C 83.660156 154.675781 84.0625 154.761719 84.453125 154.890625 C 84.847656 155.019531 85.222656 155.183594 85.582031 155.386719 C 85.945312 155.585938 86.28125 155.820312 86.59375 156.089844 C 86.910156 156.359375 87.195312 156.652344 87.449219 156.976562 C 87.707031 157.300781 87.925781 157.648438 88.113281 158.015625 Z M 88.113281 158.015625 " fill-opacity="1" fill-rule="nonzero"/><path fill="#ffd06c" d="M 124.238281 159.617188 C 124.425781 159.984375 124.574219 160.367188 124.6875 160.765625 C 124.800781 161.164062 124.871094 161.566406 124.90625 161.980469 C 124.9375 162.390625 124.929688 162.800781 124.882812 163.210938 C 124.832031 163.621094 124.746094 164.023438 124.617188 164.417969 C 124.488281 164.808594 124.324219 165.1875 124.121094 165.546875 C 123.921875 165.90625 123.6875 166.242188 123.417969 166.558594 C 123.148438 166.871094 122.855469 167.15625 122.53125 167.410156 C 122.207031 167.667969 121.859375 167.890625 121.492188 168.078125 C 121.125 168.265625 120.742188 168.414062 120.34375 168.527344 C 119.945312 168.636719 119.542969 168.710938 119.128906 168.742188 C 118.71875 168.777344 118.308594 168.769531 117.898438 168.71875 C 117.488281 168.671875 117.085938 168.582031 116.691406 168.457031 C 116.300781 168.328125 115.925781 168.164062 115.5625 167.960938 C 115.203125 167.757812 114.867188 167.523438 114.550781 167.257812 C 114.238281 166.988281 113.953125 166.691406 113.699219 166.367188 C 113.441406 166.042969 113.21875 165.699219 113.03125 165.328125 C 112.84375 164.960938 112.695312 164.578125 112.582031 164.183594 C 112.472656 163.785156 112.398438 163.378906 112.367188 162.96875 C 112.335938 162.554688 112.34375 162.144531 112.390625 161.734375 C 112.4375 161.324219 112.527344 160.925781 112.65625 160.53125 C 112.78125 160.136719 112.945312 159.761719 113.148438 159.402344 C 113.351562 159.042969 113.585938 158.703125 113.851562 158.390625 C 114.121094 158.078125 114.417969 157.792969 114.742188 157.535156 C 115.066406 157.28125 115.414062 157.058594 115.78125 156.871094 C 116.148438 156.683594 116.53125 156.535156 116.929688 156.421875 C 117.324219 156.308594 117.730469 156.238281 118.140625 156.203125 C 118.554688 156.171875 118.964844 156.179688 119.375 156.230469 C 119.785156 156.277344 120.1875 156.367188 120.578125 156.492188 C 120.972656 156.621094 121.347656 156.785156 121.707031 156.988281 C 122.066406 157.1875 122.40625 157.421875 122.71875 157.691406 C 123.035156 157.960938 123.316406 158.253906 123.574219 158.578125 C 123.828125 158.90625 124.050781 159.25 124.238281 159.617188 Z M 124.238281 159.617188 " fill-opacity="1" fill-rule="nonzero"/><path fill="#ffd06c" d="M 160.359375 161.21875 C 160.546875 161.589844 160.695312 161.96875 160.808594 162.367188 C 160.917969 162.765625 160.992188 163.171875 161.023438 163.582031 C 161.054688 163.992188 161.046875 164.402344 161 164.8125 C 160.953125 165.222656 160.863281 165.625 160.734375 166.019531 C 160.609375 166.410156 160.445312 166.789062 160.242188 167.148438 C 160.039062 167.507812 159.804688 167.84375 159.539062 168.160156 C 159.269531 168.472656 158.972656 168.757812 158.648438 169.015625 C 158.324219 169.269531 157.976562 169.492188 157.609375 169.679688 C 157.242188 169.867188 156.859375 170.015625 156.460938 170.128906 C 156.066406 170.242188 155.660156 170.3125 155.25 170.34375 C 154.835938 170.378906 154.425781 170.371094 154.015625 170.320312 C 153.605469 170.273438 153.203125 170.183594 152.8125 170.058594 C 152.417969 169.929688 152.042969 169.765625 151.683594 169.5625 C 151.324219 169.363281 150.984375 169.125 150.671875 168.859375 C 150.355469 168.589844 150.070312 168.292969 149.816406 167.96875 C 149.5625 167.644531 149.339844 167.300781 149.152344 166.929688 C 148.964844 166.5625 148.816406 166.179688 148.703125 165.785156 C 148.589844 165.386719 148.519531 164.980469 148.484375 164.570312 C 148.453125 164.160156 148.460938 163.746094 148.507812 163.335938 C 148.558594 162.925781 148.644531 162.527344 148.773438 162.132812 C 148.902344 161.742188 149.066406 161.363281 149.265625 161.003906 C 149.46875 160.644531 149.703125 160.304688 149.972656 159.992188 C 150.242188 159.679688 150.535156 159.394531 150.859375 159.136719 C 151.183594 158.882812 151.53125 158.660156 151.898438 158.472656 C 152.265625 158.285156 152.648438 158.136719 153.046875 158.023438 C 153.445312 157.910156 153.847656 157.839844 154.261719 157.804688 C 154.671875 157.773438 155.082031 157.78125 155.492188 157.832031 C 155.902344 157.878906 156.304688 157.96875 156.695312 158.09375 C 157.089844 158.222656 157.464844 158.386719 157.828125 158.589844 C 158.1875 158.789062 158.523438 159.023438 158.839844 159.292969 C 159.152344 159.5625 159.4375 159.859375 159.691406 160.183594 C 159.949219 160.507812 160.171875 160.851562 160.359375 161.21875 Z M 160.359375 161.21875 " fill-opacity="1" fill-rule="nonzero"/><path fill="#ffd06c" d="M 196.480469 162.820312 C 196.667969 163.191406 196.820312 163.574219 196.929688 163.96875 C 197.042969 164.367188 197.117188 164.773438 197.148438 165.183594 C 197.179688 165.59375 197.171875 166.007812 197.125 166.417969 C 197.074219 166.828125 196.988281 167.226562 196.859375 167.621094 C 196.734375 168.011719 196.566406 168.390625 196.367188 168.75 C 196.164062 169.109375 195.929688 169.449219 195.660156 169.761719 C 195.394531 170.074219 195.097656 170.359375 194.773438 170.617188 C 194.449219 170.871094 194.101562 171.09375 193.734375 171.28125 C 193.367188 171.46875 192.984375 171.617188 192.585938 171.730469 C 192.191406 171.84375 191.785156 171.914062 191.375 171.945312 C 190.960938 171.980469 190.550781 171.972656 190.140625 171.921875 C 189.730469 171.875 189.328125 171.785156 188.9375 171.660156 C 188.542969 171.53125 188.167969 171.367188 187.808594 171.164062 C 187.445312 170.964844 187.109375 170.726562 186.796875 170.460938 C 186.480469 170.191406 186.195312 169.894531 185.941406 169.570312 C 185.683594 169.246094 185.464844 168.902344 185.277344 168.535156 C 185.089844 168.164062 184.9375 167.78125 184.828125 167.386719 C 184.714844 166.988281 184.640625 166.582031 184.609375 166.171875 C 184.578125 165.761719 184.585938 165.347656 184.632812 164.9375 C 184.683594 164.527344 184.769531 164.128906 184.898438 163.734375 C 185.027344 163.34375 185.191406 162.964844 185.390625 162.605469 C 185.59375 162.246094 185.828125 161.90625 186.097656 161.59375 C 186.363281 161.28125 186.660156 160.996094 186.984375 160.738281 C 187.308594 160.484375 187.65625 160.261719 188.023438 160.074219 C 188.390625 159.886719 188.773438 159.738281 189.171875 159.625 C 189.570312 159.511719 189.972656 159.441406 190.386719 159.410156 C 190.796875 159.375 191.207031 159.382812 191.617188 159.433594 C 192.027344 159.480469 192.429688 159.570312 192.820312 159.695312 C 193.214844 159.824219 193.589844 159.988281 193.953125 160.191406 C 194.3125 160.390625 194.648438 160.628906 194.960938 160.894531 C 195.277344 161.164062 195.5625 161.460938 195.816406 161.785156 C 196.074219 162.109375 196.292969 162.453125 196.480469 162.820312 Z M 196.480469 162.820312 " fill-opacity="1" fill-rule="nonzero"/><path fill="#ffd06c" d="M 232.605469 164.425781 C 232.792969 164.792969 232.945312 165.175781 233.054688 165.570312 C 233.167969 165.96875 233.242188 166.375 233.273438 166.785156 C 233.304688 167.195312 233.296875 167.609375 233.25 168.019531 C 233.199219 168.429688 233.113281 168.828125 232.984375 169.222656 C 232.855469 169.613281 232.691406 169.992188 232.492188 170.351562 C 232.289062 170.710938 232.054688 171.050781 231.785156 171.363281 C 231.519531 171.675781 231.222656 171.960938 230.898438 172.21875 C 230.574219 172.472656 230.226562 172.695312 229.859375 172.882812 C 229.492188 173.070312 229.109375 173.21875 228.710938 173.332031 C 228.3125 173.445312 227.910156 173.515625 227.496094 173.550781 C 227.085938 173.582031 226.675781 173.574219 226.265625 173.523438 C 225.855469 173.476562 225.453125 173.386719 225.0625 173.261719 C 224.667969 173.132812 224.292969 172.96875 223.929688 172.765625 C 223.570312 172.566406 223.234375 172.332031 222.921875 172.0625 C 222.605469 171.792969 222.320312 171.496094 222.066406 171.171875 C 221.808594 170.847656 221.589844 170.503906 221.402344 170.136719 C 221.214844 169.765625 221.0625 169.386719 220.953125 168.988281 C 220.839844 168.589844 220.765625 168.183594 220.734375 167.773438 C 220.703125 167.363281 220.710938 166.953125 220.757812 166.542969 C 220.808594 166.132812 220.894531 165.730469 221.023438 165.335938 C 221.148438 164.945312 221.316406 164.566406 221.515625 164.207031 C 221.71875 163.847656 221.953125 163.511719 222.222656 163.195312 C 222.488281 162.882812 222.785156 162.597656 223.109375 162.339844 C 223.433594 162.085938 223.78125 161.863281 224.148438 161.675781 C 224.515625 161.488281 224.898438 161.339844 225.296875 161.226562 C 225.695312 161.113281 226.097656 161.042969 226.507812 161.011719 C 226.921875 160.976562 227.332031 160.984375 227.742188 161.035156 C 228.152344 161.082031 228.554688 161.171875 228.945312 161.296875 C 229.339844 161.425781 229.714844 161.589844 230.074219 161.792969 C 230.4375 161.992188 230.773438 162.230469 231.085938 162.496094 C 231.402344 162.765625 231.6875 163.0625 231.941406 163.386719 C 232.199219 163.710938 232.417969 164.054688 232.605469 164.425781 Z M 232.605469 164.425781 " fill-opacity="1" fill-rule="nonzero"/><path fill="#ffd06c" d="M 268.726562 166.027344 C 268.914062 166.394531 269.0625 166.777344 269.175781 167.171875 C 269.285156 167.570312 269.359375 167.976562 269.390625 168.386719 C 269.425781 168.800781 269.417969 169.210938 269.367188 169.621094 C 269.320312 170.03125 269.230469 170.429688 269.105469 170.824219 C 268.976562 171.21875 268.8125 171.59375 268.609375 171.953125 C 268.40625 172.3125 268.171875 172.652344 267.90625 172.964844 C 267.636719 173.277344 267.339844 173.5625 267.015625 173.820312 C 266.691406 174.074219 266.347656 174.296875 265.976562 174.484375 C 265.609375 174.671875 265.226562 174.820312 264.832031 174.933594 C 264.433594 175.046875 264.027344 175.117188 263.617188 175.152344 C 263.207031 175.183594 262.792969 175.175781 262.382812 175.125 C 261.972656 175.078125 261.574219 174.988281 261.179688 174.863281 C 260.789062 174.734375 260.410156 174.570312 260.050781 174.367188 C 259.691406 174.167969 259.351562 173.933594 259.039062 173.664062 C 258.726562 173.394531 258.441406 173.101562 258.183594 172.773438 C 257.929688 172.449219 257.707031 172.105469 257.519531 171.738281 C 257.332031 171.371094 257.183594 170.988281 257.070312 170.589844 C 256.957031 170.191406 256.886719 169.789062 256.851562 169.375 C 256.820312 168.964844 256.828125 168.554688 256.878906 168.144531 C 256.925781 167.734375 257.015625 167.332031 257.140625 166.9375 C 257.269531 166.546875 257.433594 166.167969 257.636719 165.808594 C 257.835938 165.449219 258.070312 165.113281 258.339844 164.796875 C 258.609375 164.484375 258.90625 164.199219 259.230469 163.945312 C 259.554688 163.6875 259.898438 163.464844 260.265625 163.277344 C 260.636719 163.089844 261.015625 162.941406 261.414062 162.828125 C 261.8125 162.71875 262.214844 162.644531 262.628906 162.613281 C 263.039062 162.578125 263.449219 162.585938 263.859375 162.636719 C 264.269531 162.683594 264.671875 162.773438 265.066406 162.898438 C 265.457031 163.027344 265.835938 163.191406 266.195312 163.394531 C 266.554688 163.597656 266.890625 163.832031 267.207031 164.097656 C 267.519531 164.367188 267.804688 164.664062 268.0625 164.988281 C 268.316406 165.3125 268.539062 165.65625 268.726562 166.027344 Z M 268.726562 166.027344 " fill-opacity="1" fill-rule="nonzero"/><path fill="#ffd06c" d="M 304.851562 167.628906 C 305.039062 167.996094 305.1875 168.378906 305.300781 168.777344 C 305.410156 169.171875 305.484375 169.578125 305.515625 169.988281 C 305.546875 170.402344 305.539062 170.8125 305.492188 171.222656 C 305.445312 171.632812 305.355469 172.035156 305.226562 172.425781 C 305.101562 172.820312 304.9375 173.195312 304.734375 173.554688 C 304.53125 173.914062 304.296875 174.253906 304.03125 174.566406 C 303.761719 174.882812 303.464844 175.164062 303.140625 175.421875 C 302.816406 175.675781 302.472656 175.898438 302.101562 176.085938 C 301.734375 176.273438 301.351562 176.421875 300.953125 176.535156 C 300.558594 176.648438 300.152344 176.71875 299.742188 176.753906 C 299.328125 176.785156 298.917969 176.777344 298.507812 176.730469 C 298.097656 176.679688 297.695312 176.59375 297.304688 176.464844 C 296.910156 176.335938 296.535156 176.171875 296.175781 175.96875 C 295.816406 175.769531 295.476562 175.535156 295.164062 175.265625 C 294.847656 174.996094 294.566406 174.703125 294.308594 174.378906 C 294.054688 174.054688 293.832031 173.707031 293.644531 173.339844 C 293.457031 172.972656 293.308594 172.589844 293.195312 172.191406 C 293.082031 171.792969 293.011719 171.390625 292.976562 170.976562 C 292.945312 170.566406 292.953125 170.15625 293.003906 169.746094 C 293.050781 169.335938 293.136719 168.933594 293.265625 168.539062 C 293.394531 168.148438 293.558594 167.773438 293.761719 167.410156 C 293.960938 167.050781 294.195312 166.714844 294.464844 166.398438 C 294.734375 166.085938 295.027344 165.800781 295.351562 165.546875 C 295.675781 165.289062 296.023438 165.066406 296.390625 164.878906 C 296.757812 164.691406 297.140625 164.542969 297.539062 164.429688 C 297.9375 164.320312 298.339844 164.246094 298.753906 164.214844 C 299.164062 164.183594 299.574219 164.191406 299.984375 164.238281 C 300.394531 164.285156 300.796875 164.375 301.191406 164.503906 C 301.582031 164.628906 301.957031 164.792969 302.320312 164.996094 C 302.679688 165.199219 303.015625 165.433594 303.332031 165.699219 C 303.644531 165.96875 303.929688 166.265625 304.183594 166.589844 C 304.441406 166.914062 304.664062 167.261719 304.851562 167.628906 Z M 304.851562 167.628906 " fill-opacity="1" fill-rule="nonzero"/><path fill="#ffd06c" d="M 340.972656 169.230469 C 341.160156 169.597656 341.3125 169.980469 341.425781 170.378906 C 341.535156 170.773438 341.609375 171.179688 341.640625 171.589844 C 341.671875 172.003906 341.664062 172.414062 341.617188 172.824219 C 341.566406 173.234375 341.480469 173.636719 341.351562 174.027344 C 341.226562 174.421875 341.0625 174.796875 340.859375 175.15625 C 340.65625 175.519531 340.421875 175.855469 340.152344 176.167969 C 339.886719 176.484375 339.589844 176.769531 339.265625 177.023438 C 338.941406 177.277344 338.59375 177.5 338.226562 177.6875 C 337.859375 177.875 337.476562 178.027344 337.078125 178.136719 C 336.683594 178.25 336.277344 178.320312 335.867188 178.355469 C 335.453125 178.386719 335.042969 178.378906 334.632812 178.332031 C 334.222656 178.28125 333.820312 178.195312 333.429688 178.066406 C 333.035156 177.9375 332.660156 177.773438 332.300781 177.574219 C 331.9375 177.371094 331.601562 177.136719 331.289062 176.867188 C 330.972656 176.597656 330.6875 176.304688 330.433594 175.980469 C 330.179688 175.65625 329.957031 175.308594 329.769531 174.941406 C 329.582031 174.574219 329.429688 174.191406 329.320312 173.792969 C 329.207031 173.394531 329.136719 172.992188 329.101562 172.578125 C 329.070312 172.167969 329.078125 171.757812 329.125 171.347656 C 329.175781 170.9375 329.261719 170.535156 329.390625 170.144531 C 329.519531 169.75 329.683594 169.375 329.882812 169.011719 C 330.085938 168.652344 330.320312 168.316406 330.589844 168 C 330.855469 167.6875 331.152344 167.402344 331.476562 167.148438 C 331.800781 166.890625 332.148438 166.667969 332.515625 166.480469 C 332.882812 166.292969 333.265625 166.144531 333.664062 166.03125 C 334.0625 165.921875 334.464844 165.847656 334.878906 165.816406 C 335.289062 165.785156 335.699219 165.792969 336.109375 165.839844 C 336.519531 165.886719 336.921875 165.976562 337.3125 166.105469 C 337.707031 166.230469 338.082031 166.394531 338.445312 166.597656 C 338.804688 166.800781 339.140625 167.035156 339.457031 167.304688 C 339.769531 167.570312 340.054688 167.867188 340.308594 168.191406 C 340.566406 168.515625 340.785156 168.863281 340.972656 169.230469 Z M 340.972656 169.230469 " fill-opacity="1" fill-rule="nonzero"/><path fill="#ffd06c" d="M 364.871094 191.671875 C 365.058594 192.039062 365.210938 192.421875 365.320312 192.820312 C 365.433594 193.21875 365.507812 193.621094 365.539062 194.035156 C 365.570312 194.445312 365.5625 194.855469 365.515625 195.265625 C 365.464844 195.675781 365.378906 196.078125 365.25 196.472656 C 365.125 196.863281 364.957031 197.242188 364.757812 197.601562 C 364.554688 197.960938 364.320312 198.296875 364.050781 198.613281 C 363.785156 198.925781 363.488281 199.210938 363.164062 199.46875 C 362.839844 199.722656 362.492188 199.945312 362.125 200.132812 C 361.757812 200.320312 361.375 200.46875 360.976562 200.582031 C 360.578125 200.691406 360.175781 200.765625 359.765625 200.796875 C 359.351562 200.832031 358.941406 200.824219 358.53125 200.773438 C 358.121094 200.726562 357.71875 200.636719 357.328125 200.511719 C 356.933594 200.382812 356.558594 200.21875 356.199219 200.015625 C 355.835938 199.8125 355.5 199.578125 355.1875 199.3125 C 354.871094 199.042969 354.585938 198.746094 354.332031 198.421875 C 354.074219 198.097656 353.855469 197.753906 353.667969 197.382812 C 353.480469 197.015625 353.328125 196.632812 353.21875 196.238281 C 353.105469 195.839844 353.03125 195.433594 353 195.023438 C 352.96875 194.609375 352.976562 194.199219 353.023438 193.789062 C 353.074219 193.378906 353.160156 192.980469 353.289062 192.585938 C 353.417969 192.195312 353.582031 191.816406 353.78125 191.457031 C 353.984375 191.097656 354.21875 190.757812 354.488281 190.445312 C 354.753906 190.132812 355.050781 189.847656 355.375 189.589844 C 355.699219 189.335938 356.046875 189.113281 356.414062 188.925781 C 356.78125 188.738281 357.164062 188.589844 357.5625 188.476562 C 357.960938 188.363281 358.363281 188.292969 358.777344 188.257812 C 359.1875 188.226562 359.597656 188.234375 360.007812 188.285156 C 360.417969 188.332031 360.820312 188.421875 361.210938 188.546875 C 361.605469 188.675781 361.980469 188.839844 362.34375 189.042969 C 362.703125 189.242188 363.039062 189.476562 363.351562 189.746094 C 363.667969 190.015625 363.953125 190.3125 364.207031 190.636719 C 364.464844 190.960938 364.683594 191.304688 364.871094 191.671875 Z M 364.871094 191.671875 " fill-opacity="1" fill-rule="nonzero"/><path fill="#ffd06c" d="M 360.117188 225.339844 C 360.304688 225.707031 360.457031 226.089844 360.566406 226.488281 C 360.679688 226.886719 360.75 227.289062 360.785156 227.703125 C 360.816406 228.113281 360.808594 228.523438 360.761719 228.933594 C 360.710938 229.34375 360.625 229.746094 360.496094 230.140625 C 360.367188 230.53125 360.203125 230.910156 360.003906 231.269531 C 359.800781 231.628906 359.566406 231.964844 359.296875 232.28125 C 359.03125 232.59375 358.734375 232.878906 358.410156 233.132812 C 358.085938 233.390625 357.738281 233.613281 357.371094 233.800781 C 357.003906 233.988281 356.621094 234.136719 356.222656 234.25 C 355.824219 234.359375 355.421875 234.433594 355.007812 234.464844 C 354.597656 234.5 354.1875 234.488281 353.777344 234.441406 C 353.367188 234.394531 352.964844 234.304688 352.574219 234.175781 C 352.179688 234.050781 351.804688 233.886719 351.441406 233.683594 C 351.082031 233.480469 350.746094 233.246094 350.429688 232.980469 C 350.117188 232.710938 349.832031 232.414062 349.578125 232.089844 C 349.320312 231.765625 349.101562 231.421875 348.914062 231.050781 C 348.726562 230.683594 348.574219 230.300781 348.460938 229.90625 C 348.351562 229.507812 348.277344 229.101562 348.246094 228.691406 C 348.214844 228.277344 348.222656 227.867188 348.269531 227.457031 C 348.316406 227.046875 348.40625 226.648438 348.535156 226.253906 C 348.660156 225.859375 348.824219 225.484375 349.027344 225.125 C 349.230469 224.765625 349.464844 224.425781 349.734375 224.113281 C 350 223.800781 350.296875 223.515625 350.621094 223.257812 C 350.945312 223.003906 351.292969 222.78125 351.660156 222.59375 C 352.027344 222.40625 352.410156 222.257812 352.808594 222.144531 C 353.203125 222.03125 353.609375 221.960938 354.019531 221.925781 C 354.433594 221.894531 354.84375 221.902344 355.253906 221.953125 C 355.664062 222 356.066406 222.089844 356.457031 222.214844 C 356.851562 222.34375 357.226562 222.507812 357.585938 222.710938 C 357.949219 222.910156 358.285156 223.144531 358.597656 223.414062 C 358.914062 223.683594 359.199219 223.976562 359.453125 224.300781 C 359.707031 224.625 359.929688 224.972656 360.117188 225.339844 Z M 360.117188 225.339844 " fill-opacity="1" fill-rule="nonzero"/><path fill="#ffd06c" d="M 355.363281 259.003906 C 355.550781 259.371094 355.699219 259.753906 355.8125 260.152344 C 355.925781 260.546875 355.996094 260.953125 356.03125 261.363281 C 356.0625 261.777344 356.054688 262.1875 356.003906 262.597656 C 355.957031 263.007812 355.867188 263.410156 355.742188 263.800781 C 355.613281 264.195312 355.449219 264.570312 355.246094 264.929688 C 355.046875 265.292969 354.8125 265.628906 354.542969 265.941406 C 354.273438 266.257812 353.976562 266.542969 353.652344 266.796875 C 353.328125 267.050781 352.984375 267.273438 352.617188 267.460938 C 352.25 267.648438 351.867188 267.800781 351.46875 267.910156 C 351.070312 268.023438 350.667969 268.09375 350.253906 268.128906 C 349.84375 268.160156 349.433594 268.152344 349.023438 268.105469 C 348.613281 268.054688 348.210938 267.96875 347.816406 267.839844 C 347.425781 267.710938 347.046875 267.546875 346.6875 267.347656 C 346.328125 267.144531 345.992188 266.910156 345.675781 266.640625 C 345.363281 266.375 345.078125 266.078125 344.820312 265.753906 C 344.566406 265.429688 344.34375 265.082031 344.15625 264.714844 C 343.96875 264.347656 343.820312 263.964844 343.707031 263.566406 C 343.597656 263.167969 343.523438 262.765625 343.492188 262.351562 C 343.457031 261.941406 343.464844 261.53125 343.515625 261.121094 C 343.5625 260.710938 343.652344 260.308594 343.777344 259.917969 C 343.90625 259.523438 344.070312 259.148438 344.273438 258.785156 C 344.476562 258.425781 344.710938 258.089844 344.976562 257.773438 C 345.246094 257.460938 345.542969 257.175781 345.867188 256.921875 C 346.191406 256.664062 346.535156 256.445312 346.90625 256.257812 C 347.273438 256.070312 347.65625 255.917969 348.050781 255.804688 C 348.449219 255.695312 348.855469 255.621094 349.265625 255.589844 C 349.679688 255.558594 350.089844 255.566406 350.5 255.613281 C 350.910156 255.664062 351.308594 255.75 351.703125 255.878906 C 352.09375 256.003906 352.472656 256.171875 352.832031 256.371094 C 353.191406 256.574219 353.53125 256.808594 353.84375 257.078125 C 354.15625 257.34375 354.441406 257.640625 354.699219 257.964844 C 354.953125 258.289062 355.175781 258.636719 355.363281 259.003906 Z M 355.363281 259.003906 " fill-opacity="1" fill-rule="nonzero"/><path fill="#ffd06c" d="M 350.605469 292.667969 C 350.792969 293.035156 350.941406 293.417969 351.054688 293.8125 C 351.167969 294.210938 351.238281 294.617188 351.273438 295.027344 C 351.304688 295.4375 351.296875 295.851562 351.25 296.261719 C 351.199219 296.671875 351.113281 297.070312 350.984375 297.464844 C 350.855469 297.855469 350.691406 298.234375 350.492188 298.59375 C 350.289062 298.953125 350.054688 299.292969 349.785156 299.605469 C 349.515625 299.917969 349.222656 300.203125 348.898438 300.460938 C 348.574219 300.714844 348.226562 300.9375 347.859375 301.125 C 347.492188 301.3125 347.109375 301.460938 346.710938 301.574219 C 346.3125 301.6875 345.910156 301.757812 345.496094 301.789062 C 345.085938 301.824219 344.675781 301.816406 344.265625 301.765625 C 343.855469 301.71875 343.453125 301.628906 343.058594 301.503906 C 342.667969 301.375 342.292969 301.210938 341.929688 301.007812 C 341.570312 300.808594 341.234375 300.574219 340.917969 300.304688 C 340.605469 300.035156 340.320312 299.738281 340.066406 299.414062 C 339.808594 299.089844 339.585938 298.746094 339.398438 298.378906 C 339.210938 298.007812 339.0625 297.625 338.949219 297.230469 C 338.839844 296.832031 338.765625 296.425781 338.734375 296.015625 C 338.703125 295.605469 338.710938 295.195312 338.757812 294.785156 C 338.804688 294.375 338.894531 293.972656 339.023438 293.578125 C 339.148438 293.1875 339.3125 292.808594 339.515625 292.449219 C 339.71875 292.089844 339.953125 291.753906 340.21875 291.4375 C 340.488281 291.125 340.785156 290.839844 341.109375 290.582031 C 341.433594 290.328125 341.78125 290.105469 342.148438 289.917969 C 342.515625 289.730469 342.898438 289.582031 343.296875 289.46875 C 343.691406 289.355469 344.097656 289.285156 344.507812 289.253906 C 344.921875 289.21875 345.332031 289.226562 345.742188 289.277344 C 346.152344 289.324219 346.554688 289.414062 346.945312 289.539062 C 347.339844 289.667969 347.714844 289.832031 348.074219 290.035156 C 348.433594 290.234375 348.773438 290.472656 349.085938 290.738281 C 349.402344 291.007812 349.683594 291.304688 349.941406 291.628906 C 350.195312 291.953125 350.417969 292.296875 350.605469 292.667969 Z M 350.605469 292.667969 " fill-opacity="1" fill-rule="nonzero"/><path fill="#ffd06c" d="M 337.574219 315.449219 C 337.761719 315.816406 337.910156 316.199219 338.023438 316.597656 C 338.132812 316.992188 338.207031 317.398438 338.238281 317.808594 C 338.269531 318.222656 338.261719 318.632812 338.214844 319.042969 C 338.167969 319.453125 338.078125 319.855469 337.949219 320.246094 C 337.824219 320.640625 337.660156 321.015625 337.457031 321.375 C 337.253906 321.738281 337.019531 322.074219 336.753906 322.386719 C 336.484375 322.703125 336.1875 322.988281 335.863281 323.242188 C 335.539062 323.496094 335.191406 323.71875 334.824219 323.90625 C 334.457031 324.09375 334.074219 324.246094 333.675781 324.355469 C 333.28125 324.46875 332.875 324.539062 332.464844 324.574219 C 332.050781 324.605469 331.640625 324.597656 331.230469 324.550781 C 330.820312 324.5 330.417969 324.414062 330.027344 324.285156 C 329.632812 324.15625 329.257812 323.992188 328.898438 323.792969 C 328.539062 323.589844 328.199219 323.355469 327.886719 323.085938 C 327.570312 322.820312 327.289062 322.523438 327.03125 322.199219 C 326.777344 321.875 326.554688 321.527344 326.367188 321.160156 C 326.179688 320.792969 326.03125 320.410156 325.917969 320.011719 C 325.804688 319.613281 325.734375 319.210938 325.699219 318.796875 C 325.667969 318.386719 325.675781 317.976562 325.722656 317.566406 C 325.773438 317.15625 325.859375 316.753906 325.988281 316.363281 C 326.117188 315.96875 326.28125 315.59375 326.484375 315.230469 C 326.683594 314.871094 326.917969 314.535156 327.1875 314.21875 C 327.457031 313.90625 327.75 313.621094 328.074219 313.367188 C 328.398438 313.109375 328.746094 312.890625 329.113281 312.703125 C 329.480469 312.515625 329.863281 312.363281 330.261719 312.25 C 330.660156 312.140625 331.0625 312.066406 331.476562 312.035156 C 331.886719 312.003906 332.296875 312.011719 332.707031 312.058594 C 333.117188 312.109375 333.519531 312.195312 333.914062 312.324219 C 334.304688 312.449219 334.679688 312.613281 335.042969 312.816406 C 335.402344 313.019531 335.738281 313.253906 336.054688 313.523438 C 336.367188 313.789062 336.652344 314.085938 336.90625 314.410156 C 337.164062 314.734375 337.386719 315.082031 337.574219 315.449219 Z M 337.574219 315.449219 " fill-opacity="1" fill-rule="nonzero"/><path fill="#ffd06c" d="M 305.222656 318.210938 C 305.410156 318.578125 305.5625 318.960938 305.671875 319.359375 C 305.785156 319.757812 305.859375 320.160156 305.890625 320.570312 C 305.921875 320.984375 305.914062 321.394531 305.867188 321.804688 C 305.816406 322.214844 305.730469 322.617188 305.601562 323.007812 C 305.472656 323.402344 305.308594 323.777344 305.109375 324.136719 C 304.90625 324.5 304.671875 324.835938 304.402344 325.148438 C 304.136719 325.464844 303.839844 325.75 303.515625 326.003906 C 303.191406 326.261719 302.84375 326.480469 302.476562 326.667969 C 302.109375 326.855469 301.726562 327.007812 301.328125 327.117188 C 300.929688 327.230469 300.527344 327.304688 300.113281 327.335938 C 299.703125 327.367188 299.292969 327.359375 298.882812 327.3125 C 298.472656 327.261719 298.070312 327.175781 297.679688 327.046875 C 297.285156 326.921875 296.910156 326.753906 296.546875 326.554688 C 296.1875 326.351562 295.851562 326.117188 295.535156 325.847656 C 295.222656 325.582031 294.9375 325.285156 294.683594 324.960938 C 294.425781 324.636719 294.207031 324.289062 294.019531 323.921875 C 293.832031 323.554688 293.679688 323.171875 293.566406 322.773438 C 293.457031 322.375 293.382812 321.972656 293.351562 321.5625 C 293.320312 321.148438 293.328125 320.738281 293.375 320.328125 C 293.425781 319.917969 293.511719 319.515625 293.640625 319.125 C 293.765625 318.730469 293.933594 318.355469 294.132812 317.996094 C 294.335938 317.632812 294.570312 317.296875 294.839844 316.984375 C 295.105469 316.667969 295.402344 316.382812 295.726562 316.128906 C 296.050781 315.871094 296.398438 315.652344 296.765625 315.464844 C 297.132812 315.277344 297.515625 315.125 297.914062 315.015625 C 298.308594 314.902344 298.714844 314.828125 299.125 314.796875 C 299.539062 314.765625 299.949219 314.773438 300.359375 314.820312 C 300.769531 314.871094 301.171875 314.957031 301.5625 315.085938 C 301.957031 315.210938 302.332031 315.378906 302.691406 315.578125 C 303.054688 315.78125 303.390625 316.015625 303.703125 316.285156 C 304.019531 316.550781 304.304688 316.847656 304.558594 317.171875 C 304.816406 317.496094 305.035156 317.84375 305.222656 318.210938 Z M 305.222656 318.210938 " fill-opacity="1" fill-rule="nonzero"/><path fill="#ffd06c" d="M 272.875 320.972656 C 273.0625 321.339844 273.210938 321.722656 273.324219 322.121094 C 273.4375 322.519531 273.507812 322.921875 273.539062 323.335938 C 273.574219 323.746094 273.566406 324.15625 273.515625 324.566406 C 273.46875 324.976562 273.378906 325.378906 273.253906 325.769531 C 273.125 326.164062 272.960938 326.539062 272.757812 326.902344 C 272.558594 327.261719 272.320312 327.597656 272.054688 327.914062 C 271.785156 328.226562 271.488281 328.511719 271.164062 328.765625 C 270.839844 329.023438 270.496094 329.242188 270.128906 329.429688 C 269.757812 329.617188 269.375 329.769531 268.980469 329.882812 C 268.582031 329.992188 268.175781 330.066406 267.765625 330.097656 C 267.355469 330.128906 266.941406 330.121094 266.535156 330.074219 C 266.125 330.023438 265.722656 329.9375 265.328125 329.808594 C 264.9375 329.683594 264.558594 329.519531 264.199219 329.316406 C 263.839844 329.113281 263.503906 328.878906 263.1875 328.609375 C 262.875 328.34375 262.589844 328.046875 262.332031 327.722656 C 262.078125 327.398438 261.855469 327.050781 261.667969 326.683594 C 261.480469 326.316406 261.332031 325.933594 261.21875 325.535156 C 261.105469 325.140625 261.035156 324.734375 261.003906 324.324219 C 260.96875 323.910156 260.976562 323.5 261.027344 323.089844 C 261.074219 322.679688 261.164062 322.277344 261.289062 321.886719 C 261.417969 321.492188 261.582031 321.117188 261.785156 320.757812 C 261.984375 320.394531 262.222656 320.058594 262.488281 319.746094 C 262.757812 319.429688 263.054688 319.144531 263.378906 318.890625 C 263.703125 318.636719 264.046875 318.414062 264.414062 318.226562 C 264.785156 318.039062 265.167969 317.886719 265.5625 317.777344 C 265.960938 317.664062 266.367188 317.59375 266.777344 317.558594 C 267.1875 317.527344 267.601562 317.535156 268.011719 317.582031 C 268.421875 317.632812 268.820312 317.71875 269.214844 317.847656 C 269.605469 317.976562 269.984375 318.140625 270.34375 318.339844 C 270.703125 318.542969 271.042969 318.777344 271.355469 319.046875 C 271.667969 319.3125 271.953125 319.609375 272.210938 319.933594 C 272.464844 320.257812 272.6875 320.605469 272.875 320.972656 Z M 272.875 320.972656 " fill-opacity="1" fill-rule="nonzero"/><path fill="#ffd06c" d="M 240.527344 323.730469 C 240.714844 324.097656 240.863281 324.480469 240.976562 324.878906 C 241.085938 325.273438 241.160156 325.679688 241.191406 326.089844 C 241.222656 326.503906 241.214844 326.914062 241.167969 327.324219 C 241.121094 327.734375 241.03125 328.136719 240.902344 328.527344 C 240.777344 328.921875 240.613281 329.296875 240.410156 329.65625 C 240.207031 330.019531 239.972656 330.355469 239.703125 330.667969 C 239.4375 330.984375 239.140625 331.269531 238.816406 331.523438 C 238.492188 331.777344 238.144531 332 237.777344 332.1875 C 237.410156 332.375 237.027344 332.527344 236.628906 332.636719 C 236.234375 332.75 235.828125 332.820312 235.417969 332.855469 C 235.003906 332.886719 234.59375 332.878906 234.183594 332.832031 C 233.773438 332.78125 233.371094 332.695312 232.980469 332.566406 C 232.585938 332.4375 232.210938 332.273438 231.851562 332.074219 C 231.488281 331.871094 231.152344 331.636719 230.839844 331.367188 C 230.523438 331.097656 230.238281 330.804688 229.984375 330.480469 C 229.730469 330.15625 229.507812 329.808594 229.320312 329.441406 C 229.132812 329.074219 228.980469 328.691406 228.871094 328.292969 C 228.757812 327.894531 228.6875 327.492188 228.652344 327.078125 C 228.621094 326.667969 228.628906 326.257812 228.675781 325.847656 C 228.726562 325.4375 228.8125 325.035156 228.941406 324.644531 C 229.070312 324.25 229.234375 323.875 229.433594 323.511719 C 229.636719 323.152344 229.871094 322.816406 230.140625 322.5 C 230.410156 322.1875 230.703125 321.902344 231.027344 321.648438 C 231.351562 321.390625 231.699219 321.167969 232.066406 320.980469 C 232.433594 320.792969 232.816406 320.644531 233.214844 320.53125 C 233.613281 320.421875 234.015625 320.347656 234.429688 320.316406 C 234.839844 320.285156 235.25 320.292969 235.660156 320.339844 C 236.070312 320.386719 236.472656 320.476562 236.863281 320.605469 C 237.257812 320.730469 237.632812 320.894531 237.996094 321.097656 C 238.355469 321.300781 238.691406 321.535156 239.007812 321.804688 C 239.320312 322.070312 239.605469 322.367188 239.859375 322.691406 C 240.117188 323.015625 240.339844 323.363281 240.527344 323.730469 Z M 240.527344 323.730469 " fill-opacity="1" fill-rule="nonzero"/><path fill="#ffd06c" d="M 208.175781 326.492188 C 208.363281 326.859375 208.515625 327.242188 208.625 327.640625 C 208.738281 328.039062 208.808594 328.441406 208.84375 328.851562 C 208.875 329.265625 208.867188 329.675781 208.820312 330.085938 C 208.769531 330.496094 208.683594 330.898438 208.554688 331.289062 C 208.425781 331.683594 208.261719 332.058594 208.0625 332.417969 C 207.859375 332.78125 207.625 333.117188 207.355469 333.429688 C 207.085938 333.746094 206.792969 334.03125 206.46875 334.285156 C 206.144531 334.542969 205.796875 334.761719 205.429688 334.949219 C 205.0625 335.136719 204.679688 335.289062 204.28125 335.398438 C 203.882812 335.511719 203.480469 335.585938 203.066406 335.617188 C 202.65625 335.648438 202.246094 335.640625 201.835938 335.59375 C 201.425781 335.542969 201.023438 335.457031 200.632812 335.328125 C 200.238281 335.199219 199.863281 335.035156 199.5 334.835938 C 199.140625 334.632812 198.804688 334.398438 198.488281 334.128906 C 198.175781 333.863281 197.890625 333.566406 197.636719 333.242188 C 197.378906 332.917969 197.15625 332.570312 196.96875 332.203125 C 196.78125 331.835938 196.632812 331.453125 196.519531 331.054688 C 196.410156 330.65625 196.335938 330.253906 196.304688 329.839844 C 196.273438 329.429688 196.28125 329.019531 196.328125 328.609375 C 196.375 328.199219 196.464844 327.796875 196.59375 327.40625 C 196.71875 327.011719 196.882812 326.636719 197.085938 326.277344 C 197.289062 325.914062 197.523438 325.578125 197.792969 325.265625 C 198.058594 324.949219 198.355469 324.664062 198.679688 324.410156 C 199.003906 324.152344 199.351562 323.933594 199.71875 323.746094 C 200.085938 323.558594 200.46875 323.40625 200.867188 323.296875 C 201.261719 323.183594 201.667969 323.109375 202.078125 323.078125 C 202.492188 323.046875 202.902344 323.054688 203.3125 323.101562 C 203.722656 323.152344 204.125 323.238281 204.515625 323.367188 C 204.910156 323.492188 205.285156 323.660156 205.644531 323.859375 C 206.007812 324.0625 206.34375 324.296875 206.65625 324.566406 C 206.972656 324.832031 207.257812 325.128906 207.511719 325.453125 C 207.765625 325.777344 207.988281 326.125 208.175781 326.492188 Z M 208.175781 326.492188 " fill-opacity="1" fill-rule="nonzero"/><path fill="#ffd06c" d="M 175.820312 329.253906 C 176.007812 329.621094 176.160156 330.003906 176.269531 330.402344 C 176.382812 330.800781 176.457031 331.203125 176.488281 331.617188 C 176.519531 332.027344 176.511719 332.4375 176.464844 332.847656 C 176.414062 333.257812 176.328125 333.660156 176.199219 334.050781 C 176.074219 334.445312 175.90625 334.820312 175.707031 335.183594 C 175.503906 335.542969 175.269531 335.878906 175 336.195312 C 174.734375 336.507812 174.4375 336.792969 174.113281 337.046875 C 173.789062 337.304688 173.441406 337.523438 173.074219 337.710938 C 172.707031 337.898438 172.324219 338.050781 171.925781 338.164062 C 171.527344 338.273438 171.125 338.347656 170.714844 338.378906 C 170.300781 338.410156 169.890625 338.402344 169.480469 338.355469 C 169.070312 338.304688 168.667969 338.21875 168.277344 338.089844 C 167.882812 337.964844 167.507812 337.796875 167.148438 337.597656 C 166.785156 337.394531 166.449219 337.160156 166.136719 336.890625 C 165.820312 336.625 165.535156 336.328125 165.28125 336.003906 C 165.023438 335.679688 164.804688 335.332031 164.617188 334.964844 C 164.429688 334.597656 164.277344 334.214844 164.167969 333.816406 C 164.054688 333.421875 163.980469 333.015625 163.949219 332.605469 C 163.917969 332.191406 163.925781 331.78125 163.972656 331.371094 C 164.023438 330.960938 164.109375 330.558594 164.238281 330.167969 C 164.367188 329.773438 164.53125 329.398438 164.730469 329.039062 C 164.933594 328.675781 165.167969 328.339844 165.4375 328.027344 C 165.703125 327.710938 166 327.425781 166.324219 327.171875 C 166.648438 326.914062 166.996094 326.695312 167.363281 326.507812 C 167.730469 326.320312 168.113281 326.167969 168.511719 326.058594 C 168.910156 325.945312 169.3125 325.871094 169.726562 325.839844 C 170.136719 325.808594 170.546875 325.816406 170.957031 325.863281 C 171.367188 325.914062 171.769531 326 172.160156 326.128906 C 172.554688 326.257812 172.929688 326.421875 173.289062 326.621094 C 173.652344 326.824219 173.988281 327.058594 174.300781 327.328125 C 174.617188 327.59375 174.902344 327.890625 175.15625 328.214844 C 175.414062 328.539062 175.632812 328.886719 175.820312 329.253906 Z M 175.820312 329.253906 " fill-opacity="1" fill-rule="nonzero"/><path fill="#ffd06c" d="M 143.476562 332.015625 C 143.664062 332.382812 143.8125 332.765625 143.925781 333.164062 C 144.035156 333.5625 144.109375 333.964844 144.140625 334.378906 C 144.175781 334.789062 144.164062 335.199219 144.117188 335.609375 C 144.070312 336.019531 143.980469 336.421875 143.851562 336.8125 C 143.726562 337.207031 143.5625 337.582031 143.359375 337.945312 C 143.15625 338.304688 142.921875 338.640625 142.65625 338.953125 C 142.386719 339.269531 142.089844 339.554688 141.765625 339.808594 C 141.441406 340.066406 141.097656 340.285156 140.726562 340.472656 C 140.359375 340.660156 139.976562 340.8125 139.582031 340.921875 C 139.183594 341.035156 138.777344 341.109375 138.367188 341.140625 C 137.953125 341.171875 137.542969 341.164062 137.132812 341.117188 C 136.722656 341.066406 136.324219 340.980469 135.929688 340.851562 C 135.535156 340.726562 135.160156 340.558594 134.800781 340.359375 C 134.441406 340.15625 134.101562 339.921875 133.789062 339.652344 C 133.476562 339.386719 133.191406 339.089844 132.933594 338.765625 C 132.679688 338.441406 132.457031 338.09375 132.269531 337.726562 C 132.082031 337.359375 131.933594 336.976562 131.820312 336.578125 C 131.707031 336.183594 131.636719 335.777344 131.601562 335.367188 C 131.570312 334.953125 131.578125 334.542969 131.628906 334.132812 C 131.675781 333.722656 131.761719 333.320312 131.890625 332.929688 C 132.019531 332.535156 132.183594 332.160156 132.386719 331.800781 C 132.585938 331.4375 132.820312 331.101562 133.089844 330.789062 C 133.359375 330.472656 133.652344 330.1875 133.976562 329.933594 C 134.300781 329.675781 134.648438 329.457031 135.015625 329.269531 C 135.382812 329.082031 135.765625 328.929688 136.164062 328.820312 C 136.5625 328.707031 136.964844 328.632812 137.378906 328.601562 C 137.789062 328.570312 138.199219 328.578125 138.609375 328.625 C 139.019531 328.675781 139.421875 328.761719 139.816406 328.890625 C 140.207031 329.019531 140.585938 329.183594 140.945312 329.382812 C 141.304688 329.585938 141.640625 329.820312 141.957031 330.089844 C 142.269531 330.355469 142.554688 330.652344 142.808594 330.976562 C 143.066406 331.300781 143.289062 331.648438 143.476562 332.015625 Z M 143.476562 332.015625 " fill-opacity="1" fill-rule="nonzero"/><path fill="#ffd06c" d="M 111.125 334.773438 C 111.3125 335.140625 111.460938 335.523438 111.574219 335.921875 C 111.683594 336.316406 111.757812 336.722656 111.789062 337.132812 C 111.824219 337.546875 111.8125 337.957031 111.765625 338.367188 C 111.71875 338.777344 111.628906 339.179688 111.5 339.570312 C 111.375 339.964844 111.210938 340.339844 111.007812 340.699219 C 110.804688 341.0625 110.570312 341.398438 110.304688 341.710938 C 110.035156 342.027344 109.738281 342.3125 109.414062 342.566406 C 109.089844 342.824219 108.746094 343.042969 108.375 343.230469 C 108.007812 343.417969 107.625 343.570312 107.226562 343.679688 C 106.832031 343.792969 106.425781 343.867188 106.015625 343.898438 C 105.601562 343.929688 105.191406 343.921875 104.78125 343.875 C 104.371094 343.824219 103.972656 343.738281 103.578125 343.609375 C 103.183594 343.480469 102.808594 343.316406 102.449219 343.117188 C 102.089844 342.914062 101.75 342.679688 101.4375 342.410156 C 101.125 342.144531 100.839844 341.847656 100.582031 341.523438 C 100.328125 341.199219 100.105469 340.851562 99.917969 340.484375 C 99.730469 340.117188 99.582031 339.734375 99.46875 339.335938 C 99.355469 338.9375 99.285156 338.535156 99.25 338.121094 C 99.21875 337.710938 99.226562 337.300781 99.277344 336.890625 C 99.324219 336.480469 99.410156 336.078125 99.539062 335.6875 C 99.667969 335.292969 99.832031 334.917969 100.035156 334.554688 C 100.234375 334.195312 100.46875 333.859375 100.738281 333.546875 C 101.007812 333.230469 101.300781 332.945312 101.625 332.691406 C 101.949219 332.433594 102.296875 332.214844 102.664062 332.027344 C 103.03125 331.839844 103.414062 331.6875 103.8125 331.578125 C 104.210938 331.464844 104.613281 331.390625 105.027344 331.359375 C 105.4375 331.328125 105.847656 331.335938 106.257812 331.382812 C 106.667969 331.433594 107.070312 331.519531 107.464844 331.648438 C 107.855469 331.773438 108.234375 331.941406 108.59375 332.140625 C 108.953125 332.34375 109.289062 332.578125 109.605469 332.847656 C 109.917969 333.113281 110.203125 333.410156 110.457031 333.734375 C 110.714844 334.058594 110.9375 334.40625 111.125 334.773438 Z M 111.125 334.773438 " fill-opacity="1" fill-rule="nonzero"/><path fill="#ffd06c" d="M 78.773438 335.542969 C 78.960938 335.910156 79.113281 336.292969 79.222656 336.691406 C 79.335938 337.089844 79.410156 337.492188 79.441406 337.902344 C 79.472656 338.316406 79.464844 338.726562 79.417969 339.136719 C 79.367188 339.546875 79.28125 339.949219 79.152344 340.339844 C 79.023438 340.734375 78.859375 341.109375 78.660156 341.46875 C 78.457031 341.832031 78.222656 342.167969 77.953125 342.480469 C 77.6875 342.796875 77.390625 343.082031 77.066406 343.335938 C 76.742188 343.59375 76.394531 343.8125 76.027344 344 C 75.660156 344.1875 75.277344 344.339844 74.878906 344.449219 C 74.480469 344.5625 74.078125 344.636719 73.664062 344.667969 C 73.253906 344.699219 72.84375 344.691406 72.433594 344.644531 C 72.023438 344.59375 71.621094 344.507812 71.230469 344.378906 C 70.835938 344.253906 70.460938 344.085938 70.097656 343.886719 C 69.738281 343.683594 69.402344 343.449219 69.089844 343.179688 C 68.773438 342.914062 68.488281 342.617188 68.234375 342.292969 C 67.976562 341.96875 67.757812 341.621094 67.570312 341.253906 C 67.382812 340.886719 67.230469 340.503906 67.121094 340.105469 C 67.007812 339.707031 66.933594 339.304688 66.902344 338.894531 C 66.871094 338.480469 66.878906 338.070312 66.925781 337.660156 C 66.976562 337.25 67.0625 336.847656 67.191406 336.457031 C 67.316406 336.0625 67.484375 335.6875 67.683594 335.328125 C 67.886719 334.964844 68.121094 334.628906 68.390625 334.316406 C 68.65625 334 68.953125 333.714844 69.277344 333.460938 C 69.601562 333.203125 69.949219 332.984375 70.316406 332.796875 C 70.683594 332.609375 71.066406 332.457031 71.464844 332.347656 C 71.863281 332.234375 72.265625 332.160156 72.675781 332.128906 C 73.089844 332.097656 73.5 332.105469 73.910156 332.152344 C 74.320312 332.203125 74.722656 332.289062 75.113281 332.417969 C 75.507812 332.542969 75.882812 332.710938 76.242188 332.910156 C 76.605469 333.113281 76.941406 333.347656 77.253906 333.617188 C 77.570312 333.882812 77.855469 334.179688 78.109375 334.503906 C 78.367188 334.828125 78.585938 335.175781 78.773438 335.542969 Z M 78.773438 335.542969 " fill-opacity="1" fill-rule="nonzero"/><path fill="#ffd06c" d="M 46.425781 334.773438 C 46.613281 335.140625 46.761719 335.523438 46.875 335.921875 C 46.988281 336.316406 47.058594 336.722656 47.09375 337.132812 C 47.125 337.546875 47.117188 337.957031 47.066406 338.367188 C 47.019531 338.777344 46.929688 339.179688 46.804688 339.570312 C 46.675781 339.964844 46.511719 340.339844 46.308594 340.699219 C 46.109375 341.0625 45.875 341.398438 45.605469 341.710938 C 45.335938 342.027344 45.039062 342.3125 44.714844 342.566406 C 44.390625 342.824219 44.046875 343.042969 43.679688 343.230469 C 43.308594 343.417969 42.929688 343.570312 42.53125 343.679688 C 42.132812 343.792969 41.726562 343.867188 41.316406 343.898438 C 40.90625 343.929688 40.496094 343.921875 40.085938 343.875 C 39.675781 343.824219 39.273438 343.738281 38.878906 343.609375 C 38.488281 343.480469 38.109375 343.316406 37.75 343.117188 C 37.390625 342.914062 37.054688 342.679688 36.738281 342.410156 C 36.425781 342.144531 36.140625 341.847656 35.882812 341.523438 C 35.628906 341.199219 35.40625 340.851562 35.21875 340.484375 C 35.03125 340.117188 34.882812 339.734375 34.769531 339.335938 C 34.65625 338.9375 34.585938 338.535156 34.554688 338.121094 C 34.519531 337.710938 34.527344 337.300781 34.578125 336.890625 C 34.625 336.480469 34.714844 336.078125 34.839844 335.6875 C 34.96875 335.292969 35.132812 334.917969 35.335938 334.554688 C 35.535156 334.195312 35.773438 333.859375 36.039062 333.546875 C 36.308594 333.230469 36.605469 332.945312 36.929688 332.691406 C 37.253906 332.433594 37.597656 332.214844 37.96875 332.027344 C 38.335938 331.839844 38.71875 331.6875 39.113281 331.578125 C 39.511719 331.464844 39.917969 331.390625 40.328125 331.359375 C 40.738281 331.328125 41.152344 331.335938 41.5625 331.382812 C 41.972656 331.433594 42.371094 331.519531 42.765625 331.648438 C 43.15625 331.773438 43.535156 331.941406 43.894531 332.140625 C 44.253906 332.34375 44.59375 332.578125 44.90625 332.847656 C 45.21875 333.113281 45.503906 333.410156 45.761719 333.734375 C 46.015625 334.058594 46.238281 334.40625 46.425781 334.773438 Z M 46.425781 334.773438 " fill-opacity="1" fill-rule="nonzero"/><path fill="#ffd06c" d="M 38.058594 301.757812 C 38.246094 302.125 38.398438 302.507812 38.507812 302.90625 C 38.621094 303.304688 38.695312 303.707031 38.726562 304.121094 C 38.757812 304.53125 38.75 304.941406 38.703125 305.351562 C 38.652344 305.761719 38.566406 306.164062 38.4375 306.558594 C 38.3125 306.949219 38.144531 307.324219 37.945312 307.6875 C 37.742188 308.046875 37.507812 308.382812 37.238281 308.699219 C 36.972656 309.011719 36.675781 309.296875 36.351562 309.550781 C 36.027344 309.808594 35.679688 310.03125 35.3125 310.21875 C 34.945312 310.40625 34.5625 310.554688 34.164062 310.667969 C 33.765625 310.777344 33.363281 310.851562 32.953125 310.882812 C 32.539062 310.914062 32.128906 310.90625 31.71875 310.859375 C 31.308594 310.8125 30.90625 310.722656 30.515625 310.59375 C 30.121094 310.46875 29.746094 310.304688 29.386719 310.101562 C 29.023438 309.898438 28.6875 309.664062 28.375 309.398438 C 28.058594 309.128906 27.773438 308.832031 27.519531 308.507812 C 27.261719 308.183594 27.042969 307.835938 26.855469 307.46875 C 26.667969 307.101562 26.515625 306.71875 26.40625 306.320312 C 26.292969 305.925781 26.21875 305.519531 26.1875 305.109375 C 26.15625 304.695312 26.164062 304.285156 26.210938 303.875 C 26.261719 303.464844 26.347656 303.0625 26.476562 302.671875 C 26.605469 302.277344 26.769531 301.902344 26.96875 301.542969 C 27.171875 301.183594 27.40625 300.84375 27.675781 300.53125 C 27.941406 300.214844 28.238281 299.933594 28.5625 299.675781 C 28.886719 299.421875 29.234375 299.199219 29.601562 299.011719 C 29.96875 298.824219 30.351562 298.675781 30.75 298.5625 C 31.148438 298.449219 31.550781 298.378906 31.964844 298.34375 C 32.375 298.3125 32.785156 298.320312 33.195312 298.367188 C 33.605469 298.417969 34.007812 298.503906 34.398438 298.632812 C 34.792969 298.761719 35.167969 298.925781 35.53125 299.128906 C 35.890625 299.328125 36.226562 299.5625 36.539062 299.832031 C 36.855469 300.101562 37.140625 300.394531 37.394531 300.71875 C 37.652344 301.042969 37.871094 301.390625 38.058594 301.757812 Z M 38.058594 301.757812 " fill-opacity="1" fill-rule="nonzero"/><path fill="#ffd06c" d="M 32.878906 266.980469 C 33.066406 267.347656 33.21875 267.730469 33.328125 268.125 C 33.441406 268.523438 33.515625 268.929688 33.546875 269.339844 C 33.578125 269.75 33.570312 270.164062 33.523438 270.574219 C 33.472656 270.984375 33.386719 271.382812 33.257812 271.777344 C 33.132812 272.167969 32.964844 272.546875 32.765625 272.90625 C 32.5625 273.265625 32.328125 273.605469 32.058594 273.917969 C 31.792969 274.230469 31.496094 274.515625 31.171875 274.773438 C 30.847656 275.027344 30.5 275.25 30.132812 275.4375 C 29.765625 275.625 29.382812 275.773438 28.984375 275.886719 C 28.585938 276 28.183594 276.070312 27.773438 276.105469 C 27.359375 276.136719 26.949219 276.128906 26.539062 276.078125 C 26.128906 276.03125 25.726562 275.941406 25.335938 275.816406 C 24.941406 275.6875 24.566406 275.523438 24.207031 275.320312 C 23.84375 275.121094 23.507812 274.886719 23.195312 274.617188 C 22.878906 274.347656 22.59375 274.050781 22.339844 273.726562 C 22.082031 273.402344 21.863281 273.058594 21.675781 272.691406 C 21.488281 272.320312 21.335938 271.9375 21.226562 271.542969 C 21.113281 271.144531 21.039062 270.738281 21.007812 270.328125 C 20.976562 269.917969 20.984375 269.507812 21.03125 269.097656 C 21.082031 268.6875 21.167969 268.285156 21.296875 267.890625 C 21.421875 267.5 21.589844 267.121094 21.789062 266.761719 C 21.992188 266.402344 22.226562 266.066406 22.496094 265.75 C 22.761719 265.4375 23.058594 265.152344 23.382812 264.894531 C 23.707031 264.640625 24.054688 264.417969 24.421875 264.230469 C 24.789062 264.042969 25.171875 263.894531 25.570312 263.78125 C 25.96875 263.667969 26.371094 263.597656 26.78125 263.566406 C 27.195312 263.53125 27.605469 263.539062 28.015625 263.589844 C 28.425781 263.636719 28.828125 263.726562 29.21875 263.851562 C 29.613281 263.980469 29.988281 264.144531 30.347656 264.347656 C 30.710938 264.546875 31.046875 264.785156 31.359375 265.050781 C 31.675781 265.320312 31.960938 265.617188 32.214844 265.941406 C 32.472656 266.265625 32.691406 266.609375 32.878906 266.980469 Z M 32.878906 266.980469 " fill-opacity="1" fill-rule="nonzero"/><path fill="#ffd06c" d="M 28.894531 232.496094 C 29.082031 232.863281 29.230469 233.246094 29.34375 233.644531 C 29.453125 234.042969 29.527344 234.445312 29.558594 234.859375 C 29.589844 235.269531 29.582031 235.679688 29.535156 236.089844 C 29.488281 236.5 29.398438 236.902344 29.269531 237.292969 C 29.144531 237.6875 28.980469 238.0625 28.777344 238.425781 C 28.574219 238.785156 28.339844 239.121094 28.074219 239.433594 C 27.804688 239.75 27.507812 240.035156 27.183594 240.289062 C 26.859375 240.546875 26.511719 240.765625 26.144531 240.953125 C 25.777344 241.140625 25.394531 241.292969 24.996094 241.402344 C 24.601562 241.515625 24.195312 241.589844 23.785156 241.621094 C 23.371094 241.652344 22.960938 241.644531 22.550781 241.597656 C 22.140625 241.546875 21.738281 241.460938 21.347656 241.332031 C 20.953125 241.207031 20.578125 241.039062 20.21875 240.839844 C 19.859375 240.636719 19.519531 240.402344 19.207031 240.132812 C 18.890625 239.867188 18.605469 239.570312 18.351562 239.246094 C 18.097656 238.921875 17.875 238.574219 17.6875 238.207031 C 17.5 237.839844 17.351562 237.457031 17.238281 237.058594 C 17.125 236.664062 17.054688 236.257812 17.019531 235.847656 C 16.988281 235.433594 16.996094 235.023438 17.042969 234.613281 C 17.09375 234.203125 17.179688 233.800781 17.308594 233.410156 C 17.4375 233.015625 17.601562 232.640625 17.800781 232.28125 C 18.003906 231.917969 18.238281 231.582031 18.507812 231.269531 C 18.777344 230.953125 19.070312 230.667969 19.394531 230.414062 C 19.71875 230.15625 20.066406 229.9375 20.433594 229.75 C 20.800781 229.5625 21.183594 229.410156 21.582031 229.300781 C 21.980469 229.1875 22.382812 229.113281 22.796875 229.082031 C 23.207031 229.050781 23.617188 229.058594 24.027344 229.105469 C 24.4375 229.15625 24.839844 229.242188 25.234375 229.371094 C 25.625 229.5 26 229.664062 26.363281 229.863281 C 26.722656 230.066406 27.058594 230.300781 27.375 230.570312 C 27.6875 230.835938 27.972656 231.132812 28.226562 231.457031 C 28.484375 231.78125 28.707031 232.128906 28.894531 232.496094 Z M 28.894531 232.496094 " fill-opacity="1" fill-rule="nonzero"/><path fill="#ffd06c" d="M 25.164062 199.511719 C 25.351562 199.878906 25.503906 200.261719 25.613281 200.660156 C 25.726562 201.058594 25.800781 201.460938 25.832031 201.875 C 25.863281 202.285156 25.855469 202.695312 25.808594 203.105469 C 25.757812 203.515625 25.671875 203.917969 25.542969 204.3125 C 25.414062 204.703125 25.25 205.082031 25.050781 205.441406 C 24.847656 205.800781 24.613281 206.136719 24.34375 206.453125 C 24.078125 206.765625 23.78125 207.050781 23.457031 207.304688 C 23.132812 207.5625 22.785156 207.785156 22.417969 207.972656 C 22.050781 208.160156 21.667969 208.308594 21.269531 208.421875 C 20.871094 208.53125 20.46875 208.605469 20.054688 208.636719 C 19.644531 208.671875 19.234375 208.660156 18.824219 208.613281 C 18.414062 208.566406 18.011719 208.476562 17.621094 208.347656 C 17.226562 208.222656 16.851562 208.058594 16.488281 207.855469 C 16.128906 207.652344 15.792969 207.417969 15.480469 207.152344 C 15.164062 206.882812 14.878906 206.585938 14.625 206.261719 C 14.367188 205.9375 14.148438 205.59375 13.960938 205.222656 C 13.773438 204.855469 13.621094 204.472656 13.511719 204.074219 C 13.398438 203.679688 13.324219 203.273438 13.292969 202.863281 C 13.261719 202.449219 13.269531 202.039062 13.316406 201.628906 C 13.367188 201.21875 13.453125 200.820312 13.582031 200.425781 C 13.707031 200.03125 13.875 199.65625 14.074219 199.296875 C 14.277344 198.9375 14.511719 198.597656 14.78125 198.285156 C 15.046875 197.96875 15.34375 197.6875 15.667969 197.429688 C 15.992188 197.175781 16.339844 196.953125 16.707031 196.765625 C 17.074219 196.578125 17.457031 196.429688 17.855469 196.316406 C 18.25 196.203125 18.65625 196.132812 19.066406 196.097656 C 19.480469 196.066406 19.890625 196.074219 20.300781 196.125 C 20.710938 196.171875 21.113281 196.257812 21.503906 196.386719 C 21.898438 196.515625 22.273438 196.679688 22.632812 196.882812 C 22.996094 197.082031 23.332031 197.316406 23.644531 197.585938 C 23.960938 197.855469 24.246094 198.148438 24.5 198.472656 C 24.757812 198.796875 24.976562 199.144531 25.164062 199.511719 Z M 25.164062 199.511719 " fill-opacity="1" fill-rule="nonzero"/><path fill="#ffd06c" d="M 23.910156 163.667969 C 24.097656 164.035156 24.25 164.417969 24.359375 164.8125 C 24.472656 165.210938 24.546875 165.617188 24.578125 166.027344 C 24.609375 166.4375 24.601562 166.851562 24.554688 167.261719 C 24.503906 167.671875 24.417969 168.070312 24.289062 168.464844 C 24.164062 168.855469 23.996094 169.234375 23.796875 169.59375 C 23.59375 169.953125 23.359375 170.292969 23.089844 170.605469 C 22.824219 170.917969 22.527344 171.203125 22.203125 171.460938 C 21.878906 171.714844 21.53125 171.9375 21.164062 172.125 C 20.796875 172.3125 20.414062 172.460938 20.015625 172.574219 C 19.617188 172.6875 19.214844 172.757812 18.804688 172.789062 C 18.390625 172.824219 17.980469 172.816406 17.570312 172.765625 C 17.160156 172.71875 16.757812 172.628906 16.367188 172.503906 C 15.972656 172.375 15.597656 172.210938 15.238281 172.007812 C 14.875 171.808594 14.539062 171.574219 14.226562 171.304688 C 13.910156 171.035156 13.625 170.738281 13.371094 170.414062 C 13.113281 170.089844 12.894531 169.746094 12.707031 169.378906 C 12.519531 169.007812 12.367188 168.625 12.257812 168.230469 C 12.144531 167.832031 12.070312 167.425781 12.039062 167.015625 C 12.007812 166.605469 12.015625 166.195312 12.0625 165.785156 C 12.113281 165.375 12.199219 164.972656 12.328125 164.578125 C 12.457031 164.1875 12.621094 163.808594 12.820312 163.449219 C 13.023438 163.089844 13.257812 162.753906 13.527344 162.4375 C 13.792969 162.125 14.089844 161.839844 14.414062 161.582031 C 14.738281 161.328125 15.085938 161.105469 15.453125 160.917969 C 15.820312 160.730469 16.203125 160.582031 16.601562 160.46875 C 17 160.355469 17.402344 160.285156 17.816406 160.253906 C 18.226562 160.21875 18.636719 160.226562 19.046875 160.277344 C 19.457031 160.324219 19.859375 160.414062 20.25 160.539062 C 20.644531 160.667969 21.019531 160.832031 21.378906 161.035156 C 21.742188 161.234375 22.078125 161.472656 22.390625 161.738281 C 22.707031 162.007812 22.992188 162.304688 23.246094 162.628906 C 23.503906 162.953125 23.722656 163.296875 23.910156 163.667969 Z M 23.910156 163.667969 " fill-opacity="1" fill-rule="nonzero"/><g clip-path="url(#1bfb9a2c61)"><g clip-path="url(#2b4a5cbd32)"><g clip-path="url(#1ca9bce180)"><g transform="matrix(1, 0, 0, 1, 38, 198)"><g clip-path="url(#48c0e19953)"><g clip-path="url(#31bede3031)"><g clip-path="url(#59c84cde9f)"><g clip-path="url(#ed9f67df5a)"><path fill="#cc104a" d="M 0.175781 18.226562 L 284.441406 -0.421875 L 291.601562 108.679688 L 7.332031 127.328125 Z M 0.175781 18.226562 " fill-opacity="1" fill-rule="nonzero"/></g></g></g></g></g></g></g></g><g clip-path="url(#b9985372a7)"><g clip-path="url(#4a4c053c4a)"><g clip-path="url(#6274a46150)"><g transform="matrix(1, 0, 0, 1, 49, 179)"><g clip-path="url(#e531b00ffc)"><g clip-path="url(#a4eaa1dc2a)"><g clip-path="url(#bc76202772)"><g clip-path="url(#93fa49f020)"><path fill="#cc104a" d="M 3.078125 0.222656 L 270.101562 9.453125 L 266.667969 108.808594 L -0.355469 99.582031 Z M 3.078125 0.222656 " fill-opacity="1" fill-rule="nonzero"/></g></g></g></g></g></g></g></g></svg>