<svg xmlns="http://www.w3.org/2000/svg" xmlns:xlink="http://www.w3.org/1999/xlink" width="500" zoomAndPan="magnify" viewBox="0 0 375 374.999991" height="500" preserveAspectRatio="xMidYMid meet" version="1.0"><path fill="#ffffff" d="M 143.949219 234.71875 C 143.84375 213.460938 143.65625 178.695312 143.574219 157.464844 C 143.46875 136.207031 159.363281 127.441406 177.511719 137.976562 C 195.683594 148.511719 225.945312 165.746094 244.121094 176.253906 C 262.269531 186.789062 262.644531 204.160156 244.601562 214.882812 C 226.535156 225.605469 196.03125 243.132812 177.964844 253.855469 C 159.925781 264.578125 144.058594 255.972656 143.949219 234.71875 Z M 143.949219 234.71875 " fill-opacity="1" fill-rule="nonzero"/><path fill="#ffffff" d="M 105.726562 180.222656 C 106.957031 105.4375 126.203125 70.429688 150.195312 53.515625 C 163.597656 45.929688 174.613281 44.507812 184.90625 44.265625 C 192.492188 44.078125 199.785156 44.722656 206.808594 45.980469 C 229.109375 48.824219 278.109375 63.566406 324.75 106.613281 C 299.957031 43.300781 224.390625 0.0625 155.152344 10.144531 C 101.945312 17.863281 55.761719 61.476562 51.285156 156.605469 C 47.449219 238.203125 83.636719 290.015625 111.355469 282.914062 C 108.378906 243.804688 105.269531 206.867188 105.726562 180.222656 Z M 105.726562 180.222656 " fill-opacity="1" fill-rule="nonzero"/><path fill="#ffffff" d="M 210.855469 271.949219 C 145.636719 308.566406 105.699219 309.613281 79 297.414062 C 65.707031 289.640625 58.898438 280.875 53.507812 272.109375 C 49.515625 265.652344 46.40625 259.058594 43.964844 252.328125 C 35.175781 231.636719 23.21875 181.882812 36.890625 119.910156 C -5.300781 173.226562 -4.550781 260.289062 39.035156 315 C 72.539062 357.03125 133.46875 374.9375 217.878906 330.867188 C 290.304688 293.046875 316.816406 235.683594 296.6875 215.335938 C 264.464844 237.613281 234.121094 258.894531 210.855469 271.949219 Z M 210.855469 271.949219 " fill-opacity="1" fill-rule="nonzero"/><path fill="#ffffff" d="M 238.332031 135.324219 C 302.207031 174.21875 322.714844 208.5 325.152344 237.773438 C 324.910156 253.1875 320.570312 263.398438 315.609375 272.40625 C 311.9375 279.054688 307.703125 285.003906 303.066406 290.445312 C 289.339844 308.246094 251.839844 343.0625 191.101562 361.507812 C 258.246094 372.121094 333.757812 328.832031 360.082031 263.988281 C 380.292969 214.183594 366.03125 152.292969 286.230469 100.316406 C 217.769531 55.738281 154.777344 60.75 146.898438 88.253906 C 182.121094 105.460938 215.546875 121.464844 238.332031 135.324219 Z M 238.332031 135.324219 " fill-opacity="1" fill-rule="nonzero"/></svg>