<svg xmlns="http://www.w3.org/2000/svg" xmlns:xlink="http://www.w3.org/1999/xlink" width="500" zoomAndPan="magnify" viewBox="0 0 375 374.999991" height="500" preserveAspectRatio="xMidYMid meet" version="1.2"><defs/><g id="02b7fccde0"><g style="fill:#ae1c60;fill-opacity:1;"><g transform="translate(19.078733, 211.355259)"><path style="stroke:none" d="M 5.25 -72.1875 L 31.59375 -72.1875 C 38.9375 -72.1875 44.882812 -70.289062 49.4375 -66.5 C 53.988281 -62.707031 56.265625 -57.191406 56.265625 -49.953125 C 56.265625 -42.722656 53.957031 -37.050781 49.34375 -32.9375 C 44.738281 -28.832031 38.820312 -26.78125 31.59375 -26.78125 L 21.703125 -26.78125 L 21.703125 0 L 5.25 0 Z M 21.703125 -39.90625 L 26.34375 -39.90625 C 30.007812 -39.90625 33.023438 -40.644531 35.390625 -42.125 C 37.753906 -43.613281 38.9375 -46.050781 38.9375 -49.4375 C 38.9375 -52.875 37.753906 -55.335938 35.390625 -56.828125 C 33.023438 -58.316406 30.007812 -59.0625 26.34375 -59.0625 L 21.703125 -59.0625 Z M 21.703125 -39.90625 "/></g></g><g style="fill:#ae1c60;fill-opacity:1;"><g transform="translate(67.810705, 211.355259)"><path style="stroke:none" d="M 5.25 0 L 5.25 -44.890625 L 20.734375 -44.890625 L 20.734375 -38.40625 L 20.90625 -38.40625 C 21.03125 -38.644531 21.222656 -38.9375 21.484375 -39.28125 C 21.742188 -39.632812 22.3125 -40.25 23.1875 -41.125 C 24.0625 -42 24.992188 -42.785156 25.984375 -43.484375 C 26.972656 -44.179688 28.253906 -44.804688 29.828125 -45.359375 C 31.410156 -45.921875 33.019531 -46.203125 34.65625 -46.203125 C 36.34375 -46.203125 38.003906 -45.96875 39.640625 -45.5 C 41.273438 -45.03125 42.46875 -44.5625 43.21875 -44.09375 L 44.453125 -43.40625 L 37.96875 -30.28125 C 36.050781 -31.90625 33.367188 -32.71875 29.921875 -32.71875 C 28.054688 -32.71875 26.453125 -32.3125 25.109375 -31.5 C 23.765625 -30.6875 22.816406 -29.695312 22.265625 -28.53125 C 21.710938 -27.363281 21.316406 -26.367188 21.078125 -25.546875 C 20.847656 -24.734375 20.734375 -24.09375 20.734375 -23.625 L 20.734375 0 Z M 5.25 0 "/></g></g><g style="fill:#ae1c60;fill-opacity:1;"><g transform="translate(101.843978, 211.355259)"><path style="stroke:none" d="M 9.484375 -5.328125 C 4.503906 -9.765625 2.015625 -15.453125 2.015625 -22.390625 C 2.015625 -29.335938 4.609375 -35.039062 9.796875 -39.5 C 14.992188 -43.96875 21.410156 -46.203125 29.046875 -46.203125 C 36.578125 -46.203125 42.921875 -43.953125 48.078125 -39.453125 C 53.242188 -34.960938 55.828125 -29.273438 55.828125 -22.390625 C 55.828125 -15.515625 53.300781 -9.84375 48.25 -5.375 C 43.207031 -0.914062 36.804688 1.3125 29.046875 1.3125 C 20.992188 1.3125 14.472656 -0.898438 9.484375 -5.328125 Z M 21.484375 -30 C 19.472656 -28.019531 18.46875 -25.484375 18.46875 -22.390625 C 18.46875 -19.304688 19.425781 -16.785156 21.34375 -14.828125 C 23.269531 -12.878906 25.8125 -11.90625 28.96875 -11.90625 C 32 -11.90625 34.488281 -12.894531 36.4375 -14.875 C 38.394531 -16.851562 39.375 -19.363281 39.375 -22.40625 C 39.375 -25.488281 38.367188 -28.019531 36.359375 -30 C 34.347656 -31.988281 31.882812 -32.984375 28.96875 -32.984375 C 25.988281 -32.984375 23.492188 -31.988281 21.484375 -30 Z M 21.484375 -30 "/></g></g><g style="fill:#ae1c60;fill-opacity:1;"><g transform="translate(150.138489, 211.355259)"><path style="stroke:none" d="M 24.765625 -46.203125 C 27.328125 -46.203125 29.863281 -45.910156 32.375 -45.328125 C 34.882812 -44.742188 36.75 -44.160156 37.96875 -43.578125 L 39.8125 -42.703125 L 34.734375 -32.546875 C 31.234375 -34.410156 27.910156 -35.34375 24.765625 -35.34375 C 23.015625 -35.34375 21.773438 -35.15625 21.046875 -34.78125 C 20.316406 -34.40625 19.953125 -33.691406 19.953125 -32.640625 C 19.953125 -32.398438 19.976562 -32.164062 20.03125 -31.9375 C 20.09375 -31.707031 20.210938 -31.488281 20.390625 -31.28125 C 20.566406 -31.070312 20.726562 -30.894531 20.875 -30.75 C 21.019531 -30.601562 21.265625 -30.441406 21.609375 -30.265625 C 21.960938 -30.097656 22.238281 -29.96875 22.4375 -29.875 C 22.644531 -29.789062 22.984375 -29.660156 23.453125 -29.484375 C 23.921875 -29.304688 24.269531 -29.175781 24.5 -29.09375 C 24.726562 -29.007812 25.117188 -28.878906 25.671875 -28.703125 C 26.234375 -28.523438 26.660156 -28.40625 26.953125 -28.34375 C 28.753906 -27.820312 30.328125 -27.238281 31.671875 -26.59375 C 33.015625 -25.957031 34.429688 -25.082031 35.921875 -23.96875 C 37.410156 -22.863281 38.5625 -21.460938 39.375 -19.765625 C 40.1875 -18.078125 40.59375 -16.15625 40.59375 -14 C 40.59375 -3.789062 33.507812 1.3125 19.34375 1.3125 C 16.132812 1.3125 13.082031 0.816406 10.1875 -0.171875 C 7.300781 -1.160156 5.21875 -2.15625 3.9375 -3.15625 L 2.015625 -4.71875 L 8.3125 -15.3125 C 8.78125 -14.90625 9.390625 -14.421875 10.140625 -13.859375 C 10.898438 -13.304688 12.269531 -12.550781 14.25 -11.59375 C 16.238281 -10.632812 17.960938 -10.15625 19.421875 -10.15625 C 22.628906 -10.15625 24.234375 -11.234375 24.234375 -13.390625 C 24.234375 -14.378906 23.820312 -15.148438 23 -15.703125 C 22.1875 -16.253906 20.800781 -16.878906 18.84375 -17.578125 C 16.894531 -18.285156 15.367188 -18.929688 14.265625 -19.515625 C 11.460938 -20.972656 9.242188 -22.617188 7.609375 -24.453125 C 5.972656 -26.296875 5.15625 -28.734375 5.15625 -31.765625 C 5.15625 -36.316406 6.921875 -39.859375 10.453125 -42.390625 C 13.984375 -44.929688 18.753906 -46.203125 24.765625 -46.203125 Z M 24.765625 -46.203125 "/></g></g><g style="fill:#ae1c60;fill-opacity:1;"><g transform="translate(183.64681, 211.355259)"><path style="stroke:none" d="M 51.453125 -39.328125 C 55.648438 -34.753906 57.75 -29.140625 57.75 -22.484375 C 57.75 -15.835938 55.648438 -10.207031 51.453125 -5.59375 C 47.253906 -0.988281 41.914062 1.3125 35.4375 1.3125 C 29.488281 1.3125 24.585938 -0.550781 20.734375 -4.28125 L 20.734375 22.75 L 5.25 22.75 L 5.25 -44.890625 L 20.5625 -44.890625 L 20.5625 -39.8125 L 20.734375 -39.8125 C 24.585938 -44.070312 29.488281 -46.203125 35.4375 -46.203125 C 41.914062 -46.203125 47.253906 -43.910156 51.453125 -39.328125 Z M 38.28125 -14.875 C 40.289062 -16.851562 41.296875 -19.390625 41.296875 -22.484375 C 41.296875 -25.578125 40.332031 -28.097656 38.40625 -30.046875 C 36.488281 -32.003906 33.953125 -32.984375 30.796875 -32.984375 C 27.765625 -32.984375 25.269531 -31.988281 23.3125 -30 C 21.363281 -28.019531 20.390625 -25.515625 20.390625 -22.484375 C 20.390625 -19.390625 21.394531 -16.851562 23.40625 -14.875 C 25.414062 -12.894531 27.878906 -11.90625 30.796875 -11.90625 C 33.773438 -11.90625 36.269531 -12.894531 38.28125 -14.875 Z M 38.28125 -14.875 "/></g></g><g style="fill:#ae1c60;fill-opacity:1;"><g transform="translate(233.866148, 211.355259)"><path style="stroke:none" d="M 5.25 0 L 5.25 -75.25 L 20.734375 -75.25 L 20.734375 0 Z M 5.25 0 "/></g></g><g style="fill:#ae1c60;fill-opacity:1;"><g transform="translate(250.313505, 211.355259)"><path style="stroke:none" d="M 8.3125 -5.546875 C 4.113281 -10.128906 2.015625 -15.742188 2.015625 -22.390625 C 2.015625 -29.046875 4.113281 -34.675781 8.3125 -39.28125 C 12.507812 -43.894531 17.847656 -46.203125 24.328125 -46.203125 C 30.273438 -46.203125 35.175781 -44.332031 39.03125 -40.59375 L 39.03125 -44.890625 L 54.515625 -44.890625 L 54.515625 0 L 39.203125 0 L 39.203125 -5.078125 L 39.03125 -5.078125 C 35.175781 -0.816406 30.273438 1.3125 24.328125 1.3125 C 17.847656 1.3125 12.507812 -0.972656 8.3125 -5.546875 Z M 21.484375 -30 C 19.472656 -28.019531 18.46875 -25.484375 18.46875 -22.390625 C 18.46875 -19.304688 19.425781 -16.785156 21.34375 -14.828125 C 23.269531 -12.878906 25.8125 -11.90625 28.96875 -11.90625 C 32 -11.90625 34.488281 -12.894531 36.4375 -14.875 C 38.394531 -16.851562 39.375 -19.363281 39.375 -22.40625 C 39.375 -25.488281 38.367188 -28.019531 36.359375 -30 C 34.347656 -31.988281 31.882812 -32.984375 28.96875 -32.984375 C 25.988281 -32.984375 23.492188 -31.988281 21.484375 -30 Z M 21.484375 -30 "/></g></g><g style="fill:#ae1c60;fill-opacity:1;"><g transform="translate(300.532831, 211.355259)"><path style="stroke:none" d="M 39.28125 -44.890625 L 57.140625 -44.890625 L 21.875 22.75 L 4.03125 22.75 L 19.515625 -7 L -1.75 -44.890625 L 16.09375 -44.890625 L 28.609375 -21.875 Z M 39.28125 -44.890625 "/></g></g><path style="fill:none;stroke-width:1;stroke-linecap:butt;stroke-linejoin:miter;stroke:#e5e5e5;stroke-opacity:1;stroke-miterlimit:4;" d="M -0.00285678 0.499769 L 23.558905 0.499529 " transform="matrix(0.416299,-0.623855,0.623855,0.416299,100.423781,187.079227)"/></g></svg>