<svg xmlns="http://www.w3.org/2000/svg" xmlns:xlink="http://www.w3.org/1999/xlink" width="500" zoomAndPan="magnify" viewBox="0 0 375 374.999991" height="500" preserveAspectRatio="xMidYMid meet" version="1.2"><defs/><g id="404f2d6b23"><g style="fill:#ae1c60;fill-opacity:1;"><g transform="translate(-3.089631, 205.499987)"><path style="stroke:none" d="M 3.9375 -54.03125 L 20.703125 -54.03125 C 25.765625 -54.03125 29.800781 -52.945312 32.8125 -50.78125 C 35.820312 -48.625 37.328125 -45.125 37.328125 -40.28125 C 37.328125 -34.863281 35.082031 -31 30.59375 -28.6875 C 38.269531 -27.332031 42.109375 -22.789062 42.109375 -15.0625 C 42.109375 -10.519531 40.535156 -6.875 37.390625 -4.125 C 34.253906 -1.375 29.9375 0 24.4375 0 L 3.9375 0 Z M 16.25 -32.875 L 17.21875 -32.875 C 19.976562 -32.875 22.03125 -33.351562 23.375 -34.3125 C 24.726562 -35.28125 25.40625 -36.851562 25.40625 -39.03125 C 25.40625 -42.707031 22.675781 -44.546875 17.21875 -44.546875 L 16.25 -44.546875 Z M 16.25 -9.5 L 20.109375 -9.5 C 26.128906 -9.5 29.140625 -11.507812 29.140625 -15.53125 C 29.140625 -17.925781 28.382812 -19.644531 26.875 -20.6875 C 25.375 -21.738281 23.117188 -22.265625 20.109375 -22.265625 L 16.25 -22.265625 Z M 16.25 -9.5 "/></g></g><g style="fill:#ae1c60;fill-opacity:1;"><g transform="translate(33.390607, 205.499987)"><path style="stroke:none" d="M 3.9375 0 L 3.9375 -33.59375 L 15.53125 -33.59375 L 15.53125 -28.75 L 15.65625 -28.75 C 15.738281 -28.925781 15.878906 -29.144531 16.078125 -29.40625 C 16.273438 -29.664062 16.703125 -30.125 17.359375 -30.78125 C 18.015625 -31.4375 18.710938 -32.023438 19.453125 -32.546875 C 20.191406 -33.078125 21.148438 -33.546875 22.328125 -33.953125 C 23.515625 -34.367188 24.71875 -34.578125 25.9375 -34.578125 C 27.207031 -34.578125 28.453125 -34.398438 29.671875 -34.046875 C 30.890625 -33.703125 31.785156 -33.359375 32.359375 -33.015625 L 33.28125 -32.484375 L 28.421875 -22.65625 C 26.984375 -23.882812 24.976562 -24.5 22.40625 -24.5 C 21.007812 -24.5 19.804688 -24.191406 18.796875 -23.578125 C 17.796875 -22.960938 17.085938 -22.21875 16.671875 -21.34375 C 16.253906 -20.476562 15.957031 -19.738281 15.78125 -19.125 C 15.613281 -18.507812 15.53125 -18.03125 15.53125 -17.6875 L 15.53125 0 Z M 3.9375 0 "/></g></g><g style="fill:#ae1c60;fill-opacity:1;"><g transform="translate(58.867488, 205.499987)"><path style="stroke:none" d="M 6.21875 -4.15625 C 3.070312 -7.582031 1.5 -11.785156 1.5 -16.765625 C 1.5 -21.742188 3.070312 -25.957031 6.21875 -29.40625 C 9.363281 -32.851562 13.359375 -34.578125 18.203125 -34.578125 C 22.660156 -34.578125 26.332031 -33.179688 29.21875 -30.390625 L 29.21875 -33.59375 L 40.8125 -33.59375 L 40.8125 0 L 29.34375 0 L 29.34375 -3.796875 L 29.21875 -3.796875 C 26.332031 -0.609375 22.660156 0.984375 18.203125 0.984375 C 13.359375 0.984375 9.363281 -0.726562 6.21875 -4.15625 Z M 16.078125 -22.453125 C 14.578125 -20.972656 13.828125 -19.078125 13.828125 -16.765625 C 13.828125 -14.453125 14.546875 -12.5625 15.984375 -11.09375 C 17.421875 -9.632812 19.320312 -8.90625 21.6875 -8.90625 C 23.957031 -8.90625 25.820312 -9.644531 27.28125 -11.125 C 28.738281 -12.613281 29.46875 -14.492188 29.46875 -16.765625 C 29.46875 -19.078125 28.710938 -20.972656 27.203125 -22.453125 C 25.703125 -23.941406 23.863281 -24.6875 21.6875 -24.6875 C 19.457031 -24.6875 17.585938 -23.941406 16.078125 -22.453125 Z M 16.078125 -22.453125 "/></g></g><g style="fill:#ae1c60;fill-opacity:1;"><g transform="translate(96.461155, 205.499987)"><path style="stroke:none" d="M 3.9375 0 L 3.9375 -33.59375 L 15.53125 -33.59375 L 15.53125 -30.0625 L 15.65625 -30.0625 C 18.664062 -33.070312 21.875 -34.578125 25.28125 -34.578125 C 26.9375 -34.578125 28.582031 -34.359375 30.21875 -33.921875 C 31.863281 -33.492188 33.4375 -32.816406 34.9375 -31.890625 C 36.445312 -30.972656 37.671875 -29.675781 38.609375 -28 C 39.546875 -26.320312 40.015625 -24.367188 40.015625 -22.140625 L 40.015625 0 L 28.421875 0 L 28.421875 -19 C 28.421875 -20.738281 27.863281 -22.265625 26.75 -23.578125 C 25.644531 -24.890625 24.195312 -25.546875 22.40625 -25.546875 C 20.65625 -25.546875 19.070312 -24.867188 17.65625 -23.515625 C 16.238281 -22.160156 15.53125 -20.65625 15.53125 -19 L 15.53125 0 Z M 3.9375 0 "/></g></g><g style="fill:#ae1c60;fill-opacity:1;"><g transform="translate(132.613908, 205.499987)"><path style="stroke:none" d="M 6.21875 -4.15625 C 3.070312 -7.582031 1.5 -11.785156 1.5 -16.765625 C 1.5 -21.742188 3.070312 -25.957031 6.21875 -29.40625 C 9.363281 -32.851562 13.359375 -34.578125 18.203125 -34.578125 C 22.660156 -34.578125 26.332031 -33.179688 29.21875 -30.390625 L 29.21875 -56.328125 L 40.8125 -56.328125 L 40.8125 0 L 29.34375 0 L 29.34375 -3.796875 L 29.21875 -3.796875 C 26.332031 -0.609375 22.660156 0.984375 18.203125 0.984375 C 13.359375 0.984375 9.363281 -0.726562 6.21875 -4.15625 Z M 16.078125 -22.453125 C 14.578125 -20.972656 13.828125 -19.078125 13.828125 -16.765625 C 13.828125 -14.453125 14.546875 -12.5625 15.984375 -11.09375 C 17.421875 -9.632812 19.320312 -8.90625 21.6875 -8.90625 C 23.957031 -8.90625 25.820312 -9.644531 27.28125 -11.125 C 28.738281 -12.613281 29.46875 -14.492188 29.46875 -16.765625 C 29.46875 -19.078125 28.710938 -20.972656 27.203125 -22.453125 C 25.703125 -23.941406 23.863281 -24.6875 21.6875 -24.6875 C 19.457031 -24.6875 17.585938 -23.941406 16.078125 -22.453125 Z M 16.078125 -22.453125 "/></g></g><g style="fill:#ae1c60;fill-opacity:1;"><g transform="translate(170.207576, 205.499987)"><path style="stroke:none" d="M 0 0.984375 L 33.59375 0.984375 L 33.59375 6.546875 L 0 6.546875 Z M 0 0.984375 "/></g></g><g style="fill:#ae1c60;fill-opacity:1;"><g transform="translate(196.666886, 205.499987)"><path style="stroke:none" d="M 16.25 -33.53125 L 16.25 0 L 3.9375 0 L 3.9375 -54.03125 L 16.25 -54.03125 L 37.734375 -20.5 L 37.859375 -20.5 L 37.859375 -54.03125 L 50.171875 -54.03125 L 50.171875 0 L 37.859375 0 L 16.375 -33.53125 Z M 16.25 -33.53125 "/></g></g><g style="fill:#ae1c60;fill-opacity:1;"><g transform="translate(243.626524, 205.499987)"><path style="stroke:none" d="M 6.21875 -4.15625 C 3.070312 -7.582031 1.5 -11.785156 1.5 -16.765625 C 1.5 -21.742188 3.070312 -25.957031 6.21875 -29.40625 C 9.363281 -32.851562 13.359375 -34.578125 18.203125 -34.578125 C 22.660156 -34.578125 26.332031 -33.179688 29.21875 -30.390625 L 29.21875 -33.59375 L 40.8125 -33.59375 L 40.8125 0 L 29.34375 0 L 29.34375 -3.796875 L 29.21875 -3.796875 C 26.332031 -0.609375 22.660156 0.984375 18.203125 0.984375 C 13.359375 0.984375 9.363281 -0.726562 6.21875 -4.15625 Z M 16.078125 -22.453125 C 14.578125 -20.972656 13.828125 -19.078125 13.828125 -16.765625 C 13.828125 -14.453125 14.546875 -12.5625 15.984375 -11.09375 C 17.421875 -9.632812 19.320312 -8.90625 21.6875 -8.90625 C 23.957031 -8.90625 25.820312 -9.644531 27.28125 -11.125 C 28.738281 -12.613281 29.46875 -14.492188 29.46875 -16.765625 C 29.46875 -19.078125 28.710938 -20.972656 27.203125 -22.453125 C 25.703125 -23.941406 23.863281 -24.6875 21.6875 -24.6875 C 19.457031 -24.6875 17.585938 -23.941406 16.078125 -22.453125 Z M 16.078125 -22.453125 "/></g></g><g style="fill:#ae1c60;fill-opacity:1;"><g transform="translate(281.22018, 205.499987)"><path style="stroke:none" d="M 3.9375 0 L 3.9375 -33.59375 L 15.53125 -33.59375 L 15.53125 -30.0625 L 15.65625 -30.0625 C 18.664062 -33.070312 21.875 -34.578125 25.28125 -34.578125 C 27.726562 -34.578125 30.019531 -34.078125 32.15625 -33.078125 C 34.300781 -32.078125 35.914062 -30.523438 37 -28.421875 C 40.40625 -32.523438 44.117188 -34.578125 48.140625 -34.578125 C 51.722656 -34.578125 54.800781 -33.570312 57.375 -31.5625 C 59.957031 -29.5625 61.25 -26.421875 61.25 -22.140625 L 61.25 0 L 49.65625 0 L 49.65625 -19 C 49.65625 -20.789062 49.160156 -22.285156 48.171875 -23.484375 C 47.191406 -24.679688 45.71875 -25.28125 43.75 -25.28125 C 42.050781 -25.28125 40.753906 -24.765625 39.859375 -23.734375 C 38.960938 -22.710938 38.472656 -21.484375 38.390625 -20.046875 L 38.390625 0 L 26.796875 0 L 26.796875 -19 C 26.796875 -20.789062 26.300781 -22.285156 25.3125 -23.484375 C 24.332031 -24.679688 22.859375 -25.28125 20.890625 -25.28125 C 19.097656 -25.28125 17.753906 -24.722656 16.859375 -23.609375 C 15.972656 -22.492188 15.53125 -21.175781 15.53125 -19.65625 L 15.53125 0 Z M 3.9375 0 "/></g></g><g style="fill:#ae1c60;fill-opacity:1;"><g transform="translate(338.593688, 205.499987)"><path style="stroke:none" d="M 37.921875 -15.203125 L 13.5625 -15.203125 C 13.5625 -12.835938 14.320312 -11.085938 15.84375 -9.953125 C 17.375 -8.816406 19.035156 -8.25 20.828125 -8.25 C 22.703125 -8.25 24.1875 -8.5 25.28125 -9 C 26.375 -9.507812 27.617188 -10.503906 29.015625 -11.984375 L 37.40625 -7.796875 C 33.90625 -1.941406 28.097656 0.984375 19.984375 0.984375 C 14.910156 0.984375 10.5625 -0.75 6.9375 -4.21875 C 3.3125 -7.695312 1.5 -11.878906 1.5 -16.765625 C 1.5 -21.660156 3.3125 -25.851562 6.9375 -29.34375 C 10.5625 -32.832031 14.910156 -34.578125 19.984375 -34.578125 C 25.304688 -34.578125 29.632812 -33.035156 32.96875 -29.953125 C 36.3125 -26.878906 37.984375 -22.484375 37.984375 -16.765625 C 37.984375 -15.984375 37.960938 -15.460938 37.921875 -15.203125 Z M 13.890625 -21.609375 L 26.65625 -21.609375 C 26.394531 -23.359375 25.707031 -24.703125 24.59375 -25.640625 C 23.476562 -26.578125 22.050781 -27.046875 20.3125 -27.046875 C 18.382812 -27.046875 16.851562 -26.539062 15.71875 -25.53125 C 14.582031 -24.53125 13.972656 -23.222656 13.890625 -21.609375 Z M 13.890625 -21.609375 "/></g></g></g></svg>