<?xml version="1.0" encoding="utf-8" ?>
<svg baseProfile="tiny" height="48" version="1.2" viewBox="0,0,32,48" width="32" xmlns="http://www.w3.org/2000/svg" xmlns:ev="http://www.w3.org/2001/xml-events" xmlns:xlink="http://www.w3.org/1999/xlink"><defs /><rect fill="#3d3731" height="1" width="1" x="5" y="0" /><rect fill="#3d3731" height="1" width="1" x="6" y="0" /><rect fill="#3d3731" height="1" width="1" x="7" y="0" /><rect fill="#3d3731" height="1" width="1" x="8" y="0" /><rect fill="#3d3731" height="1" width="1" x="9" y="0" /><rect fill="#3d3731" height="1" width="1" x="10" y="0" /><rect fill="#3d3731" height="1" width="1" x="11" y="0" /><rect fill="#3d3731" height="1" width="1" x="12" y="0" /><rect fill="#3d3731" height="1" width="1" x="13" y="0" /><rect fill="#3d3731" height="1" width="1" x="14" y="0" /><rect fill="#3d3731" height="1" width="1" x="15" y="0" /><rect fill="#3d3731" height="1" width="1" x="16" y="0" /><rect fill="#3d3731" height="1" width="1" x="17" y="0" /><rect fill="#3d3731" height="1" width="1" x="18" y="0" /><rect fill="#3d3731" height="1" width="1" x="19" y="0" /><rect fill="#3d3731" height="1" width="1" x="20" y="0" /><rect fill="#3d3731" height="1" width="1" x="21" y="0" /><rect fill="#3d3731" height="1" width="1" x="22" y="0" /><rect fill="#3d3731" height="1" width="1" x="23" y="0" /><rect fill="#3d3731" height="1" width="1" x="24" y="0" /><rect fill="#3d3731" height="1" width="1" x="25" y="0" /><rect fill="#3d3731" height="1" width="1" x="26" y="0" /><rect fill="#3d3731" height="1" width="1" x="4" y="1" /><rect fill="#3d3731" height="1" width="1" x="5" y="1" /><rect fill="#3d3731" height="1" width="1" x="6" y="1" /><rect fill="#3d3731" height="1" width="1" x="7" y="1" /><rect fill="#3d3731" height="1" width="1" x="8" y="1" /><rect fill="#3d3731" height="1" width="1" x="9" y="1" /><rect fill="#3d3731" height="1" width="1" x="10" y="1" /><rect fill="#3d3731" height="1" width="1" x="11" y="1" /><rect fill="#3d3731" height="1" width="1" x="12" y="1" /><rect fill="#3d3731" height="1" width="1" x="13" y="1" /><rect fill="#3d3731" height="1" width="1" x="14" y="1" /><rect fill="#3d3731" height="1" width="1" x="15" y="1" /><rect fill="#3d3731" height="1" width="1" x="16" y="1" /><rect fill="#3d3731" height="1" width="1" x="17" y="1" /><rect fill="#3d3731" height="1" width="1" x="18" y="1" /><rect fill="#3d3731" height="1" width="1" x="19" y="1" /><rect fill="#3d3731" height="1" width="1" x="20" y="1" /><rect fill="#3d3731" height="1" width="1" x="21" y="1" /><rect fill="#3d3731" height="1" width="1" x="22" y="1" /><rect fill="#3d3731" height="1" width="1" x="23" y="1" /><rect fill="#3d3731" height="1" width="1" x="24" y="1" /><rect fill="#3d3731" height="1" width="1" x="25" y="1" /><rect fill="#3d3731" height="1" width="1" x="26" y="1" /><rect fill="#3d3731" height="1" width="1" x="27" y="1" /><rect fill="#3d3731" height="1" width="1" x="2" y="2" /><rect fill="#3d3731" height="1" width="1" x="3" y="2" /><rect fill="#3d3731" height="1" width="1" x="4" y="2" /><rect fill="#3d3731" height="1" width="1" x="27" y="2" /><rect fill="#3d3731" height="1" width="1" x="28" y="2" /><rect fill="#3d3731" height="1" width="1" x="29" y="2" /><rect fill="#3d3731" height="1" width="1" x="2" y="3" /><rect fill="#3d3731" height="1" width="1" x="3" y="3" /><rect fill="#3d3731" height="1" width="1" x="28" y="3" /><rect fill="#3d3731" height="1" width="1" x="29" y="3" /><rect fill="#3d3731" height="1" width="1" x="1" y="4" /><rect fill="#3d3731" height="1" width="1" x="2" y="4" /><rect fill="#3d3731" height="1" width="1" x="5" y="4" /><rect fill="#3d3731" height="1" width="1" x="6" y="4" /><rect fill="#3d3731" height="1" width="1" x="7" y="4" /><rect fill="#3d3731" height="1" width="1" x="8" y="4" /><rect fill="#3d3731" height="1" width="1" x="9" y="4" /><rect fill="#3d3731" height="1" width="1" x="10" y="4" /><rect fill="#3d3731" height="1" width="1" x="11" y="4" /><rect fill="#3d3731" height="1" width="1" x="12" y="4" /><rect fill="#3d3731" height="1" width="1" x="13" y="4" /><rect fill="#3d3731" height="1" width="1" x="14" y="4" /><rect fill="#3d3731" height="1" width="1" x="15" y="4" /><rect fill="#3d3731" height="1" width="1" x="16" y="4" /><rect fill="#3d3731" height="1" width="1" x="17" y="4" /><rect fill="#3d3731" height="1" width="1" x="18" y="4" /><rect fill="#3d3731" height="1" width="1" x="19" y="4" /><rect fill="#3d3731" height="1" width="1" x="20" y="4" /><rect fill="#3d3731" height="1" width="1" x="21" y="4" /><rect fill="#3d3731" height="1" width="1" x="22" y="4" /><rect fill="#3d3731" height="1" width="1" x="23" y="4" /><rect fill="#3d3731" height="1" width="1" x="24" y="4" /><rect fill="#3d3731" height="1" width="1" x="25" y="4" /><rect fill="#3d3731" height="1" width="1" x="29" y="4" /><rect fill="#3d3731" height="1" width="1" x="30" y="4" /><rect fill="#3d3731" height="1" width="1" x="0" y="5" /><rect fill="#3d3731" height="1" width="1" x="1" y="5" /><rect fill="#3d3731" height="1" width="1" x="5" y="5" /><rect fill="#3d3731" height="1" width="1" x="6" y="5" /><rect fill="#3d3731" height="1" width="1" x="7" y="5" /><rect fill="#3d3731" height="1" width="1" x="8" y="5" /><rect fill="#3d3731" height="1" width="1" x="9" y="5" /><rect fill="#3d3731" height="1" width="1" x="10" y="5" /><rect fill="#3d3731" height="1" width="1" x="11" y="5" /><rect fill="#3d3731" height="1" width="1" x="12" y="5" /><rect fill="#3d3731" height="1" width="1" x="13" y="5" /><rect fill="#3d3731" height="1" width="1" x="14" y="5" /><rect fill="#3d3731" height="1" width="1" x="15" y="5" /><rect fill="#3d3731" height="1" width="1" x="16" y="5" /><rect fill="#3d3731" height="1" width="1" x="17" y="5" /><rect fill="#3d3731" height="1" width="1" x="18" y="5" /><rect fill="#3d3731" height="1" width="1" x="19" y="5" /><rect fill="#3d3731" height="1" width="1" x="20" y="5" /><rect fill="#3d3731" height="1" width="1" x="21" y="5" /><rect fill="#3d3731" height="1" width="1" x="22" y="5" /><rect fill="#3d3731" height="1" width="1" x="23" y="5" /><rect fill="#3d3731" height="1" width="1" x="24" y="5" /><rect fill="#3d3731" height="1" width="1" x="25" y="5" /><rect fill="#3d3731" height="1" width="1" x="26" y="5" /><rect fill="#3d3731" height="1" width="1" x="27" y="5" /><rect fill="#3d3731" height="1" width="1" x="30" y="5" /><rect fill="#3d3731" height="1" width="1" x="31" y="5" /><rect fill="#3d3731" height="1" width="1" x="0" y="6" /><rect fill="#3d3731" height="1" width="1" x="1" y="6" /><rect fill="#3d3731" height="1" width="1" x="4" y="6" /><rect fill="#3d3731" height="1" width="1" x="5" y="6" /><rect fill="#3d3731" height="1" width="1" x="6" y="6" /><rect fill="#3d3731" height="1" width="1" x="7" y="6" /><rect fill="#3d3731" height="1" width="1" x="8" y="6" /><rect fill="#3d3731" height="1" width="1" x="9" y="6" /><rect fill="#3d3731" height="1" width="1" x="10" y="6" /><rect fill="#3d3731" height="1" width="1" x="11" y="6" /><rect fill="#3d3731" height="1" width="1" x="12" y="6" /><rect fill="#3d3731" height="1" width="1" x="13" y="6" /><rect fill="#3d3731" height="1" width="1" x="14" y="6" /><rect fill="#3d3731" height="1" width="1" x="15" y="6" /><rect fill="#3d3731" height="1" width="1" x="16" y="6" /><rect fill="#3d3731" height="1" width="1" x="17" y="6" /><rect fill="#3d3731" height="1" width="1" x="18" y="6" /><rect fill="#3d3731" height="1" width="1" x="19" y="6" /><rect fill="#3d3731" height="1" width="1" x="20" y="6" /><rect fill="#3d3731" height="1" width="1" x="21" y="6" /><rect fill="#3d3731" height="1" width="1" x="22" y="6" /><rect fill="#3d3731" height="1" width="1" x="23" y="6" /><rect fill="#3d3731" height="1" width="1" x="24" y="6" /><rect fill="#3d3731" height="1" width="1" x="25" y="6" /><rect fill="#3d3731" height="1" width="1" x="26" y="6" /><rect fill="#3d3731" height="1" width="1" x="27" y="6" /><rect fill="#3d3731" height="1" width="1" x="30" y="6" /><rect fill="#3d3731" height="1" width="1" x="31" y="6" /><rect fill="#3d3731" height="1" width="1" x="0" y="7" /><rect fill="#3d3731" height="1" width="1" x="1" y="7" /><rect fill="#3d3731" height="1" width="1" x="4" y="7" /><rect fill="#3d3731" height="1" width="1" x="5" y="7" /><rect fill="#3d3731" height="1" width="1" x="6" y="7" /><rect fill="#3d3731" height="1" width="1" x="7" y="7" /><rect fill="#3d3731" height="1" width="1" x="8" y="7" /><rect fill="#3d3731" height="1" width="1" x="9" y="7" /><rect fill="#3d3731" height="1" width="1" x="10" y="7" /><rect fill="#3d3731" height="1" width="1" x="11" y="7" /><rect fill="#3d3731" height="1" width="1" x="12" y="7" /><rect fill="#3d3731" height="1" width="1" x="13" y="7" /><rect fill="#3d3731" height="1" width="1" x="14" y="7" /><rect fill="#3d3731" height="1" width="1" x="15" y="7" /><rect fill="#3d3731" height="1" width="1" x="16" y="7" /><rect fill="#3d3731" height="1" width="1" x="17" y="7" /><rect fill="#3d3731" height="1" width="1" x="18" y="7" /><rect fill="#3d3731" height="1" width="1" x="19" y="7" /><rect fill="#3d3731" height="1" width="1" x="20" y="7" /><rect fill="#3d3731" height="1" width="1" x="21" y="7" /><rect fill="#3d3731" height="1" width="1" x="22" y="7" /><rect fill="#3d3731" height="1" width="1" x="23" y="7" /><rect fill="#3d3731" height="1" width="1" x="24" y="7" /><rect fill="#3d3731" height="1" width="1" x="25" y="7" /><rect fill="#3d3731" height="1" width="1" x="26" y="7" /><rect fill="#3d3731" height="1" width="1" x="27" y="7" /><rect fill="#3d3731" height="1" width="1" x="30" y="7" /><rect fill="#3d3731" height="1" width="1" x="31" y="7" /><rect fill="#3d3731" height="1" width="1" x="0" y="8" /><rect fill="#3d3731" height="1" width="1" x="1" y="8" /><rect fill="#3d3731" height="1" width="1" x="4" y="8" /><rect fill="#3d3731" height="1" width="1" x="5" y="8" /><rect fill="#3d3731" height="1" width="1" x="6" y="8" /><rect fill="#3d3731" height="1" width="1" x="7" y="8" /><rect fill="#3d3731" height="1" width="1" x="8" y="8" /><rect fill="#3d3731" height="1" width="1" x="9" y="8" /><rect fill="#3d3731" height="1" width="1" x="10" y="8" /><rect fill="#3d3731" height="1" width="1" x="11" y="8" /><rect fill="#3d3731" height="1" width="1" x="12" y="8" /><rect fill="#3d3731" height="1" width="1" x="13" y="8" /><rect fill="#3d3731" height="1" width="1" x="14" y="8" /><rect fill="#3d3731" height="1" width="1" x="15" y="8" /><rect fill="#3d3731" height="1" width="1" x="16" y="8" /><rect fill="#3d3731" height="1" width="1" x="17" y="8" /><rect fill="#3d3731" height="1" width="1" x="18" y="8" /><rect fill="#3d3731" height="1" width="1" x="19" y="8" /><rect fill="#3d3731" height="1" width="1" x="20" y="8" /><rect fill="#3d3731" height="1" width="1" x="21" y="8" /><rect fill="#3d3731" height="1" width="1" x="22" y="8" /><rect fill="#3d3731" height="1" width="1" x="23" y="8" /><rect fill="#3d3731" height="1" width="1" x="24" y="8" /><rect fill="#3d3731" height="1" width="1" x="25" y="8" /><rect fill="#3d3731" height="1" width="1" x="26" y="8" /><rect fill="#3d3731" height="1" width="1" x="27" y="8" /><rect fill="#3d3731" height="1" width="1" x="30" y="8" /><rect fill="#3d3731" height="1" width="1" x="31" y="8" /><rect fill="#3d3731" height="1" width="1" x="0" y="9" /><rect fill="#3d3731" height="1" width="1" x="1" y="9" /><rect fill="#3d3731" height="1" width="1" x="4" y="9" /><rect fill="#3d3731" height="1" width="1" x="5" y="9" /><rect fill="#3d3731" height="1" width="1" x="6" y="9" /><rect fill="#3d3731" height="1" width="1" x="7" y="9" /><rect fill="#3d3731" height="1" width="1" x="8" y="9" /><rect fill="#3d3731" height="1" width="1" x="9" y="9" /><rect fill="#3d3731" height="1" width="1" x="10" y="9" /><rect fill="#3d3731" height="1" width="1" x="11" y="9" /><rect fill="#3d3731" height="1" width="1" x="12" y="9" /><rect fill="#3d3731" height="1" width="1" x="13" y="9" /><rect fill="#3d3731" height="1" width="1" x="14" y="9" /><rect fill="#3d3731" height="1" width="1" x="15" y="9" /><rect fill="#3d3731" height="1" width="1" x="16" y="9" /><rect fill="#3d3731" height="1" width="1" x="17" y="9" /><rect fill="#3d3731" height="1" width="1" x="18" y="9" /><rect fill="#3d3731" height="1" width="1" x="19" y="9" /><rect fill="#3d3731" height="1" width="1" x="20" y="9" /><rect fill="#3d3731" height="1" width="1" x="21" y="9" /><rect fill="#3d3731" height="1" width="1" x="22" y="9" /><rect fill="#3d3731" height="1" width="1" x="23" y="9" /><rect fill="#3d3731" height="1" width="1" x="24" y="9" /><rect fill="#3d3731" height="1" width="1" x="25" y="9" /><rect fill="#3d3731" height="1" width="1" x="26" y="9" /><rect fill="#3d3731" height="1" width="1" x="27" y="9" /><rect fill="#3d3731" height="1" width="1" x="30" y="9" /><rect fill="#3d3731" height="1" width="1" x="31" y="9" /><rect fill="#3d3731" height="1" width="1" x="0" y="10" /><rect fill="#3d3731" height="1" width="1" x="1" y="10" /><rect fill="#3d3731" height="1" width="1" x="4" y="10" /><rect fill="#3d3731" height="1" width="1" x="5" y="10" /><rect fill="#3d3731" height="1" width="1" x="6" y="10" /><rect fill="#3d3731" height="1" width="1" x="7" y="10" /><rect fill="#3d3731" height="1" width="1" x="8" y="10" /><rect fill="#3d3731" height="1" width="1" x="9" y="10" /><rect fill="#3d3731" height="1" width="1" x="10" y="10" /><rect fill="#3d3731" height="1" width="1" x="11" y="10" /><rect fill="#3d3731" height="1" width="1" x="12" y="10" /><rect fill="#3d3731" height="1" width="1" x="13" y="10" /><rect fill="#3d3731" height="1" width="1" x="14" y="10" /><rect fill="#3d3731" height="1" width="1" x="15" y="10" /><rect fill="#3d3731" height="1" width="1" x="16" y="10" /><rect fill="#3d3731" height="1" width="1" x="17" y="10" /><rect fill="#3d3731" height="1" width="1" x="18" y="10" /><rect fill="#3d3731" height="1" width="1" x="19" y="10" /><rect fill="#3d3731" height="1" width="1" x="20" y="10" /><rect fill="#3d3731" height="1" width="1" x="21" y="10" /><rect fill="#3d3731" height="1" width="1" x="22" y="10" /><rect fill="#3d3731" height="1" width="1" x="23" y="10" /><rect fill="#3d3731" height="1" width="1" x="24" y="10" /><rect fill="#3d3731" height="1" width="1" x="25" y="10" /><rect fill="#3d3731" height="1" width="1" x="26" y="10" /><rect fill="#3d3731" height="1" width="1" x="27" y="10" /><rect fill="#3d3731" height="1" width="1" x="30" y="10" /><rect fill="#3d3731" height="1" width="1" x="31" y="10" /><rect fill="#3d3731" height="1" width="1" x="0" y="11" /><rect fill="#3d3731" height="1" width="1" x="1" y="11" /><rect fill="#3d3731" height="1" width="1" x="4" y="11" /><rect fill="#3d3731" height="1" width="1" x="5" y="11" /><rect fill="#3d3731" height="1" width="1" x="6" y="11" /><rect fill="#3d3731" height="1" width="1" x="7" y="11" /><rect fill="#3d3731" height="1" width="1" x="8" y="11" /><rect fill="#3d3731" height="1" width="1" x="9" y="11" /><rect fill="#3d3731" height="1" width="1" x="10" y="11" /><rect fill="#3d3731" height="1" width="1" x="11" y="11" /><rect fill="#3d3731" height="1" width="1" x="12" y="11" /><rect fill="#3d3731" height="1" width="1" x="13" y="11" /><rect fill="#3d3731" height="1" width="1" x="14" y="11" /><rect fill="#3d3731" height="1" width="1" x="15" y="11" /><rect fill="#3d3731" height="1" width="1" x="16" y="11" /><rect fill="#3d3731" height="1" width="1" x="17" y="11" /><rect fill="#3d3731" height="1" width="1" x="18" y="11" /><rect fill="#3d3731" height="1" width="1" x="19" y="11" /><rect fill="#3d3731" height="1" width="1" x="20" y="11" /><rect fill="#3d3731" height="1" width="1" x="21" y="11" /><rect fill="#3d3731" height="1" width="1" x="22" y="11" /><rect fill="#3d3731" height="1" width="1" x="23" y="11" /><rect fill="#3d3731" height="1" width="1" x="24" y="11" /><rect fill="#3d3731" height="1" width="1" x="25" y="11" /><rect fill="#3d3731" height="1" width="1" x="26" y="11" /><rect fill="#3d3731" height="1" width="1" x="27" y="11" /><rect fill="#3d3731" height="1" width="1" x="30" y="11" /><rect fill="#3d3731" height="1" width="1" x="31" y="11" /><rect fill="#3d3731" height="1" width="1" x="0" y="12" /><rect fill="#3d3731" height="1" width="1" x="1" y="12" /><rect fill="#3d3731" height="1" width="1" x="4" y="12" /><rect fill="#3d3731" height="1" width="1" x="5" y="12" /><rect fill="#3d3731" height="1" width="1" x="6" y="12" /><rect fill="#3d3731" height="1" width="1" x="7" y="12" /><rect fill="#3d3731" height="1" width="1" x="8" y="12" /><rect fill="#3d3731" height="1" width="1" x="9" y="12" /><rect fill="#3d3731" height="1" width="1" x="10" y="12" /><rect fill="#3d3731" height="1" width="1" x="11" y="12" /><rect fill="#3d3731" height="1" width="1" x="12" y="12" /><rect fill="#3d3731" height="1" width="1" x="13" y="12" /><rect fill="#3d3731" height="1" width="1" x="14" y="12" /><rect fill="#3d3731" height="1" width="1" x="15" y="12" /><rect fill="#3d3731" height="1" width="1" x="16" y="12" /><rect fill="#3d3731" height="1" width="1" x="17" y="12" /><rect fill="#3d3731" height="1" width="1" x="18" y="12" /><rect fill="#3d3731" height="1" width="1" x="19" y="12" /><rect fill="#3d3731" height="1" width="1" x="20" y="12" /><rect fill="#3d3731" height="1" width="1" x="21" y="12" /><rect fill="#3d3731" height="1" width="1" x="22" y="12" /><rect fill="#3d3731" height="1" width="1" x="23" y="12" /><rect fill="#3d3731" height="1" width="1" x="24" y="12" /><rect fill="#3d3731" height="1" width="1" x="25" y="12" /><rect fill="#3d3731" height="1" width="1" x="26" y="12" /><rect fill="#3d3731" height="1" width="1" x="27" y="12" /><rect fill="#3d3731" height="1" width="1" x="30" y="12" /><rect fill="#3d3731" height="1" width="1" x="31" y="12" /><rect fill="#3d3731" height="1" width="1" x="0" y="13" /><rect fill="#3d3731" height="1" width="1" x="1" y="13" /><rect fill="#3d3731" height="1" width="1" x="4" y="13" /><rect fill="#3d3731" height="1" width="1" x="5" y="13" /><rect fill="#3d3731" height="1" width="1" x="6" y="13" /><rect fill="#3d3731" height="1" width="1" x="7" y="13" /><rect fill="#3d3731" height="1" width="1" x="8" y="13" /><rect fill="#3d3731" height="1" width="1" x="9" y="13" /><rect fill="#3d3731" height="1" width="1" x="10" y="13" /><rect fill="#3d3731" height="1" width="1" x="11" y="13" /><rect fill="#3d3731" height="1" width="1" x="12" y="13" /><rect fill="#3d3731" height="1" width="1" x="13" y="13" /><rect fill="#3d3731" height="1" width="1" x="14" y="13" /><rect fill="#3d3731" height="1" width="1" x="15" y="13" /><rect fill="#3d3731" height="1" width="1" x="16" y="13" /><rect fill="#3d3731" height="1" width="1" x="17" y="13" /><rect fill="#3d3731" height="1" width="1" x="18" y="13" /><rect fill="#3d3731" height="1" width="1" x="19" y="13" /><rect fill="#3d3731" height="1" width="1" x="20" y="13" /><rect fill="#3d3731" height="1" width="1" x="21" y="13" /><rect fill="#3d3731" height="1" width="1" x="22" y="13" /><rect fill="#3d3731" height="1" width="1" x="23" y="13" /><rect fill="#3d3731" height="1" width="1" x="24" y="13" /><rect fill="#3d3731" height="1" width="1" x="25" y="13" /><rect fill="#3d3731" height="1" width="1" x="26" y="13" /><rect fill="#3d3731" height="1" width="1" x="27" y="13" /><rect fill="#3d3731" height="1" width="1" x="30" y="13" /><rect fill="#3d3731" height="1" width="1" x="31" y="13" /><rect fill="#3d3731" height="1" width="1" x="0" y="14" /><rect fill="#3d3731" height="1" width="1" x="1" y="14" /><rect fill="#3d3731" height="1" width="1" x="4" y="14" /><rect fill="#3d3731" height="1" width="1" x="5" y="14" /><rect fill="#3d3731" height="1" width="1" x="6" y="14" /><rect fill="#3d3731" height="1" width="1" x="7" y="14" /><rect fill="#3d3731" height="1" width="1" x="8" y="14" /><rect fill="#3d3731" height="1" width="1" x="9" y="14" /><rect fill="#3d3731" height="1" width="1" x="10" y="14" /><rect fill="#3d3731" height="1" width="1" x="11" y="14" /><rect fill="#3d3731" height="1" width="1" x="12" y="14" /><rect fill="#3d3731" height="1" width="1" x="13" y="14" /><rect fill="#3d3731" height="1" width="1" x="14" y="14" /><rect fill="#3d3731" height="1" width="1" x="15" y="14" /><rect fill="#3d3731" height="1" width="1" x="16" y="14" /><rect fill="#3d3731" height="1" width="1" x="17" y="14" /><rect fill="#3d3731" height="1" width="1" x="18" y="14" /><rect fill="#3d3731" height="1" width="1" x="19" y="14" /><rect fill="#3d3731" height="1" width="1" x="20" y="14" /><rect fill="#3d3731" height="1" width="1" x="21" y="14" /><rect fill="#3d3731" height="1" width="1" x="22" y="14" /><rect fill="#3d3731" height="1" width="1" x="23" y="14" /><rect fill="#3d3731" height="1" width="1" x="24" y="14" /><rect fill="#3d3731" height="1" width="1" x="25" y="14" /><rect fill="#3d3731" height="1" width="1" x="26" y="14" /><rect fill="#3d3731" height="1" width="1" x="27" y="14" /><rect fill="#3d3731" height="1" width="1" x="30" y="14" /><rect fill="#3d3731" height="1" width="1" x="31" y="14" /><rect fill="#3d3731" height="1" width="1" x="0" y="15" /><rect fill="#3d3731" height="1" width="1" x="1" y="15" /><rect fill="#3d3731" height="1" width="1" x="4" y="15" /><rect fill="#3d3731" height="1" width="1" x="5" y="15" /><rect fill="#3d3731" height="1" width="1" x="6" y="15" /><rect fill="#3d3731" height="1" width="1" x="7" y="15" /><rect fill="#3d3731" height="1" width="1" x="8" y="15" /><rect fill="#3d3731" height="1" width="1" x="9" y="15" /><rect fill="#3d3731" height="1" width="1" x="10" y="15" /><rect fill="#3d3731" height="1" width="1" x="11" y="15" /><rect fill="#3d3731" height="1" width="1" x="12" y="15" /><rect fill="#3d3731" height="1" width="1" x="13" y="15" /><rect fill="#3d3731" height="1" width="1" x="14" y="15" /><rect fill="#3d3731" height="1" width="1" x="15" y="15" /><rect fill="#3d3731" height="1" width="1" x="16" y="15" /><rect fill="#3d3731" height="1" width="1" x="17" y="15" /><rect fill="#3d3731" height="1" width="1" x="18" y="15" /><rect fill="#3d3731" height="1" width="1" x="19" y="15" /><rect fill="#3d3731" height="1" width="1" x="20" y="15" /><rect fill="#3d3731" height="1" width="1" x="21" y="15" /><rect fill="#3d3731" height="1" width="1" x="22" y="15" /><rect fill="#3d3731" height="1" width="1" x="23" y="15" /><rect fill="#3d3731" height="1" width="1" x="24" y="15" /><rect fill="#3d3731" height="1" width="1" x="25" y="15" /><rect fill="#3d3731" height="1" width="1" x="26" y="15" /><rect fill="#3d3731" height="1" width="1" x="27" y="15" /><rect fill="#3d3731" height="1" width="1" x="30" y="15" /><rect fill="#3d3731" height="1" width="1" x="31" y="15" /><rect fill="#3d3731" height="1" width="1" x="0" y="16" /><rect fill="#3d3731" height="1" width="1" x="1" y="16" /><rect fill="#3d3731" height="1" width="1" x="4" y="16" /><rect fill="#3d3731" height="1" width="1" x="5" y="16" /><rect fill="#3d3731" height="1" width="1" x="6" y="16" /><rect fill="#3d3731" height="1" width="1" x="7" y="16" /><rect fill="#3d3731" height="1" width="1" x="8" y="16" /><rect fill="#3d3731" height="1" width="1" x="9" y="16" /><rect fill="#3d3731" height="1" width="1" x="10" y="16" /><rect fill="#3d3731" height="1" width="1" x="11" y="16" /><rect fill="#3d3731" height="1" width="1" x="12" y="16" /><rect fill="#3d3731" height="1" width="1" x="13" y="16" /><rect fill="#3d3731" height="1" width="1" x="14" y="16" /><rect fill="#3d3731" height="1" width="1" x="15" y="16" /><rect fill="#3d3731" height="1" width="1" x="16" y="16" /><rect fill="#3d3731" height="1" width="1" x="17" y="16" /><rect fill="#3d3731" height="1" width="1" x="18" y="16" /><rect fill="#3d3731" height="1" width="1" x="19" y="16" /><rect fill="#3d3731" height="1" width="1" x="20" y="16" /><rect fill="#3d3731" height="1" width="1" x="21" y="16" /><rect fill="#3d3731" height="1" width="1" x="22" y="16" /><rect fill="#3d3731" height="1" width="1" x="23" y="16" /><rect fill="#3d3731" height="1" width="1" x="24" y="16" /><rect fill="#3d3731" height="1" width="1" x="25" y="16" /><rect fill="#3d3731" height="1" width="1" x="26" y="16" /><rect fill="#3d3731" height="1" width="1" x="27" y="16" /><rect fill="#3d3731" height="1" width="1" x="30" y="16" /><rect fill="#3d3731" height="1" width="1" x="31" y="16" /><rect fill="#3d3731" height="1" width="1" x="0" y="17" /><rect fill="#3d3731" height="1" width="1" x="1" y="17" /><rect fill="#3d3731" height="1" width="1" x="4" y="17" /><rect fill="#3d3731" height="1" width="1" x="5" y="17" /><rect fill="#3d3731" height="1" width="1" x="6" y="17" /><rect fill="#3d3731" height="1" width="1" x="7" y="17" /><rect fill="#3d3731" height="1" width="1" x="8" y="17" /><rect fill="#3d3731" height="1" width="1" x="9" y="17" /><rect fill="#3d3731" height="1" width="1" x="10" y="17" /><rect fill="#3d3731" height="1" width="1" x="11" y="17" /><rect fill="#3d3731" height="1" width="1" x="12" y="17" /><rect fill="#3d3731" height="1" width="1" x="13" y="17" /><rect fill="#3d3731" height="1" width="1" x="14" y="17" /><rect fill="#3d3731" height="1" width="1" x="15" y="17" /><rect fill="#3d3731" height="1" width="1" x="16" y="17" /><rect fill="#3d3731" height="1" width="1" x="17" y="17" /><rect fill="#3d3731" height="1" width="1" x="18" y="17" /><rect fill="#3d3731" height="1" width="1" x="19" y="17" /><rect fill="#3d3731" height="1" width="1" x="20" y="17" /><rect fill="#3d3731" height="1" width="1" x="21" y="17" /><rect fill="#3d3731" height="1" width="1" x="22" y="17" /><rect fill="#3d3731" height="1" width="1" x="23" y="17" /><rect fill="#3d3731" height="1" width="1" x="24" y="17" /><rect fill="#3d3731" height="1" width="1" x="25" y="17" /><rect fill="#3d3731" height="1" width="1" x="26" y="17" /><rect fill="#3d3731" height="1" width="1" x="27" y="17" /><rect fill="#3d3731" height="1" width="1" x="30" y="17" /><rect fill="#3d3731" height="1" width="1" x="31" y="17" /><rect fill="#3d3731" height="1" width="1" x="0" y="18" /><rect fill="#3d3731" height="1" width="1" x="1" y="18" /><rect fill="#3d3731" height="1" width="1" x="4" y="18" /><rect fill="#3d3731" height="1" width="1" x="5" y="18" /><rect fill="#3d3731" height="1" width="1" x="6" y="18" /><rect fill="#3d3731" height="1" width="1" x="7" y="18" /><rect fill="#3d3731" height="1" width="1" x="8" y="18" /><rect fill="#3d3731" height="1" width="1" x="9" y="18" /><rect fill="#3d3731" height="1" width="1" x="10" y="18" /><rect fill="#3d3731" height="1" width="1" x="11" y="18" /><rect fill="#3d3731" height="1" width="1" x="12" y="18" /><rect fill="#3d3731" height="1" width="1" x="13" y="18" /><rect fill="#3d3731" height="1" width="1" x="14" y="18" /><rect fill="#3d3731" height="1" width="1" x="15" y="18" /><rect fill="#3d3731" height="1" width="1" x="16" y="18" /><rect fill="#3d3731" height="1" width="1" x="17" y="18" /><rect fill="#3d3731" height="1" width="1" x="18" y="18" /><rect fill="#3d3731" height="1" width="1" x="19" y="18" /><rect fill="#3d3731" height="1" width="1" x="20" y="18" /><rect fill="#3d3731" height="1" width="1" x="21" y="18" /><rect fill="#3d3731" height="1" width="1" x="22" y="18" /><rect fill="#3d3731" height="1" width="1" x="23" y="18" /><rect fill="#3d3731" height="1" width="1" x="24" y="18" /><rect fill="#3d3731" height="1" width="1" x="25" y="18" /><rect fill="#3d3731" height="1" width="1" x="26" y="18" /><rect fill="#3d3731" height="1" width="1" x="27" y="18" /><rect fill="#3d3731" height="1" width="1" x="30" y="18" /><rect fill="#3d3731" height="1" width="1" x="31" y="18" /><rect fill="#3d3731" height="1" width="1" x="0" y="19" /><rect fill="#3d3731" height="1" width="1" x="1" y="19" /><rect fill="#3d3731" height="1" width="1" x="4" y="19" /><rect fill="#3d3731" height="1" width="1" x="5" y="19" /><rect fill="#3d3731" height="1" width="1" x="6" y="19" /><rect fill="#3d3731" height="1" width="1" x="7" y="19" /><rect fill="#3d3731" height="1" width="1" x="8" y="19" /><rect fill="#3d3731" height="1" width="1" x="9" y="19" /><rect fill="#3d3731" height="1" width="1" x="10" y="19" /><rect fill="#3d3731" height="1" width="1" x="11" y="19" /><rect fill="#3d3731" height="1" width="1" x="12" y="19" /><rect fill="#3d3731" height="1" width="1" x="13" y="19" /><rect fill="#3d3731" height="1" width="1" x="14" y="19" /><rect fill="#3d3731" height="1" width="1" x="15" y="19" /><rect fill="#3d3731" height="1" width="1" x="16" y="19" /><rect fill="#3d3731" height="1" width="1" x="17" y="19" /><rect fill="#3d3731" height="1" width="1" x="18" y="19" /><rect fill="#3d3731" height="1" width="1" x="19" y="19" /><rect fill="#3d3731" height="1" width="1" x="20" y="19" /><rect fill="#3d3731" height="1" width="1" x="21" y="19" /><rect fill="#3d3731" height="1" width="1" x="22" y="19" /><rect fill="#3d3731" height="1" width="1" x="23" y="19" /><rect fill="#3d3731" height="1" width="1" x="24" y="19" /><rect fill="#3d3731" height="1" width="1" x="25" y="19" /><rect fill="#3d3731" height="1" width="1" x="26" y="19" /><rect fill="#3d3731" height="1" width="1" x="27" y="19" /><rect fill="#3d3731" height="1" width="1" x="30" y="19" /><rect fill="#3d3731" height="1" width="1" x="31" y="19" /><rect fill="#3d3731" height="1" width="1" x="0" y="20" /><rect fill="#3d3731" height="1" width="1" x="1" y="20" /><rect fill="#3d3731" height="1" width="1" x="4" y="20" /><rect fill="#3d3731" height="1" width="1" x="5" y="20" /><rect fill="#3d3731" height="1" width="1" x="6" y="20" /><rect fill="#3d3731" height="1" width="1" x="7" y="20" /><rect fill="#3d3731" height="1" width="1" x="8" y="20" /><rect fill="#3d3731" height="1" width="1" x="9" y="20" /><rect fill="#3d3731" height="1" width="1" x="10" y="20" /><rect fill="#3d3731" height="1" width="1" x="11" y="20" /><rect fill="#3d3731" height="1" width="1" x="12" y="20" /><rect fill="#3d3731" height="1" width="1" x="13" y="20" /><rect fill="#3d3731" height="1" width="1" x="14" y="20" /><rect fill="#3d3731" height="1" width="1" x="15" y="20" /><rect fill="#3d3731" height="1" width="1" x="16" y="20" /><rect fill="#3d3731" height="1" width="1" x="17" y="20" /><rect fill="#3d3731" height="1" width="1" x="18" y="20" /><rect fill="#3d3731" height="1" width="1" x="19" y="20" /><rect fill="#3d3731" height="1" width="1" x="20" y="20" /><rect fill="#3d3731" height="1" width="1" x="21" y="20" /><rect fill="#3d3731" height="1" width="1" x="22" y="20" /><rect fill="#3d3731" height="1" width="1" x="23" y="20" /><rect fill="#3d3731" height="1" width="1" x="24" y="20" /><rect fill="#3d3731" height="1" width="1" x="25" y="20" /><rect fill="#3d3731" height="1" width="1" x="26" y="20" /><rect fill="#3d3731" height="1" width="1" x="27" y="20" /><rect fill="#3d3731" height="1" width="1" x="30" y="20" /><rect fill="#3d3731" height="1" width="1" x="31" y="20" /><rect fill="#3d3731" height="1" width="1" x="0" y="21" /><rect fill="#3d3731" height="1" width="1" x="1" y="21" /><rect fill="#3d3731" height="1" width="1" x="4" y="21" /><rect fill="#3d3731" height="1" width="1" x="5" y="21" /><rect fill="#3d3731" height="1" width="1" x="6" y="21" /><rect fill="#3d3731" height="1" width="1" x="7" y="21" /><rect fill="#3d3731" height="1" width="1" x="8" y="21" /><rect fill="#3d3731" height="1" width="1" x="9" y="21" /><rect fill="#3d3731" height="1" width="1" x="10" y="21" /><rect fill="#3d3731" height="1" width="1" x="11" y="21" /><rect fill="#3d3731" height="1" width="1" x="12" y="21" /><rect fill="#3d3731" height="1" width="1" x="13" y="21" /><rect fill="#3d3731" height="1" width="1" x="14" y="21" /><rect fill="#3d3731" height="1" width="1" x="15" y="21" /><rect fill="#3d3731" height="1" width="1" x="16" y="21" /><rect fill="#3d3731" height="1" width="1" x="17" y="21" /><rect fill="#3d3731" height="1" width="1" x="18" y="21" /><rect fill="#3d3731" height="1" width="1" x="19" y="21" /><rect fill="#3d3731" height="1" width="1" x="20" y="21" /><rect fill="#3d3731" height="1" width="1" x="21" y="21" /><rect fill="#3d3731" height="1" width="1" x="22" y="21" /><rect fill="#3d3731" height="1" width="1" x="23" y="21" /><rect fill="#3d3731" height="1" width="1" x="24" y="21" /><rect fill="#3d3731" height="1" width="1" x="25" y="21" /><rect fill="#3d3731" height="1" width="1" x="26" y="21" /><rect fill="#3d3731" height="1" width="1" x="27" y="21" /><rect fill="#3d3731" height="1" width="1" x="30" y="21" /><rect fill="#3d3731" height="1" width="1" x="31" y="21" /><rect fill="#3d3731" height="1" width="1" x="0" y="22" /><rect fill="#3d3731" height="1" width="1" x="1" y="22" /><rect fill="#3d3731" height="1" width="1" x="4" y="22" /><rect fill="#3d3731" height="1" width="1" x="5" y="22" /><rect fill="#3d3731" height="1" width="1" x="6" y="22" /><rect fill="#3d3731" height="1" width="1" x="7" y="22" /><rect fill="#3d3731" height="1" width="1" x="8" y="22" /><rect fill="#3d3731" height="1" width="1" x="9" y="22" /><rect fill="#3d3731" height="1" width="1" x="10" y="22" /><rect fill="#3d3731" height="1" width="1" x="11" y="22" /><rect fill="#3d3731" height="1" width="1" x="12" y="22" /><rect fill="#3d3731" height="1" width="1" x="13" y="22" /><rect fill="#3d3731" height="1" width="1" x="14" y="22" /><rect fill="#3d3731" height="1" width="1" x="15" y="22" /><rect fill="#3d3731" height="1" width="1" x="16" y="22" /><rect fill="#3d3731" height="1" width="1" x="17" y="22" /><rect fill="#3d3731" height="1" width="1" x="18" y="22" /><rect fill="#3d3731" height="1" width="1" x="19" y="22" /><rect fill="#3d3731" height="1" width="1" x="20" y="22" /><rect fill="#3d3731" height="1" width="1" x="21" y="22" /><rect fill="#3d3731" height="1" width="1" x="22" y="22" /><rect fill="#3d3731" height="1" width="1" x="23" y="22" /><rect fill="#3d3731" height="1" width="1" x="24" y="22" /><rect fill="#3d3731" height="1" width="1" x="25" y="22" /><rect fill="#3d3731" height="1" width="1" x="26" y="22" /><rect fill="#3d3731" height="1" width="1" x="27" y="22" /><rect fill="#3d3731" height="1" width="1" x="30" y="22" /><rect fill="#3d3731" height="1" width="1" x="31" y="22" /><rect fill="#3d3731" height="1" width="1" x="0" y="23" /><rect fill="#3d3731" height="1" width="1" x="1" y="23" /><rect fill="#3d3731" height="1" width="1" x="4" y="23" /><rect fill="#3d3731" height="1" width="1" x="5" y="23" /><rect fill="#3d3731" height="1" width="1" x="6" y="23" /><rect fill="#3d3731" height="1" width="1" x="7" y="23" /><rect fill="#3d3731" height="1" width="1" x="8" y="23" /><rect fill="#3d3731" height="1" width="1" x="9" y="23" /><rect fill="#3d3731" height="1" width="1" x="10" y="23" /><rect fill="#3d3731" height="1" width="1" x="11" y="23" /><rect fill="#3d3731" height="1" width="1" x="12" y="23" /><rect fill="#3d3731" height="1" width="1" x="13" y="23" /><rect fill="#3d3731" height="1" width="1" x="14" y="23" /><rect fill="#3d3731" height="1" width="1" x="15" y="23" /><rect fill="#3d3731" height="1" width="1" x="16" y="23" /><rect fill="#3d3731" height="1" width="1" x="17" y="23" /><rect fill="#3d3731" height="1" width="1" x="18" y="23" /><rect fill="#3d3731" height="1" width="1" x="19" y="23" /><rect fill="#3d3731" height="1" width="1" x="20" y="23" /><rect fill="#3d3731" height="1" width="1" x="21" y="23" /><rect fill="#3d3731" height="1" width="1" x="22" y="23" /><rect fill="#3d3731" height="1" width="1" x="23" y="23" /><rect fill="#3d3731" height="1" width="1" x="24" y="23" /><rect fill="#3d3731" height="1" width="1" x="25" y="23" /><rect fill="#3d3731" height="1" width="1" x="26" y="23" /><rect fill="#3d3731" height="1" width="1" x="27" y="23" /><rect fill="#3d3731" height="1" width="1" x="30" y="23" /><rect fill="#3d3731" height="1" width="1" x="31" y="23" /><rect fill="#3d3731" height="1" width="1" x="0" y="24" /><rect fill="#3d3731" height="1" width="1" x="1" y="24" /><rect fill="#3d3731" height="1" width="1" x="30" y="24" /><rect fill="#3d3731" height="1" width="1" x="31" y="24" /><rect fill="#3d3731" height="1" width="1" x="0" y="25" /><rect fill="#3d3731" height="1" width="1" x="1" y="25" /><rect fill="#3d3731" height="1" width="1" x="30" y="25" /><rect fill="#3d3731" height="1" width="1" x="31" y="25" /><rect fill="#3d3731" height="1" width="1" x="0" y="26" /><rect fill="#3d3731" height="1" width="1" x="1" y="26" /><rect fill="#3d3731" height="1" width="1" x="30" y="26" /><rect fill="#3d3731" height="1" width="1" x="31" y="26" /><rect fill="#3d3731" height="1" width="1" x="0" y="27" /><rect fill="#3d3731" height="1" width="1" x="1" y="27" /><rect fill="#3d3731" height="1" width="1" x="30" y="27" /><rect fill="#3d3731" height="1" width="1" x="31" y="27" /><rect fill="#3d3731" height="1" width="1" x="0" y="28" /><rect fill="#3d3731" height="1" width="1" x="1" y="28" /><rect fill="#3d3731" height="1" width="1" x="30" y="28" /><rect fill="#3d3731" height="1" width="1" x="31" y="28" /><rect fill="#3d3731" height="1" width="1" x="0" y="29" /><rect fill="#3d3731" height="1" width="1" x="1" y="29" /><rect fill="#3d3731" height="1" width="1" x="8" y="29" /><rect fill="#3d3731" height="1" width="1" x="9" y="29" /><rect fill="#3d3731" height="1" width="1" x="10" y="29" /><rect fill="#3d3731" height="1" width="1" x="11" y="29" /><rect fill="#3d3731" height="1" width="1" x="12" y="29" /><rect fill="#3d3731" height="1" width="1" x="13" y="29" /><rect fill="#3d3731" height="1" width="1" x="14" y="29" /><rect fill="#3d3731" height="1" width="1" x="15" y="29" /><rect fill="#3d3731" height="1" width="1" x="16" y="29" /><rect fill="#3d3731" height="1" width="1" x="17" y="29" /><rect fill="#3d3731" height="1" width="1" x="18" y="29" /><rect fill="#3d3731" height="1" width="1" x="19" y="29" /><rect fill="#3d3731" height="1" width="1" x="20" y="29" /><rect fill="#3d3731" height="1" width="1" x="21" y="29" /><rect fill="#3d3731" height="1" width="1" x="22" y="29" /><rect fill="#3d3731" height="1" width="1" x="23" y="29" /><rect fill="#3d3731" height="1" width="1" x="30" y="29" /><rect fill="#3d3731" height="1" width="1" x="31" y="29" /><rect fill="#3d3731" height="1" width="1" x="0" y="30" /><rect fill="#3d3731" height="1" width="1" x="1" y="30" /><rect fill="#3d3731" height="1" width="1" x="8" y="30" /><rect fill="#3d3731" height="1" width="1" x="9" y="30" /><rect fill="#3d3731" height="1" width="1" x="10" y="30" /><rect fill="#3d3731" height="1" width="1" x="11" y="30" /><rect fill="#3d3731" height="1" width="1" x="12" y="30" /><rect fill="#3d3731" height="1" width="1" x="13" y="30" /><rect fill="#3d3731" height="1" width="1" x="14" y="30" /><rect fill="#3d3731" height="1" width="1" x="15" y="30" /><rect fill="#3d3731" height="1" width="1" x="16" y="30" /><rect fill="#3d3731" height="1" width="1" x="17" y="30" /><rect fill="#3d3731" height="1" width="1" x="18" y="30" /><rect fill="#3d3731" height="1" width="1" x="19" y="30" /><rect fill="#3d3731" height="1" width="1" x="20" y="30" /><rect fill="#3d3731" height="1" width="1" x="21" y="30" /><rect fill="#3d3731" height="1" width="1" x="22" y="30" /><rect fill="#3d3731" height="1" width="1" x="23" y="30" /><rect fill="#3d3731" height="1" width="1" x="30" y="30" /><rect fill="#3d3731" height="1" width="1" x="31" y="30" /><rect fill="#3d3731" height="1" width="1" x="0" y="31" /><rect fill="#3d3731" height="1" width="1" x="1" y="31" /><rect fill="#3d3731" height="1" width="1" x="8" y="31" /><rect fill="#3d3731" height="1" width="1" x="9" y="31" /><rect fill="#3d3731" height="1" width="1" x="10" y="31" /><rect fill="#3d3731" height="1" width="1" x="11" y="31" /><rect fill="#3d3731" height="1" width="1" x="12" y="31" /><rect fill="#3d3731" height="1" width="1" x="13" y="31" /><rect fill="#3d3731" height="1" width="1" x="14" y="31" /><rect fill="#3d3731" height="1" width="1" x="15" y="31" /><rect fill="#3d3731" height="1" width="1" x="16" y="31" /><rect fill="#3d3731" height="1" width="1" x="17" y="31" /><rect fill="#3d3731" height="1" width="1" x="18" y="31" /><rect fill="#3d3731" height="1" width="1" x="19" y="31" /><rect fill="#3d3731" height="1" width="1" x="20" y="31" /><rect fill="#3d3731" height="1" width="1" x="21" y="31" /><rect fill="#3d3731" height="1" width="1" x="22" y="31" /><rect fill="#3d3731" height="1" width="1" x="23" y="31" /><rect fill="#3d3731" height="1" width="1" x="30" y="31" /><rect fill="#3d3731" height="1" width="1" x="31" y="31" /><rect fill="#3d3731" height="1" width="1" x="0" y="32" /><rect fill="#3d3731" height="1" width="1" x="1" y="32" /><rect fill="#3d3731" height="1" width="1" x="30" y="32" /><rect fill="#3d3731" height="1" width="1" x="31" y="32" /><rect fill="#3d3731" height="1" width="1" x="0" y="33" /><rect fill="#3d3731" height="1" width="1" x="1" y="33" /><rect fill="#3d3731" height="1" width="1" x="30" y="33" /><rect fill="#3d3731" height="1" width="1" x="31" y="33" /><rect fill="#3d3731" height="1" width="1" x="0" y="34" /><rect fill="#3d3731" height="1" width="1" x="1" y="34" /><rect fill="#3d3731" height="1" width="1" x="30" y="34" /><rect fill="#3d3731" height="1" width="1" x="31" y="34" /><rect fill="#3d3731" height="1" width="1" x="0" y="35" /><rect fill="#3d3731" height="1" width="1" x="1" y="35" /><rect fill="#3d3731" height="1" width="1" x="8" y="35" /><rect fill="#3d3731" height="1" width="1" x="9" y="35" /><rect fill="#3d3731" height="1" width="1" x="10" y="35" /><rect fill="#3d3731" height="1" width="1" x="11" y="35" /><rect fill="#3d3731" height="1" width="1" x="12" y="35" /><rect fill="#3d3731" height="1" width="1" x="13" y="35" /><rect fill="#3d3731" height="1" width="1" x="14" y="35" /><rect fill="#3d3731" height="1" width="1" x="15" y="35" /><rect fill="#3d3731" height="1" width="1" x="16" y="35" /><rect fill="#3d3731" height="1" width="1" x="17" y="35" /><rect fill="#3d3731" height="1" width="1" x="18" y="35" /><rect fill="#3d3731" height="1" width="1" x="19" y="35" /><rect fill="#3d3731" height="1" width="1" x="30" y="35" /><rect fill="#3d3731" height="1" width="1" x="31" y="35" /><rect fill="#3d3731" height="1" width="1" x="0" y="36" /><rect fill="#3d3731" height="1" width="1" x="1" y="36" /><rect fill="#3d3731" height="1" width="1" x="8" y="36" /><rect fill="#3d3731" height="1" width="1" x="9" y="36" /><rect fill="#3d3731" height="1" width="1" x="10" y="36" /><rect fill="#3d3731" height="1" width="1" x="11" y="36" /><rect fill="#3d3731" height="1" width="1" x="12" y="36" /><rect fill="#3d3731" height="1" width="1" x="13" y="36" /><rect fill="#3d3731" height="1" width="1" x="14" y="36" /><rect fill="#3d3731" height="1" width="1" x="15" y="36" /><rect fill="#3d3731" height="1" width="1" x="16" y="36" /><rect fill="#3d3731" height="1" width="1" x="17" y="36" /><rect fill="#3d3731" height="1" width="1" x="18" y="36" /><rect fill="#3d3731" height="1" width="1" x="19" y="36" /><rect fill="#3d3731" height="1" width="1" x="30" y="36" /><rect fill="#3d3731" height="1" width="1" x="31" y="36" /><rect fill="#3d3731" height="1" width="1" x="0" y="37" /><rect fill="#3d3731" height="1" width="1" x="1" y="37" /><rect fill="#3d3731" height="1" width="1" x="8" y="37" /><rect fill="#3d3731" height="1" width="1" x="9" y="37" /><rect fill="#3d3731" height="1" width="1" x="10" y="37" /><rect fill="#3d3731" height="1" width="1" x="11" y="37" /><rect fill="#3d3731" height="1" width="1" x="12" y="37" /><rect fill="#3d3731" height="1" width="1" x="13" y="37" /><rect fill="#3d3731" height="1" width="1" x="14" y="37" /><rect fill="#3d3731" height="1" width="1" x="15" y="37" /><rect fill="#3d3731" height="1" width="1" x="16" y="37" /><rect fill="#3d3731" height="1" width="1" x="17" y="37" /><rect fill="#3d3731" height="1" width="1" x="18" y="37" /><rect fill="#3d3731" height="1" width="1" x="19" y="37" /><rect fill="#3d3731" height="1" width="1" x="30" y="37" /><rect fill="#3d3731" height="1" width="1" x="31" y="37" /><rect fill="#3d3731" height="1" width="1" x="0" y="38" /><rect fill="#3d3731" height="1" width="1" x="1" y="38" /><rect fill="#3d3731" height="1" width="1" x="30" y="38" /><rect fill="#3d3731" height="1" width="1" x="31" y="38" /><rect fill="#3d3731" height="1" width="1" x="0" y="39" /><rect fill="#3d3731" height="1" width="1" x="1" y="39" /><rect fill="#3d3731" height="1" width="1" x="30" y="39" /><rect fill="#3d3731" height="1" width="1" x="31" y="39" /><rect fill="#3d3731" height="1" width="1" x="0" y="40" /><rect fill="#3d3731" height="1" width="1" x="1" y="40" /><rect fill="#3d3731" height="1" width="1" x="30" y="40" /><rect fill="#3d3731" height="1" width="1" x="31" y="40" /><rect fill="#3d3731" height="1" width="1" x="0" y="41" /><rect fill="#3d3731" height="1" width="1" x="1" y="41" /><rect fill="#3d3731" height="1" width="1" x="30" y="41" /><rect fill="#3d3731" height="1" width="1" x="31" y="41" /><rect fill="#3d3731" height="1" width="1" x="0" y="42" /><rect fill="#3d3731" height="1" width="1" x="1" y="42" /><rect fill="#3d3731" height="1" width="1" x="30" y="42" /><rect fill="#3d3731" height="1" width="1" x="31" y="42" /><rect fill="#3d3731" height="1" width="1" x="1" y="43" /><rect fill="#3d3731" height="1" width="1" x="2" y="43" /><rect fill="#3d3731" height="1" width="1" x="29" y="43" /><rect fill="#3d3731" height="1" width="1" x="30" y="43" /><rect fill="#3d3731" height="1" width="1" x="2" y="44" /><rect fill="#3d3731" height="1" width="1" x="3" y="44" /><rect fill="#3d3731" height="1" width="1" x="28" y="44" /><rect fill="#3d3731" height="1" width="1" x="29" y="44" /><rect fill="#3d3731" height="1" width="1" x="2" y="45" /><rect fill="#3d3731" height="1" width="1" x="3" y="45" /><rect fill="#3d3731" height="1" width="1" x="4" y="45" /><rect fill="#3d3731" height="1" width="1" x="27" y="45" /><rect fill="#3d3731" height="1" width="1" x="28" y="45" /><rect fill="#3d3731" height="1" width="1" x="29" y="45" /><rect fill="#3d3731" height="1" width="1" x="4" y="46" /><rect fill="#3d3731" height="1" width="1" x="5" y="46" /><rect fill="#3d3731" height="1" width="1" x="6" y="46" /><rect fill="#3d3731" height="1" width="1" x="7" y="46" /><rect fill="#3d3731" height="1" width="1" x="8" y="46" /><rect fill="#3d3731" height="1" width="1" x="9" y="46" /><rect fill="#3d3731" height="1" width="1" x="10" y="46" /><rect fill="#3d3731" height="1" width="1" x="11" y="46" /><rect fill="#3d3731" height="1" width="1" x="12" y="46" /><rect fill="#3d3731" height="1" width="1" x="13" y="46" /><rect fill="#3d3731" height="1" width="1" x="14" y="46" /><rect fill="#3d3731" height="1" width="1" x="15" y="46" /><rect fill="#3d3731" height="1" width="1" x="16" y="46" /><rect fill="#3d3731" height="1" width="1" x="17" y="46" /><rect fill="#3d3731" height="1" width="1" x="18" y="46" /><rect fill="#3d3731" height="1" width="1" x="19" y="46" /><rect fill="#3d3731" height="1" width="1" x="20" y="46" /><rect fill="#3d3731" height="1" width="1" x="21" y="46" /><rect fill="#3d3731" height="1" width="1" x="22" y="46" /><rect fill="#3d3731" height="1" width="1" x="23" y="46" /><rect fill="#3d3731" height="1" width="1" x="24" y="46" /><rect fill="#3d3731" height="1" width="1" x="25" y="46" /><rect fill="#3d3731" height="1" width="1" x="26" y="46" /><rect fill="#3d3731" height="1" width="1" x="27" y="46" /><rect fill="#3d3731" height="1" width="1" x="5" y="47" /><rect fill="#3d3731" height="1" width="1" x="6" y="47" /><rect fill="#3d3731" height="1" width="1" x="7" y="47" /><rect fill="#3d3731" height="1" width="1" x="8" y="47" /><rect fill="#3d3731" height="1" width="1" x="9" y="47" /><rect fill="#3d3731" height="1" width="1" x="10" y="47" /><rect fill="#3d3731" height="1" width="1" x="11" y="47" /><rect fill="#3d3731" height="1" width="1" x="12" y="47" /><rect fill="#3d3731" height="1" width="1" x="13" y="47" /><rect fill="#3d3731" height="1" width="1" x="14" y="47" /><rect fill="#3d3731" height="1" width="1" x="15" y="47" /><rect fill="#3d3731" height="1" width="1" x="16" y="47" /><rect fill="#3d3731" height="1" width="1" x="17" y="47" /><rect fill="#3d3731" height="1" width="1" x="18" y="47" /><rect fill="#3d3731" height="1" width="1" x="19" y="47" /><rect fill="#3d3731" height="1" width="1" x="20" y="47" /><rect fill="#3d3731" height="1" width="1" x="21" y="47" /><rect fill="#3d3731" height="1" width="1" x="22" y="47" /><rect fill="#3d3731" height="1" width="1" x="23" y="47" /><rect fill="#3d3731" height="1" width="1" x="24" y="47" /><rect fill="#3d3731" height="1" width="1" x="25" y="47" /><rect fill="#3d3731" height="1" width="1" x="26" y="47" /></svg>