<?xml version="1.0" encoding="utf-8" ?>
<svg baseProfile="tiny" height="48" version="1.2" viewBox="0,0,64,48" width="64" xmlns="http://www.w3.org/2000/svg" xmlns:ev="http://www.w3.org/2001/xml-events" xmlns:xlink="http://www.w3.org/1999/xlink"><defs /><rect fill="#3d3731" height="1" width="1" x="5" y="0" /><rect fill="#3d3731" height="1" width="1" x="6" y="0" /><rect fill="#3d3731" height="1" width="1" x="7" y="0" /><rect fill="#3d3731" height="1" width="1" x="8" y="0" /><rect fill="#3d3731" height="1" width="1" x="9" y="0" /><rect fill="#3d3731" height="1" width="1" x="10" y="0" /><rect fill="#3d3731" height="1" width="1" x="11" y="0" /><rect fill="#3d3731" height="1" width="1" x="12" y="0" /><rect fill="#3d3731" height="1" width="1" x="13" y="0" /><rect fill="#3d3731" height="1" width="1" x="14" y="0" /><rect fill="#3d3731" height="1" width="1" x="15" y="0" /><rect fill="#3d3731" height="1" width="1" x="16" y="0" /><rect fill="#3d3731" height="1" width="1" x="17" y="0" /><rect fill="#3d3731" height="1" width="1" x="18" y="0" /><rect fill="#3d3731" height="1" width="1" x="19" y="0" /><rect fill="#3d3731" height="1" width="1" x="20" y="0" /><rect fill="#3d3731" height="1" width="1" x="21" y="0" /><rect fill="#3d3731" height="1" width="1" x="22" y="0" /><rect fill="#3d3731" height="1" width="1" x="23" y="0" /><rect fill="#3d3731" height="1" width="1" x="24" y="0" /><rect fill="#3d3731" height="1" width="1" x="25" y="0" /><rect fill="#3d3731" height="1" width="1" x="26" y="0" /><rect fill="#3d3731" height="1" width="1" x="27" y="0" /><rect fill="#3d3731" height="1" width="1" x="28" y="0" /><rect fill="#3d3731" height="1" width="1" x="29" y="0" /><rect fill="#3d3731" height="1" width="1" x="30" y="0" /><rect fill="#3d3731" height="1" width="1" x="31" y="0" /><rect fill="#3d3731" height="1" width="1" x="32" y="0" /><rect fill="#3d3731" height="1" width="1" x="33" y="0" /><rect fill="#3d3731" height="1" width="1" x="34" y="0" /><rect fill="#3d3731" height="1" width="1" x="35" y="0" /><rect fill="#3d3731" height="1" width="1" x="36" y="0" /><rect fill="#3d3731" height="1" width="1" x="37" y="0" /><rect fill="#3d3731" height="1" width="1" x="38" y="0" /><rect fill="#3d3731" height="1" width="1" x="39" y="0" /><rect fill="#3d3731" height="1" width="1" x="40" y="0" /><rect fill="#3d3731" height="1" width="1" x="41" y="0" /><rect fill="#3d3731" height="1" width="1" x="42" y="0" /><rect fill="#3d3731" height="1" width="1" x="43" y="0" /><rect fill="#3d3731" height="1" width="1" x="44" y="0" /><rect fill="#3d3731" height="1" width="1" x="45" y="0" /><rect fill="#3d3731" height="1" width="1" x="46" y="0" /><rect fill="#3d3731" height="1" width="1" x="47" y="0" /><rect fill="#3d3731" height="1" width="1" x="48" y="0" /><rect fill="#3d3731" height="1" width="1" x="49" y="0" /><rect fill="#3d3731" height="1" width="1" x="50" y="0" /><rect fill="#3d3731" height="1" width="1" x="51" y="0" /><rect fill="#3d3731" height="1" width="1" x="52" y="0" /><rect fill="#3d3731" height="1" width="1" x="53" y="0" /><rect fill="#3d3731" height="1" width="1" x="54" y="0" /><rect fill="#3d3731" height="1" width="1" x="55" y="0" /><rect fill="#3d3731" height="1" width="1" x="56" y="0" /><rect fill="#3d3731" height="1" width="1" x="57" y="0" /><rect fill="#3d3731" height="1" width="1" x="58" y="0" /><rect fill="#3d3731" height="1" width="1" x="4" y="1" /><rect fill="#3d3731" height="1" width="1" x="5" y="1" /><rect fill="#3d3731" height="1" width="1" x="6" y="1" /><rect fill="#3d3731" height="1" width="1" x="7" y="1" /><rect fill="#3d3731" height="1" width="1" x="8" y="1" /><rect fill="#3d3731" height="1" width="1" x="9" y="1" /><rect fill="#3d3731" height="1" width="1" x="10" y="1" /><rect fill="#3d3731" height="1" width="1" x="11" y="1" /><rect fill="#3d3731" height="1" width="1" x="12" y="1" /><rect fill="#3d3731" height="1" width="1" x="13" y="1" /><rect fill="#3d3731" height="1" width="1" x="14" y="1" /><rect fill="#3d3731" height="1" width="1" x="15" y="1" /><rect fill="#3d3731" height="1" width="1" x="16" y="1" /><rect fill="#3d3731" height="1" width="1" x="17" y="1" /><rect fill="#3d3731" height="1" width="1" x="18" y="1" /><rect fill="#3d3731" height="1" width="1" x="19" y="1" /><rect fill="#3d3731" height="1" width="1" x="20" y="1" /><rect fill="#3d3731" height="1" width="1" x="21" y="1" /><rect fill="#3d3731" height="1" width="1" x="22" y="1" /><rect fill="#3d3731" height="1" width="1" x="23" y="1" /><rect fill="#3d3731" height="1" width="1" x="24" y="1" /><rect fill="#3d3731" height="1" width="1" x="25" y="1" /><rect fill="#3d3731" height="1" width="1" x="26" y="1" /><rect fill="#3d3731" height="1" width="1" x="27" y="1" /><rect fill="#3d3731" height="1" width="1" x="28" y="1" /><rect fill="#3d3731" height="1" width="1" x="29" y="1" /><rect fill="#3d3731" height="1" width="1" x="30" y="1" /><rect fill="#3d3731" height="1" width="1" x="31" y="1" /><rect fill="#3d3731" height="1" width="1" x="32" y="1" /><rect fill="#3d3731" height="1" width="1" x="33" y="1" /><rect fill="#3d3731" height="1" width="1" x="34" y="1" /><rect fill="#3d3731" height="1" width="1" x="35" y="1" /><rect fill="#3d3731" height="1" width="1" x="36" y="1" /><rect fill="#3d3731" height="1" width="1" x="37" y="1" /><rect fill="#3d3731" height="1" width="1" x="38" y="1" /><rect fill="#3d3731" height="1" width="1" x="39" y="1" /><rect fill="#3d3731" height="1" width="1" x="40" y="1" /><rect fill="#3d3731" height="1" width="1" x="41" y="1" /><rect fill="#3d3731" height="1" width="1" x="42" y="1" /><rect fill="#3d3731" height="1" width="1" x="43" y="1" /><rect fill="#3d3731" height="1" width="1" x="44" y="1" /><rect fill="#3d3731" height="1" width="1" x="45" y="1" /><rect fill="#3d3731" height="1" width="1" x="46" y="1" /><rect fill="#3d3731" height="1" width="1" x="47" y="1" /><rect fill="#3d3731" height="1" width="1" x="48" y="1" /><rect fill="#3d3731" height="1" width="1" x="49" y="1" /><rect fill="#3d3731" height="1" width="1" x="50" y="1" /><rect fill="#3d3731" height="1" width="1" x="51" y="1" /><rect fill="#3d3731" height="1" width="1" x="52" y="1" /><rect fill="#3d3731" height="1" width="1" x="53" y="1" /><rect fill="#3d3731" height="1" width="1" x="54" y="1" /><rect fill="#3d3731" height="1" width="1" x="55" y="1" /><rect fill="#3d3731" height="1" width="1" x="56" y="1" /><rect fill="#3d3731" height="1" width="1" x="57" y="1" /><rect fill="#3d3731" height="1" width="1" x="58" y="1" /><rect fill="#3d3731" height="1" width="1" x="59" y="1" /><rect fill="#3d3731" height="1" width="1" x="2" y="2" /><rect fill="#3d3731" height="1" width="1" x="3" y="2" /><rect fill="#3d3731" height="1" width="1" x="4" y="2" /><rect fill="#3d3731" height="1" width="1" x="59" y="2" /><rect fill="#3d3731" height="1" width="1" x="60" y="2" /><rect fill="#3d3731" height="1" width="1" x="61" y="2" /><rect fill="#3d3731" height="1" width="1" x="2" y="3" /><rect fill="#3d3731" height="1" width="1" x="3" y="3" /><rect fill="#3d3731" height="1" width="1" x="60" y="3" /><rect fill="#3d3731" height="1" width="1" x="61" y="3" /><rect fill="#3d3731" height="1" width="1" x="1" y="4" /><rect fill="#3d3731" height="1" width="1" x="2" y="4" /><rect fill="#3d3731" height="1" width="1" x="61" y="4" /><rect fill="#3d3731" height="1" width="1" x="62" y="4" /><rect fill="#3d3731" height="1" width="1" x="0" y="5" /><rect fill="#3d3731" height="1" width="1" x="1" y="5" /><rect fill="#3d3731" height="1" width="1" x="62" y="5" /><rect fill="#3d3731" height="1" width="1" x="63" y="5" /><rect fill="#3d3731" height="1" width="1" x="0" y="6" /><rect fill="#3d3731" height="1" width="1" x="1" y="6" /><rect fill="#3d3731" height="1" width="1" x="62" y="6" /><rect fill="#3d3731" height="1" width="1" x="63" y="6" /><rect fill="#3d3731" height="1" width="1" x="0" y="7" /><rect fill="#3d3731" height="1" width="1" x="1" y="7" /><rect fill="#3d3731" height="1" width="1" x="62" y="7" /><rect fill="#3d3731" height="1" width="1" x="63" y="7" /><rect fill="#3d3731" height="1" width="1" x="0" y="8" /><rect fill="#3d3731" height="1" width="1" x="1" y="8" /><rect fill="#3d3731" height="1" width="1" x="62" y="8" /><rect fill="#3d3731" height="1" width="1" x="63" y="8" /><rect fill="#3d3731" height="1" width="1" x="0" y="9" /><rect fill="#3d3731" height="1" width="1" x="1" y="9" /><rect fill="#3d3731" height="1" width="1" x="62" y="9" /><rect fill="#3d3731" height="1" width="1" x="63" y="9" /><rect fill="#3d3731" height="1" width="1" x="0" y="10" /><rect fill="#3d3731" height="1" width="1" x="1" y="10" /><rect fill="#3d3731" height="1" width="1" x="62" y="10" /><rect fill="#3d3731" height="1" width="1" x="63" y="10" /><rect fill="#3d3731" height="1" width="1" x="0" y="11" /><rect fill="#3d3731" height="1" width="1" x="1" y="11" /><rect fill="#3d3731" height="1" width="1" x="62" y="11" /><rect fill="#3d3731" height="1" width="1" x="63" y="11" /><rect fill="#3d3731" height="1" width="1" x="0" y="12" /><rect fill="#3d3731" height="1" width="1" x="1" y="12" /><rect fill="#3d3731" height="1" width="1" x="62" y="12" /><rect fill="#3d3731" height="1" width="1" x="63" y="12" /><rect fill="#3d3731" height="1" width="1" x="0" y="13" /><rect fill="#3d3731" height="1" width="1" x="1" y="13" /><rect fill="#3d3731" height="1" width="1" x="62" y="13" /><rect fill="#3d3731" height="1" width="1" x="63" y="13" /><rect fill="#3d3731" height="1" width="1" x="0" y="14" /><rect fill="#3d3731" height="1" width="1" x="1" y="14" /><rect fill="#3d3731" height="1" width="1" x="62" y="14" /><rect fill="#3d3731" height="1" width="1" x="63" y="14" /><rect fill="#3d3731" height="1" width="1" x="0" y="15" /><rect fill="#3d3731" height="1" width="1" x="1" y="15" /><rect fill="#3d3731" height="1" width="1" x="62" y="15" /><rect fill="#3d3731" height="1" width="1" x="63" y="15" /><rect fill="#3d3731" height="1" width="1" x="0" y="16" /><rect fill="#3d3731" height="1" width="1" x="1" y="16" /><rect fill="#3d3731" height="1" width="1" x="11" y="16" /><rect fill="#3d3731" height="1" width="1" x="12" y="16" /><rect fill="#3d3731" height="1" width="1" x="13" y="16" /><rect fill="#3d3731" height="1" width="1" x="14" y="16" /><rect fill="#3d3731" height="1" width="1" x="15" y="16" /><rect fill="#3d3731" height="1" width="1" x="16" y="16" /><rect fill="#3d3731" height="1" width="1" x="17" y="16" /><rect fill="#3d3731" height="1" width="1" x="18" y="16" /><rect fill="#3d3731" height="1" width="1" x="19" y="16" /><rect fill="#3d3731" height="1" width="1" x="20" y="16" /><rect fill="#3d3731" height="1" width="1" x="21" y="16" /><rect fill="#3d3731" height="1" width="1" x="22" y="16" /><rect fill="#3d3731" height="1" width="1" x="23" y="16" /><rect fill="#3d3731" height="1" width="1" x="24" y="16" /><rect fill="#3d3731" height="1" width="1" x="25" y="16" /><rect fill="#3d3731" height="1" width="1" x="26" y="16" /><rect fill="#3d3731" height="1" width="1" x="27" y="16" /><rect fill="#3d3731" height="1" width="1" x="62" y="16" /><rect fill="#3d3731" height="1" width="1" x="63" y="16" /><rect fill="#3d3731" height="1" width="1" x="0" y="17" /><rect fill="#3d3731" height="1" width="1" x="1" y="17" /><rect fill="#3d3731" height="1" width="1" x="11" y="17" /><rect fill="#3d3731" height="1" width="1" x="12" y="17" /><rect fill="#3d3731" height="1" width="1" x="13" y="17" /><rect fill="#3d3731" height="1" width="1" x="14" y="17" /><rect fill="#3d3731" height="1" width="1" x="15" y="17" /><rect fill="#3d3731" height="1" width="1" x="16" y="17" /><rect fill="#3d3731" height="1" width="1" x="17" y="17" /><rect fill="#3d3731" height="1" width="1" x="18" y="17" /><rect fill="#3d3731" height="1" width="1" x="19" y="17" /><rect fill="#3d3731" height="1" width="1" x="20" y="17" /><rect fill="#3d3731" height="1" width="1" x="21" y="17" /><rect fill="#3d3731" height="1" width="1" x="22" y="17" /><rect fill="#3d3731" height="1" width="1" x="23" y="17" /><rect fill="#3d3731" height="1" width="1" x="24" y="17" /><rect fill="#3d3731" height="1" width="1" x="25" y="17" /><rect fill="#3d3731" height="1" width="1" x="26" y="17" /><rect fill="#3d3731" height="1" width="1" x="27" y="17" /><rect fill="#3d3731" height="1" width="1" x="28" y="17" /><rect fill="#3d3731" height="1" width="1" x="29" y="17" /><rect fill="#3d3731" height="1" width="1" x="62" y="17" /><rect fill="#3d3731" height="1" width="1" x="63" y="17" /><rect fill="#3d3731" height="1" width="1" x="0" y="18" /><rect fill="#3d3731" height="1" width="1" x="1" y="18" /><rect fill="#3d3731" height="1" width="1" x="10" y="18" /><rect fill="#3d3731" height="1" width="1" x="11" y="18" /><rect fill="#3d3731" height="1" width="1" x="12" y="18" /><rect fill="#3d3731" height="1" width="1" x="13" y="18" /><rect fill="#3d3731" height="1" width="1" x="14" y="18" /><rect fill="#3d3731" height="1" width="1" x="15" y="18" /><rect fill="#3d3731" height="1" width="1" x="16" y="18" /><rect fill="#3d3731" height="1" width="1" x="17" y="18" /><rect fill="#3d3731" height="1" width="1" x="18" y="18" /><rect fill="#3d3731" height="1" width="1" x="19" y="18" /><rect fill="#3d3731" height="1" width="1" x="20" y="18" /><rect fill="#3d3731" height="1" width="1" x="21" y="18" /><rect fill="#3d3731" height="1" width="1" x="22" y="18" /><rect fill="#3d3731" height="1" width="1" x="23" y="18" /><rect fill="#3d3731" height="1" width="1" x="24" y="18" /><rect fill="#3d3731" height="1" width="1" x="25" y="18" /><rect fill="#3d3731" height="1" width="1" x="26" y="18" /><rect fill="#3d3731" height="1" width="1" x="27" y="18" /><rect fill="#3d3731" height="1" width="1" x="28" y="18" /><rect fill="#3d3731" height="1" width="1" x="29" y="18" /><rect fill="#3d3731" height="1" width="1" x="62" y="18" /><rect fill="#3d3731" height="1" width="1" x="63" y="18" /><rect fill="#3d3731" height="1" width="1" x="0" y="19" /><rect fill="#3d3731" height="1" width="1" x="1" y="19" /><rect fill="#3d3731" height="1" width="1" x="10" y="19" /><rect fill="#3d3731" height="1" width="1" x="11" y="19" /><rect fill="#3d3731" height="1" width="1" x="12" y="19" /><rect fill="#3d3731" height="1" width="1" x="13" y="19" /><rect fill="#3d3731" height="1" width="1" x="14" y="19" /><rect fill="#3d3731" height="1" width="1" x="15" y="19" /><rect fill="#3d3731" height="1" width="1" x="16" y="19" /><rect fill="#3d3731" height="1" width="1" x="17" y="19" /><rect fill="#3d3731" height="1" width="1" x="18" y="19" /><rect fill="#3d3731" height="1" width="1" x="19" y="19" /><rect fill="#3d3731" height="1" width="1" x="20" y="19" /><rect fill="#3d3731" height="1" width="1" x="21" y="19" /><rect fill="#3d3731" height="1" width="1" x="22" y="19" /><rect fill="#3d3731" height="1" width="1" x="23" y="19" /><rect fill="#3d3731" height="1" width="1" x="24" y="19" /><rect fill="#3d3731" height="1" width="1" x="25" y="19" /><rect fill="#3d3731" height="1" width="1" x="26" y="19" /><rect fill="#3d3731" height="1" width="1" x="27" y="19" /><rect fill="#3d3731" height="1" width="1" x="28" y="19" /><rect fill="#3d3731" height="1" width="1" x="29" y="19" /><rect fill="#3d3731" height="1" width="1" x="62" y="19" /><rect fill="#3d3731" height="1" width="1" x="63" y="19" /><rect fill="#3d3731" height="1" width="1" x="0" y="20" /><rect fill="#3d3731" height="1" width="1" x="1" y="20" /><rect fill="#3d3731" height="1" width="1" x="10" y="20" /><rect fill="#3d3731" height="1" width="1" x="11" y="20" /><rect fill="#3d3731" height="1" width="1" x="12" y="20" /><rect fill="#3d3731" height="1" width="1" x="13" y="20" /><rect fill="#3d3731" height="1" width="1" x="14" y="20" /><rect fill="#3d3731" height="1" width="1" x="15" y="20" /><rect fill="#3d3731" height="1" width="1" x="16" y="20" /><rect fill="#3d3731" height="1" width="1" x="17" y="20" /><rect fill="#3d3731" height="1" width="1" x="18" y="20" /><rect fill="#3d3731" height="1" width="1" x="19" y="20" /><rect fill="#3d3731" height="1" width="1" x="20" y="20" /><rect fill="#3d3731" height="1" width="1" x="21" y="20" /><rect fill="#3d3731" height="1" width="1" x="22" y="20" /><rect fill="#3d3731" height="1" width="1" x="23" y="20" /><rect fill="#3d3731" height="1" width="1" x="24" y="20" /><rect fill="#3d3731" height="1" width="1" x="25" y="20" /><rect fill="#3d3731" height="1" width="1" x="26" y="20" /><rect fill="#3d3731" height="1" width="1" x="27" y="20" /><rect fill="#3d3731" height="1" width="1" x="28" y="20" /><rect fill="#3d3731" height="1" width="1" x="29" y="20" /><rect fill="#3d3731" height="1" width="1" x="36" y="20" /><rect fill="#3d3731" height="1" width="1" x="37" y="20" /><rect fill="#3d3731" height="1" width="1" x="38" y="20" /><rect fill="#3d3731" height="1" width="1" x="39" y="20" /><rect fill="#3d3731" height="1" width="1" x="40" y="20" /><rect fill="#3d3731" height="1" width="1" x="41" y="20" /><rect fill="#3d3731" height="1" width="1" x="42" y="20" /><rect fill="#3d3731" height="1" width="1" x="43" y="20" /><rect fill="#3d3731" height="1" width="1" x="44" y="20" /><rect fill="#3d3731" height="1" width="1" x="45" y="20" /><rect fill="#3d3731" height="1" width="1" x="46" y="20" /><rect fill="#3d3731" height="1" width="1" x="47" y="20" /><rect fill="#3d3731" height="1" width="1" x="48" y="20" /><rect fill="#3d3731" height="1" width="1" x="49" y="20" /><rect fill="#3d3731" height="1" width="1" x="50" y="20" /><rect fill="#3d3731" height="1" width="1" x="51" y="20" /><rect fill="#3d3731" height="1" width="1" x="62" y="20" /><rect fill="#3d3731" height="1" width="1" x="63" y="20" /><rect fill="#3d3731" height="1" width="1" x="0" y="21" /><rect fill="#3d3731" height="1" width="1" x="1" y="21" /><rect fill="#3d3731" height="1" width="1" x="10" y="21" /><rect fill="#3d3731" height="1" width="1" x="11" y="21" /><rect fill="#3d3731" height="1" width="1" x="12" y="21" /><rect fill="#3d3731" height="1" width="1" x="13" y="21" /><rect fill="#3d3731" height="1" width="1" x="14" y="21" /><rect fill="#3d3731" height="1" width="1" x="15" y="21" /><rect fill="#3d3731" height="1" width="1" x="16" y="21" /><rect fill="#3d3731" height="1" width="1" x="17" y="21" /><rect fill="#3d3731" height="1" width="1" x="18" y="21" /><rect fill="#3d3731" height="1" width="1" x="19" y="21" /><rect fill="#3d3731" height="1" width="1" x="20" y="21" /><rect fill="#3d3731" height="1" width="1" x="21" y="21" /><rect fill="#3d3731" height="1" width="1" x="22" y="21" /><rect fill="#3d3731" height="1" width="1" x="23" y="21" /><rect fill="#3d3731" height="1" width="1" x="24" y="21" /><rect fill="#3d3731" height="1" width="1" x="25" y="21" /><rect fill="#3d3731" height="1" width="1" x="26" y="21" /><rect fill="#3d3731" height="1" width="1" x="27" y="21" /><rect fill="#3d3731" height="1" width="1" x="28" y="21" /><rect fill="#3d3731" height="1" width="1" x="29" y="21" /><rect fill="#3d3731" height="1" width="1" x="36" y="21" /><rect fill="#3d3731" height="1" width="1" x="37" y="21" /><rect fill="#3d3731" height="1" width="1" x="38" y="21" /><rect fill="#3d3731" height="1" width="1" x="39" y="21" /><rect fill="#3d3731" height="1" width="1" x="40" y="21" /><rect fill="#3d3731" height="1" width="1" x="41" y="21" /><rect fill="#3d3731" height="1" width="1" x="42" y="21" /><rect fill="#3d3731" height="1" width="1" x="43" y="21" /><rect fill="#3d3731" height="1" width="1" x="44" y="21" /><rect fill="#3d3731" height="1" width="1" x="45" y="21" /><rect fill="#3d3731" height="1" width="1" x="46" y="21" /><rect fill="#3d3731" height="1" width="1" x="47" y="21" /><rect fill="#3d3731" height="1" width="1" x="48" y="21" /><rect fill="#3d3731" height="1" width="1" x="49" y="21" /><rect fill="#3d3731" height="1" width="1" x="50" y="21" /><rect fill="#3d3731" height="1" width="1" x="51" y="21" /><rect fill="#3d3731" height="1" width="1" x="62" y="21" /><rect fill="#3d3731" height="1" width="1" x="63" y="21" /><rect fill="#3d3731" height="1" width="1" x="0" y="22" /><rect fill="#3d3731" height="1" width="1" x="1" y="22" /><rect fill="#3d3731" height="1" width="1" x="10" y="22" /><rect fill="#3d3731" height="1" width="1" x="11" y="22" /><rect fill="#3d3731" height="1" width="1" x="12" y="22" /><rect fill="#3d3731" height="1" width="1" x="13" y="22" /><rect fill="#3d3731" height="1" width="1" x="14" y="22" /><rect fill="#3d3731" height="1" width="1" x="15" y="22" /><rect fill="#3d3731" height="1" width="1" x="16" y="22" /><rect fill="#3d3731" height="1" width="1" x="17" y="22" /><rect fill="#3d3731" height="1" width="1" x="18" y="22" /><rect fill="#3d3731" height="1" width="1" x="19" y="22" /><rect fill="#3d3731" height="1" width="1" x="20" y="22" /><rect fill="#3d3731" height="1" width="1" x="21" y="22" /><rect fill="#3d3731" height="1" width="1" x="22" y="22" /><rect fill="#3d3731" height="1" width="1" x="23" y="22" /><rect fill="#3d3731" height="1" width="1" x="24" y="22" /><rect fill="#3d3731" height="1" width="1" x="25" y="22" /><rect fill="#3d3731" height="1" width="1" x="26" y="22" /><rect fill="#3d3731" height="1" width="1" x="27" y="22" /><rect fill="#3d3731" height="1" width="1" x="28" y="22" /><rect fill="#3d3731" height="1" width="1" x="29" y="22" /><rect fill="#3d3731" height="1" width="1" x="36" y="22" /><rect fill="#3d3731" height="1" width="1" x="37" y="22" /><rect fill="#3d3731" height="1" width="1" x="38" y="22" /><rect fill="#3d3731" height="1" width="1" x="39" y="22" /><rect fill="#3d3731" height="1" width="1" x="40" y="22" /><rect fill="#3d3731" height="1" width="1" x="41" y="22" /><rect fill="#3d3731" height="1" width="1" x="42" y="22" /><rect fill="#3d3731" height="1" width="1" x="43" y="22" /><rect fill="#3d3731" height="1" width="1" x="44" y="22" /><rect fill="#3d3731" height="1" width="1" x="45" y="22" /><rect fill="#3d3731" height="1" width="1" x="46" y="22" /><rect fill="#3d3731" height="1" width="1" x="47" y="22" /><rect fill="#3d3731" height="1" width="1" x="48" y="22" /><rect fill="#3d3731" height="1" width="1" x="49" y="22" /><rect fill="#3d3731" height="1" width="1" x="50" y="22" /><rect fill="#3d3731" height="1" width="1" x="51" y="22" /><rect fill="#3d3731" height="1" width="1" x="62" y="22" /><rect fill="#3d3731" height="1" width="1" x="63" y="22" /><rect fill="#3d3731" height="1" width="1" x="0" y="23" /><rect fill="#3d3731" height="1" width="1" x="1" y="23" /><rect fill="#3d3731" height="1" width="1" x="10" y="23" /><rect fill="#3d3731" height="1" width="1" x="11" y="23" /><rect fill="#3d3731" height="1" width="1" x="12" y="23" /><rect fill="#3d3731" height="1" width="1" x="13" y="23" /><rect fill="#3d3731" height="1" width="1" x="14" y="23" /><rect fill="#3d3731" height="1" width="1" x="15" y="23" /><rect fill="#3d3731" height="1" width="1" x="16" y="23" /><rect fill="#3d3731" height="1" width="1" x="17" y="23" /><rect fill="#3d3731" height="1" width="1" x="18" y="23" /><rect fill="#3d3731" height="1" width="1" x="19" y="23" /><rect fill="#3d3731" height="1" width="1" x="20" y="23" /><rect fill="#3d3731" height="1" width="1" x="21" y="23" /><rect fill="#3d3731" height="1" width="1" x="22" y="23" /><rect fill="#3d3731" height="1" width="1" x="23" y="23" /><rect fill="#3d3731" height="1" width="1" x="24" y="23" /><rect fill="#3d3731" height="1" width="1" x="25" y="23" /><rect fill="#3d3731" height="1" width="1" x="26" y="23" /><rect fill="#3d3731" height="1" width="1" x="27" y="23" /><rect fill="#3d3731" height="1" width="1" x="28" y="23" /><rect fill="#3d3731" height="1" width="1" x="29" y="23" /><rect fill="#3d3731" height="1" width="1" x="62" y="23" /><rect fill="#3d3731" height="1" width="1" x="63" y="23" /><rect fill="#3d3731" height="1" width="1" x="0" y="24" /><rect fill="#3d3731" height="1" width="1" x="1" y="24" /><rect fill="#3d3731" height="1" width="1" x="10" y="24" /><rect fill="#3d3731" height="1" width="1" x="11" y="24" /><rect fill="#3d3731" height="1" width="1" x="12" y="24" /><rect fill="#3d3731" height="1" width="1" x="13" y="24" /><rect fill="#3d3731" height="1" width="1" x="14" y="24" /><rect fill="#3d3731" height="1" width="1" x="15" y="24" /><rect fill="#3d3731" height="1" width="1" x="16" y="24" /><rect fill="#3d3731" height="1" width="1" x="17" y="24" /><rect fill="#3d3731" height="1" width="1" x="18" y="24" /><rect fill="#3d3731" height="1" width="1" x="19" y="24" /><rect fill="#3d3731" height="1" width="1" x="20" y="24" /><rect fill="#3d3731" height="1" width="1" x="21" y="24" /><rect fill="#3d3731" height="1" width="1" x="22" y="24" /><rect fill="#3d3731" height="1" width="1" x="23" y="24" /><rect fill="#3d3731" height="1" width="1" x="24" y="24" /><rect fill="#3d3731" height="1" width="1" x="25" y="24" /><rect fill="#3d3731" height="1" width="1" x="26" y="24" /><rect fill="#3d3731" height="1" width="1" x="27" y="24" /><rect fill="#3d3731" height="1" width="1" x="28" y="24" /><rect fill="#3d3731" height="1" width="1" x="29" y="24" /><rect fill="#3d3731" height="1" width="1" x="62" y="24" /><rect fill="#3d3731" height="1" width="1" x="63" y="24" /><rect fill="#3d3731" height="1" width="1" x="0" y="25" /><rect fill="#3d3731" height="1" width="1" x="1" y="25" /><rect fill="#3d3731" height="1" width="1" x="10" y="25" /><rect fill="#3d3731" height="1" width="1" x="11" y="25" /><rect fill="#3d3731" height="1" width="1" x="12" y="25" /><rect fill="#3d3731" height="1" width="1" x="13" y="25" /><rect fill="#3d3731" height="1" width="1" x="14" y="25" /><rect fill="#3d3731" height="1" width="1" x="15" y="25" /><rect fill="#3d3731" height="1" width="1" x="16" y="25" /><rect fill="#3d3731" height="1" width="1" x="17" y="25" /><rect fill="#3d3731" height="1" width="1" x="18" y="25" /><rect fill="#3d3731" height="1" width="1" x="19" y="25" /><rect fill="#3d3731" height="1" width="1" x="20" y="25" /><rect fill="#3d3731" height="1" width="1" x="21" y="25" /><rect fill="#3d3731" height="1" width="1" x="22" y="25" /><rect fill="#3d3731" height="1" width="1" x="23" y="25" /><rect fill="#3d3731" height="1" width="1" x="24" y="25" /><rect fill="#3d3731" height="1" width="1" x="25" y="25" /><rect fill="#3d3731" height="1" width="1" x="26" y="25" /><rect fill="#3d3731" height="1" width="1" x="27" y="25" /><rect fill="#3d3731" height="1" width="1" x="28" y="25" /><rect fill="#3d3731" height="1" width="1" x="29" y="25" /><rect fill="#3d3731" height="1" width="1" x="62" y="25" /><rect fill="#3d3731" height="1" width="1" x="63" y="25" /><rect fill="#3d3731" height="1" width="1" x="0" y="26" /><rect fill="#3d3731" height="1" width="1" x="1" y="26" /><rect fill="#3d3731" height="1" width="1" x="10" y="26" /><rect fill="#3d3731" height="1" width="1" x="11" y="26" /><rect fill="#3d3731" height="1" width="1" x="12" y="26" /><rect fill="#3d3731" height="1" width="1" x="13" y="26" /><rect fill="#3d3731" height="1" width="1" x="14" y="26" /><rect fill="#3d3731" height="1" width="1" x="15" y="26" /><rect fill="#3d3731" height="1" width="1" x="16" y="26" /><rect fill="#3d3731" height="1" width="1" x="17" y="26" /><rect fill="#3d3731" height="1" width="1" x="18" y="26" /><rect fill="#3d3731" height="1" width="1" x="19" y="26" /><rect fill="#3d3731" height="1" width="1" x="20" y="26" /><rect fill="#3d3731" height="1" width="1" x="21" y="26" /><rect fill="#3d3731" height="1" width="1" x="22" y="26" /><rect fill="#3d3731" height="1" width="1" x="23" y="26" /><rect fill="#3d3731" height="1" width="1" x="24" y="26" /><rect fill="#3d3731" height="1" width="1" x="25" y="26" /><rect fill="#3d3731" height="1" width="1" x="26" y="26" /><rect fill="#3d3731" height="1" width="1" x="27" y="26" /><rect fill="#3d3731" height="1" width="1" x="28" y="26" /><rect fill="#3d3731" height="1" width="1" x="29" y="26" /><rect fill="#3d3731" height="1" width="1" x="36" y="26" /><rect fill="#3d3731" height="1" width="1" x="37" y="26" /><rect fill="#3d3731" height="1" width="1" x="38" y="26" /><rect fill="#3d3731" height="1" width="1" x="39" y="26" /><rect fill="#3d3731" height="1" width="1" x="40" y="26" /><rect fill="#3d3731" height="1" width="1" x="41" y="26" /><rect fill="#3d3731" height="1" width="1" x="42" y="26" /><rect fill="#3d3731" height="1" width="1" x="43" y="26" /><rect fill="#3d3731" height="1" width="1" x="44" y="26" /><rect fill="#3d3731" height="1" width="1" x="45" y="26" /><rect fill="#3d3731" height="1" width="1" x="46" y="26" /><rect fill="#3d3731" height="1" width="1" x="47" y="26" /><rect fill="#3d3731" height="1" width="1" x="62" y="26" /><rect fill="#3d3731" height="1" width="1" x="63" y="26" /><rect fill="#3d3731" height="1" width="1" x="0" y="27" /><rect fill="#3d3731" height="1" width="1" x="1" y="27" /><rect fill="#3d3731" height="1" width="1" x="10" y="27" /><rect fill="#3d3731" height="1" width="1" x="11" y="27" /><rect fill="#3d3731" height="1" width="1" x="12" y="27" /><rect fill="#3d3731" height="1" width="1" x="13" y="27" /><rect fill="#3d3731" height="1" width="1" x="14" y="27" /><rect fill="#3d3731" height="1" width="1" x="15" y="27" /><rect fill="#3d3731" height="1" width="1" x="16" y="27" /><rect fill="#3d3731" height="1" width="1" x="17" y="27" /><rect fill="#3d3731" height="1" width="1" x="18" y="27" /><rect fill="#3d3731" height="1" width="1" x="19" y="27" /><rect fill="#3d3731" height="1" width="1" x="20" y="27" /><rect fill="#3d3731" height="1" width="1" x="21" y="27" /><rect fill="#3d3731" height="1" width="1" x="22" y="27" /><rect fill="#3d3731" height="1" width="1" x="23" y="27" /><rect fill="#3d3731" height="1" width="1" x="24" y="27" /><rect fill="#3d3731" height="1" width="1" x="25" y="27" /><rect fill="#3d3731" height="1" width="1" x="26" y="27" /><rect fill="#3d3731" height="1" width="1" x="27" y="27" /><rect fill="#3d3731" height="1" width="1" x="28" y="27" /><rect fill="#3d3731" height="1" width="1" x="29" y="27" /><rect fill="#3d3731" height="1" width="1" x="36" y="27" /><rect fill="#3d3731" height="1" width="1" x="37" y="27" /><rect fill="#3d3731" height="1" width="1" x="38" y="27" /><rect fill="#3d3731" height="1" width="1" x="39" y="27" /><rect fill="#3d3731" height="1" width="1" x="40" y="27" /><rect fill="#3d3731" height="1" width="1" x="41" y="27" /><rect fill="#3d3731" height="1" width="1" x="42" y="27" /><rect fill="#3d3731" height="1" width="1" x="43" y="27" /><rect fill="#3d3731" height="1" width="1" x="44" y="27" /><rect fill="#3d3731" height="1" width="1" x="45" y="27" /><rect fill="#3d3731" height="1" width="1" x="46" y="27" /><rect fill="#3d3731" height="1" width="1" x="47" y="27" /><rect fill="#3d3731" height="1" width="1" x="62" y="27" /><rect fill="#3d3731" height="1" width="1" x="63" y="27" /><rect fill="#3d3731" height="1" width="1" x="0" y="28" /><rect fill="#3d3731" height="1" width="1" x="1" y="28" /><rect fill="#3d3731" height="1" width="1" x="10" y="28" /><rect fill="#3d3731" height="1" width="1" x="11" y="28" /><rect fill="#3d3731" height="1" width="1" x="12" y="28" /><rect fill="#3d3731" height="1" width="1" x="13" y="28" /><rect fill="#3d3731" height="1" width="1" x="14" y="28" /><rect fill="#3d3731" height="1" width="1" x="15" y="28" /><rect fill="#3d3731" height="1" width="1" x="16" y="28" /><rect fill="#3d3731" height="1" width="1" x="17" y="28" /><rect fill="#3d3731" height="1" width="1" x="18" y="28" /><rect fill="#3d3731" height="1" width="1" x="19" y="28" /><rect fill="#3d3731" height="1" width="1" x="20" y="28" /><rect fill="#3d3731" height="1" width="1" x="21" y="28" /><rect fill="#3d3731" height="1" width="1" x="22" y="28" /><rect fill="#3d3731" height="1" width="1" x="23" y="28" /><rect fill="#3d3731" height="1" width="1" x="24" y="28" /><rect fill="#3d3731" height="1" width="1" x="25" y="28" /><rect fill="#3d3731" height="1" width="1" x="26" y="28" /><rect fill="#3d3731" height="1" width="1" x="27" y="28" /><rect fill="#3d3731" height="1" width="1" x="28" y="28" /><rect fill="#3d3731" height="1" width="1" x="29" y="28" /><rect fill="#3d3731" height="1" width="1" x="36" y="28" /><rect fill="#3d3731" height="1" width="1" x="37" y="28" /><rect fill="#3d3731" height="1" width="1" x="38" y="28" /><rect fill="#3d3731" height="1" width="1" x="39" y="28" /><rect fill="#3d3731" height="1" width="1" x="40" y="28" /><rect fill="#3d3731" height="1" width="1" x="41" y="28" /><rect fill="#3d3731" height="1" width="1" x="42" y="28" /><rect fill="#3d3731" height="1" width="1" x="43" y="28" /><rect fill="#3d3731" height="1" width="1" x="44" y="28" /><rect fill="#3d3731" height="1" width="1" x="45" y="28" /><rect fill="#3d3731" height="1" width="1" x="46" y="28" /><rect fill="#3d3731" height="1" width="1" x="47" y="28" /><rect fill="#3d3731" height="1" width="1" x="62" y="28" /><rect fill="#3d3731" height="1" width="1" x="63" y="28" /><rect fill="#3d3731" height="1" width="1" x="0" y="29" /><rect fill="#3d3731" height="1" width="1" x="1" y="29" /><rect fill="#3d3731" height="1" width="1" x="10" y="29" /><rect fill="#3d3731" height="1" width="1" x="11" y="29" /><rect fill="#3d3731" height="1" width="1" x="12" y="29" /><rect fill="#3d3731" height="1" width="1" x="13" y="29" /><rect fill="#3d3731" height="1" width="1" x="14" y="29" /><rect fill="#3d3731" height="1" width="1" x="15" y="29" /><rect fill="#3d3731" height="1" width="1" x="16" y="29" /><rect fill="#3d3731" height="1" width="1" x="17" y="29" /><rect fill="#3d3731" height="1" width="1" x="18" y="29" /><rect fill="#3d3731" height="1" width="1" x="19" y="29" /><rect fill="#3d3731" height="1" width="1" x="20" y="29" /><rect fill="#3d3731" height="1" width="1" x="21" y="29" /><rect fill="#3d3731" height="1" width="1" x="22" y="29" /><rect fill="#3d3731" height="1" width="1" x="23" y="29" /><rect fill="#3d3731" height="1" width="1" x="24" y="29" /><rect fill="#3d3731" height="1" width="1" x="25" y="29" /><rect fill="#3d3731" height="1" width="1" x="26" y="29" /><rect fill="#3d3731" height="1" width="1" x="27" y="29" /><rect fill="#3d3731" height="1" width="1" x="28" y="29" /><rect fill="#3d3731" height="1" width="1" x="29" y="29" /><rect fill="#3d3731" height="1" width="1" x="62" y="29" /><rect fill="#3d3731" height="1" width="1" x="63" y="29" /><rect fill="#3d3731" height="1" width="1" x="0" y="30" /><rect fill="#3d3731" height="1" width="1" x="1" y="30" /><rect fill="#3d3731" height="1" width="1" x="10" y="30" /><rect fill="#3d3731" height="1" width="1" x="11" y="30" /><rect fill="#3d3731" height="1" width="1" x="12" y="30" /><rect fill="#3d3731" height="1" width="1" x="13" y="30" /><rect fill="#3d3731" height="1" width="1" x="14" y="30" /><rect fill="#3d3731" height="1" width="1" x="15" y="30" /><rect fill="#3d3731" height="1" width="1" x="16" y="30" /><rect fill="#3d3731" height="1" width="1" x="17" y="30" /><rect fill="#3d3731" height="1" width="1" x="18" y="30" /><rect fill="#3d3731" height="1" width="1" x="19" y="30" /><rect fill="#3d3731" height="1" width="1" x="20" y="30" /><rect fill="#3d3731" height="1" width="1" x="21" y="30" /><rect fill="#3d3731" height="1" width="1" x="22" y="30" /><rect fill="#3d3731" height="1" width="1" x="23" y="30" /><rect fill="#3d3731" height="1" width="1" x="24" y="30" /><rect fill="#3d3731" height="1" width="1" x="25" y="30" /><rect fill="#3d3731" height="1" width="1" x="26" y="30" /><rect fill="#3d3731" height="1" width="1" x="27" y="30" /><rect fill="#3d3731" height="1" width="1" x="28" y="30" /><rect fill="#3d3731" height="1" width="1" x="62" y="30" /><rect fill="#3d3731" height="1" width="1" x="63" y="30" /><rect fill="#3d3731" height="1" width="1" x="0" y="31" /><rect fill="#3d3731" height="1" width="1" x="1" y="31" /><rect fill="#3d3731" height="1" width="1" x="12" y="31" /><rect fill="#3d3731" height="1" width="1" x="13" y="31" /><rect fill="#3d3731" height="1" width="1" x="14" y="31" /><rect fill="#3d3731" height="1" width="1" x="15" y="31" /><rect fill="#3d3731" height="1" width="1" x="16" y="31" /><rect fill="#3d3731" height="1" width="1" x="17" y="31" /><rect fill="#3d3731" height="1" width="1" x="18" y="31" /><rect fill="#3d3731" height="1" width="1" x="19" y="31" /><rect fill="#3d3731" height="1" width="1" x="20" y="31" /><rect fill="#3d3731" height="1" width="1" x="21" y="31" /><rect fill="#3d3731" height="1" width="1" x="22" y="31" /><rect fill="#3d3731" height="1" width="1" x="23" y="31" /><rect fill="#3d3731" height="1" width="1" x="24" y="31" /><rect fill="#3d3731" height="1" width="1" x="25" y="31" /><rect fill="#3d3731" height="1" width="1" x="26" y="31" /><rect fill="#3d3731" height="1" width="1" x="27" y="31" /><rect fill="#3d3731" height="1" width="1" x="28" y="31" /><rect fill="#3d3731" height="1" width="1" x="62" y="31" /><rect fill="#3d3731" height="1" width="1" x="63" y="31" /><rect fill="#3d3731" height="1" width="1" x="0" y="32" /><rect fill="#3d3731" height="1" width="1" x="1" y="32" /><rect fill="#3d3731" height="1" width="1" x="62" y="32" /><rect fill="#3d3731" height="1" width="1" x="63" y="32" /><rect fill="#3d3731" height="1" width="1" x="0" y="33" /><rect fill="#3d3731" height="1" width="1" x="1" y="33" /><rect fill="#3d3731" height="1" width="1" x="62" y="33" /><rect fill="#3d3731" height="1" width="1" x="63" y="33" /><rect fill="#3d3731" height="1" width="1" x="0" y="34" /><rect fill="#3d3731" height="1" width="1" x="1" y="34" /><rect fill="#3d3731" height="1" width="1" x="62" y="34" /><rect fill="#3d3731" height="1" width="1" x="63" y="34" /><rect fill="#3d3731" height="1" width="1" x="0" y="35" /><rect fill="#3d3731" height="1" width="1" x="1" y="35" /><rect fill="#3d3731" height="1" width="1" x="62" y="35" /><rect fill="#3d3731" height="1" width="1" x="63" y="35" /><rect fill="#3d3731" height="1" width="1" x="0" y="36" /><rect fill="#3d3731" height="1" width="1" x="1" y="36" /><rect fill="#3d3731" height="1" width="1" x="62" y="36" /><rect fill="#3d3731" height="1" width="1" x="63" y="36" /><rect fill="#3d3731" height="1" width="1" x="0" y="37" /><rect fill="#3d3731" height="1" width="1" x="1" y="37" /><rect fill="#3d3731" height="1" width="1" x="62" y="37" /><rect fill="#3d3731" height="1" width="1" x="63" y="37" /><rect fill="#3d3731" height="1" width="1" x="0" y="38" /><rect fill="#3d3731" height="1" width="1" x="1" y="38" /><rect fill="#3d3731" height="1" width="1" x="62" y="38" /><rect fill="#3d3731" height="1" width="1" x="63" y="38" /><rect fill="#3d3731" height="1" width="1" x="0" y="39" /><rect fill="#3d3731" height="1" width="1" x="1" y="39" /><rect fill="#3d3731" height="1" width="1" x="62" y="39" /><rect fill="#3d3731" height="1" width="1" x="63" y="39" /><rect fill="#3d3731" height="1" width="1" x="0" y="40" /><rect fill="#3d3731" height="1" width="1" x="1" y="40" /><rect fill="#3d3731" height="1" width="1" x="62" y="40" /><rect fill="#3d3731" height="1" width="1" x="63" y="40" /><rect fill="#3d3731" height="1" width="1" x="0" y="41" /><rect fill="#3d3731" height="1" width="1" x="1" y="41" /><rect fill="#3d3731" height="1" width="1" x="62" y="41" /><rect fill="#3d3731" height="1" width="1" x="63" y="41" /><rect fill="#3d3731" height="1" width="1" x="0" y="42" /><rect fill="#3d3731" height="1" width="1" x="1" y="42" /><rect fill="#3d3731" height="1" width="1" x="62" y="42" /><rect fill="#3d3731" height="1" width="1" x="63" y="42" /><rect fill="#3d3731" height="1" width="1" x="1" y="43" /><rect fill="#3d3731" height="1" width="1" x="2" y="43" /><rect fill="#3d3731" height="1" width="1" x="61" y="43" /><rect fill="#3d3731" height="1" width="1" x="62" y="43" /><rect fill="#3d3731" height="1" width="1" x="2" y="44" /><rect fill="#3d3731" height="1" width="1" x="3" y="44" /><rect fill="#3d3731" height="1" width="1" x="60" y="44" /><rect fill="#3d3731" height="1" width="1" x="61" y="44" /><rect fill="#3d3731" height="1" width="1" x="2" y="45" /><rect fill="#3d3731" height="1" width="1" x="3" y="45" /><rect fill="#3d3731" height="1" width="1" x="4" y="45" /><rect fill="#3d3731" height="1" width="1" x="59" y="45" /><rect fill="#3d3731" height="1" width="1" x="60" y="45" /><rect fill="#3d3731" height="1" width="1" x="61" y="45" /><rect fill="#3d3731" height="1" width="1" x="4" y="46" /><rect fill="#3d3731" height="1" width="1" x="5" y="46" /><rect fill="#3d3731" height="1" width="1" x="6" y="46" /><rect fill="#3d3731" height="1" width="1" x="7" y="46" /><rect fill="#3d3731" height="1" width="1" x="8" y="46" /><rect fill="#3d3731" height="1" width="1" x="9" y="46" /><rect fill="#3d3731" height="1" width="1" x="10" y="46" /><rect fill="#3d3731" height="1" width="1" x="11" y="46" /><rect fill="#3d3731" height="1" width="1" x="12" y="46" /><rect fill="#3d3731" height="1" width="1" x="13" y="46" /><rect fill="#3d3731" height="1" width="1" x="14" y="46" /><rect fill="#3d3731" height="1" width="1" x="15" y="46" /><rect fill="#3d3731" height="1" width="1" x="16" y="46" /><rect fill="#3d3731" height="1" width="1" x="17" y="46" /><rect fill="#3d3731" height="1" width="1" x="18" y="46" /><rect fill="#3d3731" height="1" width="1" x="19" y="46" /><rect fill="#3d3731" height="1" width="1" x="20" y="46" /><rect fill="#3d3731" height="1" width="1" x="21" y="46" /><rect fill="#3d3731" height="1" width="1" x="22" y="46" /><rect fill="#3d3731" height="1" width="1" x="23" y="46" /><rect fill="#3d3731" height="1" width="1" x="24" y="46" /><rect fill="#3d3731" height="1" width="1" x="25" y="46" /><rect fill="#3d3731" height="1" width="1" x="26" y="46" /><rect fill="#3d3731" height="1" width="1" x="27" y="46" /><rect fill="#3d3731" height="1" width="1" x="28" y="46" /><rect fill="#3d3731" height="1" width="1" x="29" y="46" /><rect fill="#3d3731" height="1" width="1" x="30" y="46" /><rect fill="#3d3731" height="1" width="1" x="31" y="46" /><rect fill="#3d3731" height="1" width="1" x="32" y="46" /><rect fill="#3d3731" height="1" width="1" x="33" y="46" /><rect fill="#3d3731" height="1" width="1" x="34" y="46" /><rect fill="#3d3731" height="1" width="1" x="35" y="46" /><rect fill="#3d3731" height="1" width="1" x="36" y="46" /><rect fill="#3d3731" height="1" width="1" x="37" y="46" /><rect fill="#3d3731" height="1" width="1" x="38" y="46" /><rect fill="#3d3731" height="1" width="1" x="39" y="46" /><rect fill="#3d3731" height="1" width="1" x="40" y="46" /><rect fill="#3d3731" height="1" width="1" x="41" y="46" /><rect fill="#3d3731" height="1" width="1" x="42" y="46" /><rect fill="#3d3731" height="1" width="1" x="43" y="46" /><rect fill="#3d3731" height="1" width="1" x="44" y="46" /><rect fill="#3d3731" height="1" width="1" x="45" y="46" /><rect fill="#3d3731" height="1" width="1" x="46" y="46" /><rect fill="#3d3731" height="1" width="1" x="47" y="46" /><rect fill="#3d3731" height="1" width="1" x="48" y="46" /><rect fill="#3d3731" height="1" width="1" x="49" y="46" /><rect fill="#3d3731" height="1" width="1" x="50" y="46" /><rect fill="#3d3731" height="1" width="1" x="51" y="46" /><rect fill="#3d3731" height="1" width="1" x="52" y="46" /><rect fill="#3d3731" height="1" width="1" x="53" y="46" /><rect fill="#3d3731" height="1" width="1" x="54" y="46" /><rect fill="#3d3731" height="1" width="1" x="55" y="46" /><rect fill="#3d3731" height="1" width="1" x="56" y="46" /><rect fill="#3d3731" height="1" width="1" x="57" y="46" /><rect fill="#3d3731" height="1" width="1" x="58" y="46" /><rect fill="#3d3731" height="1" width="1" x="59" y="46" /><rect fill="#3d3731" height="1" width="1" x="5" y="47" /><rect fill="#3d3731" height="1" width="1" x="6" y="47" /><rect fill="#3d3731" height="1" width="1" x="7" y="47" /><rect fill="#3d3731" height="1" width="1" x="8" y="47" /><rect fill="#3d3731" height="1" width="1" x="9" y="47" /><rect fill="#3d3731" height="1" width="1" x="10" y="47" /><rect fill="#3d3731" height="1" width="1" x="11" y="47" /><rect fill="#3d3731" height="1" width="1" x="12" y="47" /><rect fill="#3d3731" height="1" width="1" x="13" y="47" /><rect fill="#3d3731" height="1" width="1" x="14" y="47" /><rect fill="#3d3731" height="1" width="1" x="15" y="47" /><rect fill="#3d3731" height="1" width="1" x="16" y="47" /><rect fill="#3d3731" height="1" width="1" x="17" y="47" /><rect fill="#3d3731" height="1" width="1" x="18" y="47" /><rect fill="#3d3731" height="1" width="1" x="19" y="47" /><rect fill="#3d3731" height="1" width="1" x="20" y="47" /><rect fill="#3d3731" height="1" width="1" x="21" y="47" /><rect fill="#3d3731" height="1" width="1" x="22" y="47" /><rect fill="#3d3731" height="1" width="1" x="23" y="47" /><rect fill="#3d3731" height="1" width="1" x="24" y="47" /><rect fill="#3d3731" height="1" width="1" x="25" y="47" /><rect fill="#3d3731" height="1" width="1" x="26" y="47" /><rect fill="#3d3731" height="1" width="1" x="27" y="47" /><rect fill="#3d3731" height="1" width="1" x="28" y="47" /><rect fill="#3d3731" height="1" width="1" x="29" y="47" /><rect fill="#3d3731" height="1" width="1" x="30" y="47" /><rect fill="#3d3731" height="1" width="1" x="31" y="47" /><rect fill="#3d3731" height="1" width="1" x="32" y="47" /><rect fill="#3d3731" height="1" width="1" x="33" y="47" /><rect fill="#3d3731" height="1" width="1" x="34" y="47" /><rect fill="#3d3731" height="1" width="1" x="35" y="47" /><rect fill="#3d3731" height="1" width="1" x="36" y="47" /><rect fill="#3d3731" height="1" width="1" x="37" y="47" /><rect fill="#3d3731" height="1" width="1" x="38" y="47" /><rect fill="#3d3731" height="1" width="1" x="39" y="47" /><rect fill="#3d3731" height="1" width="1" x="40" y="47" /><rect fill="#3d3731" height="1" width="1" x="41" y="47" /><rect fill="#3d3731" height="1" width="1" x="42" y="47" /><rect fill="#3d3731" height="1" width="1" x="43" y="47" /><rect fill="#3d3731" height="1" width="1" x="44" y="47" /><rect fill="#3d3731" height="1" width="1" x="45" y="47" /><rect fill="#3d3731" height="1" width="1" x="46" y="47" /><rect fill="#3d3731" height="1" width="1" x="47" y="47" /><rect fill="#3d3731" height="1" width="1" x="48" y="47" /><rect fill="#3d3731" height="1" width="1" x="49" y="47" /><rect fill="#3d3731" height="1" width="1" x="50" y="47" /><rect fill="#3d3731" height="1" width="1" x="51" y="47" /><rect fill="#3d3731" height="1" width="1" x="52" y="47" /><rect fill="#3d3731" height="1" width="1" x="53" y="47" /><rect fill="#3d3731" height="1" width="1" x="54" y="47" /><rect fill="#3d3731" height="1" width="1" x="55" y="47" /><rect fill="#3d3731" height="1" width="1" x="56" y="47" /><rect fill="#3d3731" height="1" width="1" x="57" y="47" /><rect fill="#3d3731" height="1" width="1" x="58" y="47" /></svg>