<?xml version="1.0" encoding="utf-8" ?>
<svg baseProfile="tiny" height="48" version="1.2" viewBox="0,0,32,48" width="32" xmlns="http://www.w3.org/2000/svg" xmlns:ev="http://www.w3.org/2001/xml-events" xmlns:xlink="http://www.w3.org/1999/xlink"><defs /><rect fill="#3d3731" height="1" width="1" x="4" y="0" /><rect fill="#3d3731" height="1" width="1" x="5" y="0" /><rect fill="#3d3731" height="1" width="1" x="6" y="0" /><rect fill="#3d3731" height="1" width="1" x="7" y="0" /><rect fill="#3d3731" height="1" width="1" x="8" y="0" /><rect fill="#3d3731" height="1" width="1" x="9" y="0" /><rect fill="#3d3731" height="1" width="1" x="10" y="0" /><rect fill="#3d3731" height="1" width="1" x="11" y="0" /><rect fill="#3d3731" height="1" width="1" x="12" y="0" /><rect fill="#3d3731" height="1" width="1" x="13" y="0" /><rect fill="#3d3731" height="1" width="1" x="14" y="0" /><rect fill="#3d3731" height="1" width="1" x="15" y="0" /><rect fill="#3d3731" height="1" width="1" x="16" y="0" /><rect fill="#3d3731" height="1" width="1" x="17" y="0" /><rect fill="#3d3731" height="1" width="1" x="18" y="0" /><rect fill="#3d3731" height="1" width="1" x="19" y="0" /><rect fill="#3d3731" height="1" width="1" x="20" y="0" /><rect fill="#3d3731" height="1" width="1" x="21" y="0" /><rect fill="#3d3731" height="1" width="1" x="22" y="0" /><rect fill="#3d3731" height="1" width="1" x="23" y="0" /><rect fill="#3d3731" height="1" width="1" x="24" y="0" /><rect fill="#3d3731" height="1" width="1" x="25" y="0" /><rect fill="#3d3731" height="1" width="1" x="26" y="0" /><rect fill="#3d3731" height="1" width="1" x="27" y="0" /><rect fill="#3d3731" height="1" width="1" x="3" y="1" /><rect fill="#3d3731" height="1" width="1" x="4" y="1" /><rect fill="#3d3731" height="1" width="1" x="5" y="1" /><rect fill="#3d3731" height="1" width="1" x="6" y="1" /><rect fill="#3d3731" height="1" width="1" x="7" y="1" /><rect fill="#3d3731" height="1" width="1" x="8" y="1" /><rect fill="#3d3731" height="1" width="1" x="9" y="1" /><rect fill="#3d3731" height="1" width="1" x="10" y="1" /><rect fill="#3d3731" height="1" width="1" x="11" y="1" /><rect fill="#3d3731" height="1" width="1" x="12" y="1" /><rect fill="#3d3731" height="1" width="1" x="13" y="1" /><rect fill="#3d3731" height="1" width="1" x="14" y="1" /><rect fill="#3d3731" height="1" width="1" x="15" y="1" /><rect fill="#3d3731" height="1" width="1" x="16" y="1" /><rect fill="#3d3731" height="1" width="1" x="17" y="1" /><rect fill="#3d3731" height="1" width="1" x="18" y="1" /><rect fill="#3d3731" height="1" width="1" x="19" y="1" /><rect fill="#3d3731" height="1" width="1" x="20" y="1" /><rect fill="#3d3731" height="1" width="1" x="21" y="1" /><rect fill="#3d3731" height="1" width="1" x="22" y="1" /><rect fill="#3d3731" height="1" width="1" x="23" y="1" /><rect fill="#3d3731" height="1" width="1" x="24" y="1" /><rect fill="#3d3731" height="1" width="1" x="25" y="1" /><rect fill="#3d3731" height="1" width="1" x="26" y="1" /><rect fill="#3d3731" height="1" width="1" x="27" y="1" /><rect fill="#3d3731" height="1" width="1" x="28" y="1" /><rect fill="#3d3731" height="1" width="1" x="2" y="2" /><rect fill="#3d3731" height="1" width="1" x="3" y="2" /><rect fill="#3d3731" height="1" width="1" x="4" y="2" /><rect fill="#3d3731" height="1" width="1" x="5" y="2" /><rect fill="#3d3731" height="1" width="1" x="6" y="2" /><rect fill="#3d3731" height="1" width="1" x="25" y="2" /><rect fill="#3d3731" height="1" width="1" x="26" y="2" /><rect fill="#3d3731" height="1" width="1" x="27" y="2" /><rect fill="#3d3731" height="1" width="1" x="28" y="2" /><rect fill="#3d3731" height="1" width="1" x="29" y="2" /><rect fill="#3d3731" height="1" width="1" x="1" y="3" /><rect fill="#3d3731" height="1" width="1" x="2" y="3" /><rect fill="#3d3731" height="1" width="1" x="3" y="3" /><rect fill="#3d3731" height="1" width="1" x="4" y="3" /><rect fill="#3d3731" height="1" width="1" x="27" y="3" /><rect fill="#3d3731" height="1" width="1" x="28" y="3" /><rect fill="#3d3731" height="1" width="1" x="29" y="3" /><rect fill="#3d3731" height="1" width="1" x="30" y="3" /><rect fill="#3d3731" height="1" width="1" x="0" y="4" /><rect fill="#3d3731" height="1" width="1" x="1" y="4" /><rect fill="#3d3731" height="1" width="1" x="2" y="4" /><rect fill="#3d3731" height="1" width="1" x="3" y="4" /><rect fill="#3d3731" height="1" width="1" x="28" y="4" /><rect fill="#3d3731" height="1" width="1" x="29" y="4" /><rect fill="#3d3731" height="1" width="1" x="30" y="4" /><rect fill="#3d3731" height="1" width="1" x="31" y="4" /><rect fill="#3d3731" height="1" width="1" x="0" y="5" /><rect fill="#3d3731" height="1" width="1" x="1" y="5" /><rect fill="#3d3731" height="1" width="1" x="2" y="5" /><rect fill="#3d3731" height="1" width="1" x="29" y="5" /><rect fill="#3d3731" height="1" width="1" x="30" y="5" /><rect fill="#3d3731" height="1" width="1" x="31" y="5" /><rect fill="#3d3731" height="1" width="1" x="0" y="6" /><rect fill="#3d3731" height="1" width="1" x="1" y="6" /><rect fill="#3d3731" height="1" width="1" x="2" y="6" /><rect fill="#3d3731" height="1" width="1" x="29" y="6" /><rect fill="#3d3731" height="1" width="1" x="30" y="6" /><rect fill="#3d3731" height="1" width="1" x="31" y="6" /><rect fill="#3d3731" height="1" width="1" x="0" y="7" /><rect fill="#3d3731" height="1" width="1" x="1" y="7" /><rect fill="#3d3731" height="1" width="1" x="30" y="7" /><rect fill="#3d3731" height="1" width="1" x="31" y="7" /><rect fill="#3d3731" height="1" width="1" x="0" y="8" /><rect fill="#3d3731" height="1" width="1" x="1" y="8" /><rect fill="#3d3731" height="1" width="1" x="30" y="8" /><rect fill="#3d3731" height="1" width="1" x="31" y="8" /><rect fill="#3d3731" height="1" width="1" x="0" y="9" /><rect fill="#3d3731" height="1" width="1" x="1" y="9" /><rect fill="#3d3731" height="1" width="1" x="30" y="9" /><rect fill="#3d3731" height="1" width="1" x="31" y="9" /><rect fill="#3d3731" height="1" width="1" x="0" y="10" /><rect fill="#3d3731" height="1" width="1" x="1" y="10" /><rect fill="#3d3731" height="1" width="1" x="30" y="10" /><rect fill="#3d3731" height="1" width="1" x="31" y="10" /><rect fill="#3d3731" height="1" width="1" x="0" y="11" /><rect fill="#3d3731" height="1" width="1" x="1" y="11" /><rect fill="#3d3731" height="1" width="1" x="30" y="11" /><rect fill="#3d3731" height="1" width="1" x="31" y="11" /><rect fill="#3d3731" height="1" width="1" x="0" y="12" /><rect fill="#3d3731" height="1" width="1" x="1" y="12" /><rect fill="#3d3731" height="1" width="1" x="6" y="12" /><rect fill="#3d3731" height="1" width="1" x="7" y="12" /><rect fill="#3d3731" height="1" width="1" x="8" y="12" /><rect fill="#3d3731" height="1" width="1" x="9" y="12" /><rect fill="#3d3731" height="1" width="1" x="10" y="12" /><rect fill="#3d3731" height="1" width="1" x="11" y="12" /><rect fill="#3d3731" height="1" width="1" x="12" y="12" /><rect fill="#3d3731" height="1" width="1" x="13" y="12" /><rect fill="#3d3731" height="1" width="1" x="14" y="12" /><rect fill="#3d3731" height="1" width="1" x="15" y="12" /><rect fill="#3d3731" height="1" width="1" x="16" y="12" /><rect fill="#3d3731" height="1" width="1" x="17" y="12" /><rect fill="#3d3731" height="1" width="1" x="18" y="12" /><rect fill="#3d3731" height="1" width="1" x="19" y="12" /><rect fill="#3d3731" height="1" width="1" x="20" y="12" /><rect fill="#3d3731" height="1" width="1" x="21" y="12" /><rect fill="#3d3731" height="1" width="1" x="30" y="12" /><rect fill="#3d3731" height="1" width="1" x="31" y="12" /><rect fill="#3d3731" height="1" width="1" x="0" y="13" /><rect fill="#3d3731" height="1" width="1" x="1" y="13" /><rect fill="#3d3731" height="1" width="1" x="6" y="13" /><rect fill="#3d3731" height="1" width="1" x="7" y="13" /><rect fill="#3d3731" height="1" width="1" x="8" y="13" /><rect fill="#3d3731" height="1" width="1" x="9" y="13" /><rect fill="#3d3731" height="1" width="1" x="10" y="13" /><rect fill="#3d3731" height="1" width="1" x="11" y="13" /><rect fill="#3d3731" height="1" width="1" x="12" y="13" /><rect fill="#3d3731" height="1" width="1" x="13" y="13" /><rect fill="#3d3731" height="1" width="1" x="14" y="13" /><rect fill="#3d3731" height="1" width="1" x="15" y="13" /><rect fill="#3d3731" height="1" width="1" x="16" y="13" /><rect fill="#3d3731" height="1" width="1" x="17" y="13" /><rect fill="#3d3731" height="1" width="1" x="18" y="13" /><rect fill="#3d3731" height="1" width="1" x="19" y="13" /><rect fill="#3d3731" height="1" width="1" x="20" y="13" /><rect fill="#3d3731" height="1" width="1" x="21" y="13" /><rect fill="#3d3731" height="1" width="1" x="30" y="13" /><rect fill="#3d3731" height="1" width="1" x="31" y="13" /><rect fill="#3d3731" height="1" width="1" x="0" y="14" /><rect fill="#3d3731" height="1" width="1" x="1" y="14" /><rect fill="#3d3731" height="1" width="1" x="6" y="14" /><rect fill="#3d3731" height="1" width="1" x="7" y="14" /><rect fill="#3d3731" height="1" width="1" x="8" y="14" /><rect fill="#3d3731" height="1" width="1" x="9" y="14" /><rect fill="#3d3731" height="1" width="1" x="10" y="14" /><rect fill="#3d3731" height="1" width="1" x="11" y="14" /><rect fill="#3d3731" height="1" width="1" x="12" y="14" /><rect fill="#3d3731" height="1" width="1" x="13" y="14" /><rect fill="#3d3731" height="1" width="1" x="14" y="14" /><rect fill="#3d3731" height="1" width="1" x="15" y="14" /><rect fill="#3d3731" height="1" width="1" x="16" y="14" /><rect fill="#3d3731" height="1" width="1" x="17" y="14" /><rect fill="#3d3731" height="1" width="1" x="18" y="14" /><rect fill="#3d3731" height="1" width="1" x="19" y="14" /><rect fill="#3d3731" height="1" width="1" x="20" y="14" /><rect fill="#3d3731" height="1" width="1" x="21" y="14" /><rect fill="#3d3731" height="1" width="1" x="30" y="14" /><rect fill="#3d3731" height="1" width="1" x="31" y="14" /><rect fill="#3d3731" height="1" width="1" x="0" y="15" /><rect fill="#3d3731" height="1" width="1" x="1" y="15" /><rect fill="#3d3731" height="1" width="1" x="30" y="15" /><rect fill="#3d3731" height="1" width="1" x="31" y="15" /><rect fill="#3d3731" height="1" width="1" x="0" y="16" /><rect fill="#3d3731" height="1" width="1" x="1" y="16" /><rect fill="#3d3731" height="1" width="1" x="30" y="16" /><rect fill="#3d3731" height="1" width="1" x="31" y="16" /><rect fill="#3d3731" height="1" width="1" x="0" y="17" /><rect fill="#3d3731" height="1" width="1" x="1" y="17" /><rect fill="#3d3731" height="1" width="1" x="30" y="17" /><rect fill="#3d3731" height="1" width="1" x="31" y="17" /><rect fill="#3d3731" height="1" width="1" x="0" y="18" /><rect fill="#3d3731" height="1" width="1" x="1" y="18" /><rect fill="#3d3731" height="1" width="1" x="7" y="18" /><rect fill="#3d3731" height="1" width="1" x="8" y="18" /><rect fill="#3d3731" height="1" width="1" x="9" y="18" /><rect fill="#3d3731" height="1" width="1" x="10" y="18" /><rect fill="#3d3731" height="1" width="1" x="11" y="18" /><rect fill="#3d3731" height="1" width="1" x="12" y="18" /><rect fill="#3d3731" height="1" width="1" x="13" y="18" /><rect fill="#3d3731" height="1" width="1" x="14" y="18" /><rect fill="#3d3731" height="1" width="1" x="15" y="18" /><rect fill="#3d3731" height="1" width="1" x="16" y="18" /><rect fill="#3d3731" height="1" width="1" x="17" y="18" /><rect fill="#3d3731" height="1" width="1" x="18" y="18" /><rect fill="#3d3731" height="1" width="1" x="19" y="18" /><rect fill="#3d3731" height="1" width="1" x="20" y="18" /><rect fill="#3d3731" height="1" width="1" x="21" y="18" /><rect fill="#3d3731" height="1" width="1" x="22" y="18" /><rect fill="#3d3731" height="1" width="1" x="23" y="18" /><rect fill="#3d3731" height="1" width="1" x="24" y="18" /><rect fill="#3d3731" height="1" width="1" x="30" y="18" /><rect fill="#3d3731" height="1" width="1" x="31" y="18" /><rect fill="#3d3731" height="1" width="1" x="0" y="19" /><rect fill="#3d3731" height="1" width="1" x="1" y="19" /><rect fill="#3d3731" height="1" width="1" x="6" y="19" /><rect fill="#3d3731" height="1" width="1" x="7" y="19" /><rect fill="#3d3731" height="1" width="1" x="8" y="19" /><rect fill="#3d3731" height="1" width="1" x="9" y="19" /><rect fill="#3d3731" height="1" width="1" x="10" y="19" /><rect fill="#3d3731" height="1" width="1" x="11" y="19" /><rect fill="#3d3731" height="1" width="1" x="12" y="19" /><rect fill="#3d3731" height="1" width="1" x="13" y="19" /><rect fill="#3d3731" height="1" width="1" x="14" y="19" /><rect fill="#3d3731" height="1" width="1" x="15" y="19" /><rect fill="#3d3731" height="1" width="1" x="16" y="19" /><rect fill="#3d3731" height="1" width="1" x="17" y="19" /><rect fill="#3d3731" height="1" width="1" x="18" y="19" /><rect fill="#3d3731" height="1" width="1" x="19" y="19" /><rect fill="#3d3731" height="1" width="1" x="20" y="19" /><rect fill="#3d3731" height="1" width="1" x="21" y="19" /><rect fill="#3d3731" height="1" width="1" x="22" y="19" /><rect fill="#3d3731" height="1" width="1" x="23" y="19" /><rect fill="#3d3731" height="1" width="1" x="24" y="19" /><rect fill="#3d3731" height="1" width="1" x="25" y="19" /><rect fill="#3d3731" height="1" width="1" x="30" y="19" /><rect fill="#3d3731" height="1" width="1" x="31" y="19" /><rect fill="#3d3731" height="1" width="1" x="0" y="20" /><rect fill="#3d3731" height="1" width="1" x="1" y="20" /><rect fill="#3d3731" height="1" width="1" x="6" y="20" /><rect fill="#3d3731" height="1" width="1" x="7" y="20" /><rect fill="#3d3731" height="1" width="1" x="8" y="20" /><rect fill="#3d3731" height="1" width="1" x="9" y="20" /><rect fill="#3d3731" height="1" width="1" x="10" y="20" /><rect fill="#3d3731" height="1" width="1" x="11" y="20" /><rect fill="#3d3731" height="1" width="1" x="12" y="20" /><rect fill="#3d3731" height="1" width="1" x="13" y="20" /><rect fill="#3d3731" height="1" width="1" x="14" y="20" /><rect fill="#3d3731" height="1" width="1" x="15" y="20" /><rect fill="#3d3731" height="1" width="1" x="16" y="20" /><rect fill="#3d3731" height="1" width="1" x="17" y="20" /><rect fill="#3d3731" height="1" width="1" x="18" y="20" /><rect fill="#3d3731" height="1" width="1" x="19" y="20" /><rect fill="#3d3731" height="1" width="1" x="20" y="20" /><rect fill="#3d3731" height="1" width="1" x="21" y="20" /><rect fill="#3d3731" height="1" width="1" x="22" y="20" /><rect fill="#3d3731" height="1" width="1" x="23" y="20" /><rect fill="#3d3731" height="1" width="1" x="24" y="20" /><rect fill="#3d3731" height="1" width="1" x="25" y="20" /><rect fill="#3d3731" height="1" width="1" x="30" y="20" /><rect fill="#3d3731" height="1" width="1" x="31" y="20" /><rect fill="#3d3731" height="1" width="1" x="0" y="21" /><rect fill="#3d3731" height="1" width="1" x="1" y="21" /><rect fill="#3d3731" height="1" width="1" x="6" y="21" /><rect fill="#3d3731" height="1" width="1" x="7" y="21" /><rect fill="#3d3731" height="1" width="1" x="8" y="21" /><rect fill="#3d3731" height="1" width="1" x="9" y="21" /><rect fill="#3d3731" height="1" width="1" x="10" y="21" /><rect fill="#3d3731" height="1" width="1" x="11" y="21" /><rect fill="#3d3731" height="1" width="1" x="12" y="21" /><rect fill="#3d3731" height="1" width="1" x="13" y="21" /><rect fill="#3d3731" height="1" width="1" x="14" y="21" /><rect fill="#3d3731" height="1" width="1" x="15" y="21" /><rect fill="#3d3731" height="1" width="1" x="16" y="21" /><rect fill="#3d3731" height="1" width="1" x="17" y="21" /><rect fill="#3d3731" height="1" width="1" x="18" y="21" /><rect fill="#3d3731" height="1" width="1" x="19" y="21" /><rect fill="#3d3731" height="1" width="1" x="20" y="21" /><rect fill="#3d3731" height="1" width="1" x="21" y="21" /><rect fill="#3d3731" height="1" width="1" x="22" y="21" /><rect fill="#3d3731" height="1" width="1" x="23" y="21" /><rect fill="#3d3731" height="1" width="1" x="24" y="21" /><rect fill="#3d3731" height="1" width="1" x="25" y="21" /><rect fill="#3d3731" height="1" width="1" x="30" y="21" /><rect fill="#3d3731" height="1" width="1" x="31" y="21" /><rect fill="#3d3731" height="1" width="1" x="0" y="22" /><rect fill="#3d3731" height="1" width="1" x="1" y="22" /><rect fill="#3d3731" height="1" width="1" x="6" y="22" /><rect fill="#3d3731" height="1" width="1" x="7" y="22" /><rect fill="#3d3731" height="1" width="1" x="8" y="22" /><rect fill="#3d3731" height="1" width="1" x="9" y="22" /><rect fill="#3d3731" height="1" width="1" x="10" y="22" /><rect fill="#3d3731" height="1" width="1" x="11" y="22" /><rect fill="#3d3731" height="1" width="1" x="12" y="22" /><rect fill="#3d3731" height="1" width="1" x="13" y="22" /><rect fill="#3d3731" height="1" width="1" x="14" y="22" /><rect fill="#3d3731" height="1" width="1" x="15" y="22" /><rect fill="#3d3731" height="1" width="1" x="16" y="22" /><rect fill="#3d3731" height="1" width="1" x="17" y="22" /><rect fill="#3d3731" height="1" width="1" x="18" y="22" /><rect fill="#3d3731" height="1" width="1" x="19" y="22" /><rect fill="#3d3731" height="1" width="1" x="20" y="22" /><rect fill="#3d3731" height="1" width="1" x="21" y="22" /><rect fill="#3d3731" height="1" width="1" x="22" y="22" /><rect fill="#3d3731" height="1" width="1" x="23" y="22" /><rect fill="#3d3731" height="1" width="1" x="24" y="22" /><rect fill="#3d3731" height="1" width="1" x="25" y="22" /><rect fill="#3d3731" height="1" width="1" x="30" y="22" /><rect fill="#3d3731" height="1" width="1" x="31" y="22" /><rect fill="#3d3731" height="1" width="1" x="0" y="23" /><rect fill="#3d3731" height="1" width="1" x="1" y="23" /><rect fill="#3d3731" height="1" width="1" x="6" y="23" /><rect fill="#3d3731" height="1" width="1" x="7" y="23" /><rect fill="#3d3731" height="1" width="1" x="8" y="23" /><rect fill="#3d3731" height="1" width="1" x="9" y="23" /><rect fill="#3d3731" height="1" width="1" x="10" y="23" /><rect fill="#3d3731" height="1" width="1" x="11" y="23" /><rect fill="#3d3731" height="1" width="1" x="12" y="23" /><rect fill="#3d3731" height="1" width="1" x="13" y="23" /><rect fill="#3d3731" height="1" width="1" x="14" y="23" /><rect fill="#3d3731" height="1" width="1" x="15" y="23" /><rect fill="#3d3731" height="1" width="1" x="16" y="23" /><rect fill="#3d3731" height="1" width="1" x="17" y="23" /><rect fill="#3d3731" height="1" width="1" x="18" y="23" /><rect fill="#3d3731" height="1" width="1" x="19" y="23" /><rect fill="#3d3731" height="1" width="1" x="20" y="23" /><rect fill="#3d3731" height="1" width="1" x="21" y="23" /><rect fill="#3d3731" height="1" width="1" x="22" y="23" /><rect fill="#3d3731" height="1" width="1" x="23" y="23" /><rect fill="#3d3731" height="1" width="1" x="24" y="23" /><rect fill="#3d3731" height="1" width="1" x="25" y="23" /><rect fill="#3d3731" height="1" width="1" x="30" y="23" /><rect fill="#3d3731" height="1" width="1" x="31" y="23" /><rect fill="#3d3731" height="1" width="1" x="0" y="24" /><rect fill="#3d3731" height="1" width="1" x="1" y="24" /><rect fill="#3d3731" height="1" width="1" x="6" y="24" /><rect fill="#3d3731" height="1" width="1" x="7" y="24" /><rect fill="#3d3731" height="1" width="1" x="8" y="24" /><rect fill="#3d3731" height="1" width="1" x="9" y="24" /><rect fill="#3d3731" height="1" width="1" x="10" y="24" /><rect fill="#3d3731" height="1" width="1" x="11" y="24" /><rect fill="#3d3731" height="1" width="1" x="12" y="24" /><rect fill="#3d3731" height="1" width="1" x="13" y="24" /><rect fill="#3d3731" height="1" width="1" x="14" y="24" /><rect fill="#3d3731" height="1" width="1" x="15" y="24" /><rect fill="#3d3731" height="1" width="1" x="16" y="24" /><rect fill="#3d3731" height="1" width="1" x="17" y="24" /><rect fill="#3d3731" height="1" width="1" x="18" y="24" /><rect fill="#3d3731" height="1" width="1" x="19" y="24" /><rect fill="#3d3731" height="1" width="1" x="20" y="24" /><rect fill="#3d3731" height="1" width="1" x="21" y="24" /><rect fill="#3d3731" height="1" width="1" x="22" y="24" /><rect fill="#3d3731" height="1" width="1" x="23" y="24" /><rect fill="#3d3731" height="1" width="1" x="24" y="24" /><rect fill="#3d3731" height="1" width="1" x="25" y="24" /><rect fill="#3d3731" height="1" width="1" x="30" y="24" /><rect fill="#3d3731" height="1" width="1" x="31" y="24" /><rect fill="#3d3731" height="1" width="1" x="0" y="25" /><rect fill="#3d3731" height="1" width="1" x="1" y="25" /><rect fill="#3d3731" height="1" width="1" x="6" y="25" /><rect fill="#3d3731" height="1" width="1" x="7" y="25" /><rect fill="#3d3731" height="1" width="1" x="8" y="25" /><rect fill="#3d3731" height="1" width="1" x="9" y="25" /><rect fill="#3d3731" height="1" width="1" x="10" y="25" /><rect fill="#3d3731" height="1" width="1" x="11" y="25" /><rect fill="#3d3731" height="1" width="1" x="12" y="25" /><rect fill="#3d3731" height="1" width="1" x="13" y="25" /><rect fill="#3d3731" height="1" width="1" x="14" y="25" /><rect fill="#3d3731" height="1" width="1" x="15" y="25" /><rect fill="#3d3731" height="1" width="1" x="16" y="25" /><rect fill="#3d3731" height="1" width="1" x="17" y="25" /><rect fill="#3d3731" height="1" width="1" x="18" y="25" /><rect fill="#3d3731" height="1" width="1" x="19" y="25" /><rect fill="#3d3731" height="1" width="1" x="20" y="25" /><rect fill="#3d3731" height="1" width="1" x="21" y="25" /><rect fill="#3d3731" height="1" width="1" x="22" y="25" /><rect fill="#3d3731" height="1" width="1" x="23" y="25" /><rect fill="#3d3731" height="1" width="1" x="24" y="25" /><rect fill="#3d3731" height="1" width="1" x="25" y="25" /><rect fill="#3d3731" height="1" width="1" x="30" y="25" /><rect fill="#3d3731" height="1" width="1" x="31" y="25" /><rect fill="#3d3731" height="1" width="1" x="0" y="26" /><rect fill="#3d3731" height="1" width="1" x="1" y="26" /><rect fill="#3d3731" height="1" width="1" x="6" y="26" /><rect fill="#3d3731" height="1" width="1" x="7" y="26" /><rect fill="#3d3731" height="1" width="1" x="8" y="26" /><rect fill="#3d3731" height="1" width="1" x="9" y="26" /><rect fill="#3d3731" height="1" width="1" x="10" y="26" /><rect fill="#3d3731" height="1" width="1" x="11" y="26" /><rect fill="#3d3731" height="1" width="1" x="12" y="26" /><rect fill="#3d3731" height="1" width="1" x="13" y="26" /><rect fill="#3d3731" height="1" width="1" x="14" y="26" /><rect fill="#3d3731" height="1" width="1" x="15" y="26" /><rect fill="#3d3731" height="1" width="1" x="16" y="26" /><rect fill="#3d3731" height="1" width="1" x="17" y="26" /><rect fill="#3d3731" height="1" width="1" x="18" y="26" /><rect fill="#3d3731" height="1" width="1" x="19" y="26" /><rect fill="#3d3731" height="1" width="1" x="20" y="26" /><rect fill="#3d3731" height="1" width="1" x="21" y="26" /><rect fill="#3d3731" height="1" width="1" x="22" y="26" /><rect fill="#3d3731" height="1" width="1" x="23" y="26" /><rect fill="#3d3731" height="1" width="1" x="24" y="26" /><rect fill="#3d3731" height="1" width="1" x="25" y="26" /><rect fill="#3d3731" height="1" width="1" x="30" y="26" /><rect fill="#3d3731" height="1" width="1" x="31" y="26" /><rect fill="#3d3731" height="1" width="1" x="0" y="27" /><rect fill="#3d3731" height="1" width="1" x="1" y="27" /><rect fill="#3d3731" height="1" width="1" x="6" y="27" /><rect fill="#3d3731" height="1" width="1" x="7" y="27" /><rect fill="#3d3731" height="1" width="1" x="8" y="27" /><rect fill="#3d3731" height="1" width="1" x="9" y="27" /><rect fill="#3d3731" height="1" width="1" x="10" y="27" /><rect fill="#3d3731" height="1" width="1" x="11" y="27" /><rect fill="#3d3731" height="1" width="1" x="12" y="27" /><rect fill="#3d3731" height="1" width="1" x="13" y="27" /><rect fill="#3d3731" height="1" width="1" x="14" y="27" /><rect fill="#3d3731" height="1" width="1" x="15" y="27" /><rect fill="#3d3731" height="1" width="1" x="16" y="27" /><rect fill="#3d3731" height="1" width="1" x="17" y="27" /><rect fill="#3d3731" height="1" width="1" x="18" y="27" /><rect fill="#3d3731" height="1" width="1" x="19" y="27" /><rect fill="#3d3731" height="1" width="1" x="20" y="27" /><rect fill="#3d3731" height="1" width="1" x="21" y="27" /><rect fill="#3d3731" height="1" width="1" x="22" y="27" /><rect fill="#3d3731" height="1" width="1" x="23" y="27" /><rect fill="#3d3731" height="1" width="1" x="24" y="27" /><rect fill="#3d3731" height="1" width="1" x="25" y="27" /><rect fill="#3d3731" height="1" width="1" x="30" y="27" /><rect fill="#3d3731" height="1" width="1" x="31" y="27" /><rect fill="#3d3731" height="1" width="1" x="0" y="28" /><rect fill="#3d3731" height="1" width="1" x="1" y="28" /><rect fill="#3d3731" height="1" width="1" x="6" y="28" /><rect fill="#3d3731" height="1" width="1" x="7" y="28" /><rect fill="#3d3731" height="1" width="1" x="8" y="28" /><rect fill="#3d3731" height="1" width="1" x="9" y="28" /><rect fill="#3d3731" height="1" width="1" x="10" y="28" /><rect fill="#3d3731" height="1" width="1" x="11" y="28" /><rect fill="#3d3731" height="1" width="1" x="12" y="28" /><rect fill="#3d3731" height="1" width="1" x="13" y="28" /><rect fill="#3d3731" height="1" width="1" x="14" y="28" /><rect fill="#3d3731" height="1" width="1" x="15" y="28" /><rect fill="#3d3731" height="1" width="1" x="16" y="28" /><rect fill="#3d3731" height="1" width="1" x="17" y="28" /><rect fill="#3d3731" height="1" width="1" x="18" y="28" /><rect fill="#3d3731" height="1" width="1" x="19" y="28" /><rect fill="#3d3731" height="1" width="1" x="20" y="28" /><rect fill="#3d3731" height="1" width="1" x="21" y="28" /><rect fill="#3d3731" height="1" width="1" x="22" y="28" /><rect fill="#3d3731" height="1" width="1" x="23" y="28" /><rect fill="#3d3731" height="1" width="1" x="24" y="28" /><rect fill="#3d3731" height="1" width="1" x="25" y="28" /><rect fill="#3d3731" height="1" width="1" x="30" y="28" /><rect fill="#3d3731" height="1" width="1" x="31" y="28" /><rect fill="#3d3731" height="1" width="1" x="0" y="29" /><rect fill="#3d3731" height="1" width="1" x="1" y="29" /><rect fill="#3d3731" height="1" width="1" x="7" y="29" /><rect fill="#3d3731" height="1" width="1" x="8" y="29" /><rect fill="#3d3731" height="1" width="1" x="9" y="29" /><rect fill="#3d3731" height="1" width="1" x="10" y="29" /><rect fill="#3d3731" height="1" width="1" x="11" y="29" /><rect fill="#3d3731" height="1" width="1" x="12" y="29" /><rect fill="#3d3731" height="1" width="1" x="13" y="29" /><rect fill="#3d3731" height="1" width="1" x="14" y="29" /><rect fill="#3d3731" height="1" width="1" x="15" y="29" /><rect fill="#3d3731" height="1" width="1" x="16" y="29" /><rect fill="#3d3731" height="1" width="1" x="17" y="29" /><rect fill="#3d3731" height="1" width="1" x="18" y="29" /><rect fill="#3d3731" height="1" width="1" x="19" y="29" /><rect fill="#3d3731" height="1" width="1" x="20" y="29" /><rect fill="#3d3731" height="1" width="1" x="21" y="29" /><rect fill="#3d3731" height="1" width="1" x="22" y="29" /><rect fill="#3d3731" height="1" width="1" x="23" y="29" /><rect fill="#3d3731" height="1" width="1" x="24" y="29" /><rect fill="#3d3731" height="1" width="1" x="30" y="29" /><rect fill="#3d3731" height="1" width="1" x="31" y="29" /><rect fill="#3d3731" height="1" width="1" x="0" y="30" /><rect fill="#3d3731" height="1" width="1" x="1" y="30" /><rect fill="#3d3731" height="1" width="1" x="30" y="30" /><rect fill="#3d3731" height="1" width="1" x="31" y="30" /><rect fill="#3d3731" height="1" width="1" x="0" y="31" /><rect fill="#3d3731" height="1" width="1" x="1" y="31" /><rect fill="#3d3731" height="1" width="1" x="30" y="31" /><rect fill="#3d3731" height="1" width="1" x="31" y="31" /><rect fill="#3d3731" height="1" width="1" x="0" y="32" /><rect fill="#3d3731" height="1" width="1" x="1" y="32" /><rect fill="#3d3731" height="1" width="1" x="30" y="32" /><rect fill="#3d3731" height="1" width="1" x="31" y="32" /><rect fill="#3d3731" height="1" width="1" x="0" y="33" /><rect fill="#3d3731" height="1" width="1" x="1" y="33" /><rect fill="#3d3731" height="1" width="1" x="6" y="33" /><rect fill="#3d3731" height="1" width="1" x="7" y="33" /><rect fill="#3d3731" height="1" width="1" x="8" y="33" /><rect fill="#3d3731" height="1" width="1" x="9" y="33" /><rect fill="#3d3731" height="1" width="1" x="10" y="33" /><rect fill="#3d3731" height="1" width="1" x="11" y="33" /><rect fill="#3d3731" height="1" width="1" x="12" y="33" /><rect fill="#3d3731" height="1" width="1" x="13" y="33" /><rect fill="#3d3731" height="1" width="1" x="14" y="33" /><rect fill="#3d3731" height="1" width="1" x="15" y="33" /><rect fill="#3d3731" height="1" width="1" x="16" y="33" /><rect fill="#3d3731" height="1" width="1" x="17" y="33" /><rect fill="#3d3731" height="1" width="1" x="18" y="33" /><rect fill="#3d3731" height="1" width="1" x="19" y="33" /><rect fill="#3d3731" height="1" width="1" x="20" y="33" /><rect fill="#3d3731" height="1" width="1" x="21" y="33" /><rect fill="#3d3731" height="1" width="1" x="30" y="33" /><rect fill="#3d3731" height="1" width="1" x="31" y="33" /><rect fill="#3d3731" height="1" width="1" x="0" y="34" /><rect fill="#3d3731" height="1" width="1" x="1" y="34" /><rect fill="#3d3731" height="1" width="1" x="6" y="34" /><rect fill="#3d3731" height="1" width="1" x="7" y="34" /><rect fill="#3d3731" height="1" width="1" x="8" y="34" /><rect fill="#3d3731" height="1" width="1" x="9" y="34" /><rect fill="#3d3731" height="1" width="1" x="10" y="34" /><rect fill="#3d3731" height="1" width="1" x="11" y="34" /><rect fill="#3d3731" height="1" width="1" x="12" y="34" /><rect fill="#3d3731" height="1" width="1" x="13" y="34" /><rect fill="#3d3731" height="1" width="1" x="14" y="34" /><rect fill="#3d3731" height="1" width="1" x="15" y="34" /><rect fill="#3d3731" height="1" width="1" x="16" y="34" /><rect fill="#3d3731" height="1" width="1" x="17" y="34" /><rect fill="#3d3731" height="1" width="1" x="18" y="34" /><rect fill="#3d3731" height="1" width="1" x="19" y="34" /><rect fill="#3d3731" height="1" width="1" x="20" y="34" /><rect fill="#3d3731" height="1" width="1" x="21" y="34" /><rect fill="#3d3731" height="1" width="1" x="30" y="34" /><rect fill="#3d3731" height="1" width="1" x="31" y="34" /><rect fill="#3d3731" height="1" width="1" x="0" y="35" /><rect fill="#3d3731" height="1" width="1" x="1" y="35" /><rect fill="#3d3731" height="1" width="1" x="6" y="35" /><rect fill="#3d3731" height="1" width="1" x="7" y="35" /><rect fill="#3d3731" height="1" width="1" x="8" y="35" /><rect fill="#3d3731" height="1" width="1" x="9" y="35" /><rect fill="#3d3731" height="1" width="1" x="10" y="35" /><rect fill="#3d3731" height="1" width="1" x="11" y="35" /><rect fill="#3d3731" height="1" width="1" x="12" y="35" /><rect fill="#3d3731" height="1" width="1" x="13" y="35" /><rect fill="#3d3731" height="1" width="1" x="14" y="35" /><rect fill="#3d3731" height="1" width="1" x="15" y="35" /><rect fill="#3d3731" height="1" width="1" x="16" y="35" /><rect fill="#3d3731" height="1" width="1" x="17" y="35" /><rect fill="#3d3731" height="1" width="1" x="18" y="35" /><rect fill="#3d3731" height="1" width="1" x="19" y="35" /><rect fill="#3d3731" height="1" width="1" x="20" y="35" /><rect fill="#3d3731" height="1" width="1" x="21" y="35" /><rect fill="#3d3731" height="1" width="1" x="30" y="35" /><rect fill="#3d3731" height="1" width="1" x="31" y="35" /><rect fill="#3d3731" height="1" width="1" x="0" y="36" /><rect fill="#3d3731" height="1" width="1" x="1" y="36" /><rect fill="#3d3731" height="1" width="1" x="30" y="36" /><rect fill="#3d3731" height="1" width="1" x="31" y="36" /><rect fill="#3d3731" height="1" width="1" x="0" y="37" /><rect fill="#3d3731" height="1" width="1" x="1" y="37" /><rect fill="#3d3731" height="1" width="1" x="30" y="37" /><rect fill="#3d3731" height="1" width="1" x="31" y="37" /><rect fill="#3d3731" height="1" width="1" x="0" y="38" /><rect fill="#3d3731" height="1" width="1" x="1" y="38" /><rect fill="#3d3731" height="1" width="1" x="30" y="38" /><rect fill="#3d3731" height="1" width="1" x="31" y="38" /><rect fill="#3d3731" height="1" width="1" x="0" y="39" /><rect fill="#3d3731" height="1" width="1" x="1" y="39" /><rect fill="#3d3731" height="1" width="1" x="30" y="39" /><rect fill="#3d3731" height="1" width="1" x="31" y="39" /><rect fill="#3d3731" height="1" width="1" x="0" y="40" /><rect fill="#3d3731" height="1" width="1" x="1" y="40" /><rect fill="#3d3731" height="1" width="1" x="30" y="40" /><rect fill="#3d3731" height="1" width="1" x="31" y="40" /><rect fill="#3d3731" height="1" width="1" x="0" y="41" /><rect fill="#3d3731" height="1" width="1" x="1" y="41" /><rect fill="#3d3731" height="1" width="1" x="2" y="41" /><rect fill="#3d3731" height="1" width="1" x="29" y="41" /><rect fill="#3d3731" height="1" width="1" x="30" y="41" /><rect fill="#3d3731" height="1" width="1" x="31" y="41" /><rect fill="#3d3731" height="1" width="1" x="0" y="42" /><rect fill="#3d3731" height="1" width="1" x="1" y="42" /><rect fill="#3d3731" height="1" width="1" x="2" y="42" /><rect fill="#3d3731" height="1" width="1" x="29" y="42" /><rect fill="#3d3731" height="1" width="1" x="30" y="42" /><rect fill="#3d3731" height="1" width="1" x="31" y="42" /><rect fill="#3d3731" height="1" width="1" x="0" y="43" /><rect fill="#3d3731" height="1" width="1" x="1" y="43" /><rect fill="#3d3731" height="1" width="1" x="2" y="43" /><rect fill="#3d3731" height="1" width="1" x="3" y="43" /><rect fill="#3d3731" height="1" width="1" x="28" y="43" /><rect fill="#3d3731" height="1" width="1" x="29" y="43" /><rect fill="#3d3731" height="1" width="1" x="30" y="43" /><rect fill="#3d3731" height="1" width="1" x="31" y="43" /><rect fill="#3d3731" height="1" width="1" x="1" y="44" /><rect fill="#3d3731" height="1" width="1" x="2" y="44" /><rect fill="#3d3731" height="1" width="1" x="3" y="44" /><rect fill="#3d3731" height="1" width="1" x="4" y="44" /><rect fill="#3d3731" height="1" width="1" x="27" y="44" /><rect fill="#3d3731" height="1" width="1" x="28" y="44" /><rect fill="#3d3731" height="1" width="1" x="29" y="44" /><rect fill="#3d3731" height="1" width="1" x="30" y="44" /><rect fill="#3d3731" height="1" width="1" x="2" y="45" /><rect fill="#3d3731" height="1" width="1" x="3" y="45" /><rect fill="#3d3731" height="1" width="1" x="4" y="45" /><rect fill="#3d3731" height="1" width="1" x="5" y="45" /><rect fill="#3d3731" height="1" width="1" x="6" y="45" /><rect fill="#3d3731" height="1" width="1" x="25" y="45" /><rect fill="#3d3731" height="1" width="1" x="26" y="45" /><rect fill="#3d3731" height="1" width="1" x="27" y="45" /><rect fill="#3d3731" height="1" width="1" x="28" y="45" /><rect fill="#3d3731" height="1" width="1" x="29" y="45" /><rect fill="#3d3731" height="1" width="1" x="3" y="46" /><rect fill="#3d3731" height="1" width="1" x="4" y="46" /><rect fill="#3d3731" height="1" width="1" x="5" y="46" /><rect fill="#3d3731" height="1" width="1" x="6" y="46" /><rect fill="#3d3731" height="1" width="1" x="7" y="46" /><rect fill="#3d3731" height="1" width="1" x="8" y="46" /><rect fill="#3d3731" height="1" width="1" x="9" y="46" /><rect fill="#3d3731" height="1" width="1" x="10" y="46" /><rect fill="#3d3731" height="1" width="1" x="11" y="46" /><rect fill="#3d3731" height="1" width="1" x="12" y="46" /><rect fill="#3d3731" height="1" width="1" x="13" y="46" /><rect fill="#3d3731" height="1" width="1" x="14" y="46" /><rect fill="#3d3731" height="1" width="1" x="15" y="46" /><rect fill="#3d3731" height="1" width="1" x="16" y="46" /><rect fill="#3d3731" height="1" width="1" x="17" y="46" /><rect fill="#3d3731" height="1" width="1" x="18" y="46" /><rect fill="#3d3731" height="1" width="1" x="19" y="46" /><rect fill="#3d3731" height="1" width="1" x="20" y="46" /><rect fill="#3d3731" height="1" width="1" x="21" y="46" /><rect fill="#3d3731" height="1" width="1" x="22" y="46" /><rect fill="#3d3731" height="1" width="1" x="23" y="46" /><rect fill="#3d3731" height="1" width="1" x="24" y="46" /><rect fill="#3d3731" height="1" width="1" x="25" y="46" /><rect fill="#3d3731" height="1" width="1" x="26" y="46" /><rect fill="#3d3731" height="1" width="1" x="27" y="46" /><rect fill="#3d3731" height="1" width="1" x="28" y="46" /><rect fill="#3d3731" height="1" width="1" x="4" y="47" /><rect fill="#3d3731" height="1" width="1" x="5" y="47" /><rect fill="#3d3731" height="1" width="1" x="6" y="47" /><rect fill="#3d3731" height="1" width="1" x="7" y="47" /><rect fill="#3d3731" height="1" width="1" x="8" y="47" /><rect fill="#3d3731" height="1" width="1" x="9" y="47" /><rect fill="#3d3731" height="1" width="1" x="10" y="47" /><rect fill="#3d3731" height="1" width="1" x="11" y="47" /><rect fill="#3d3731" height="1" width="1" x="12" y="47" /><rect fill="#3d3731" height="1" width="1" x="13" y="47" /><rect fill="#3d3731" height="1" width="1" x="14" y="47" /><rect fill="#3d3731" height="1" width="1" x="15" y="47" /><rect fill="#3d3731" height="1" width="1" x="16" y="47" /><rect fill="#3d3731" height="1" width="1" x="17" y="47" /><rect fill="#3d3731" height="1" width="1" x="18" y="47" /><rect fill="#3d3731" height="1" width="1" x="19" y="47" /><rect fill="#3d3731" height="1" width="1" x="20" y="47" /><rect fill="#3d3731" height="1" width="1" x="21" y="47" /><rect fill="#3d3731" height="1" width="1" x="22" y="47" /><rect fill="#3d3731" height="1" width="1" x="23" y="47" /><rect fill="#3d3731" height="1" width="1" x="24" y="47" /><rect fill="#3d3731" height="1" width="1" x="25" y="47" /><rect fill="#3d3731" height="1" width="1" x="26" y="47" /><rect fill="#3d3731" height="1" width="1" x="27" y="47" /></svg>